<svg id="svg"
        xmlns="http://www.w3.org/2000/svg"
        xmlns:xlink="http://www.w3.org/1999/xlink" width="400" height="140.2865329512894" viewBox="0, 0, 400,140.2865329512894" version="1.1">
        <g id="svgg">
                <path id="path0" d="M66.389 0.526 C 66.129 0.815,65.767 1.214,65.583 1.413 C 65.400 1.611,64.959 2.106,64.603 2.512 C 63.208 4.103,62.054 5.392,61.417 6.072 C 61.050 6.464,60.450 7.139,60.083 7.572 C 59.717 8.006,59.154 8.647,58.833 8.997 C 58.512 9.347,57.837 10.095,57.333 10.659 C 56.829 11.223,56.175 11.946,55.881 12.267 C 55.586 12.588,55.010 13.240,54.602 13.717 C 54.194 14.193,53.517 14.941,53.097 15.378 C 52.157 16.356,52.150 16.617,53.045 17.241 C 53.433 17.512,53.810 17.830,53.883 17.950 C 53.957 18.069,54.080 18.167,54.158 18.167 C 54.297 18.167,55.045 18.757,55.758 19.430 C 55.959 19.620,56.340 19.943,56.604 20.148 C 58.643 21.729,62.667 25.877,62.667 26.399 C 62.667 26.455,62.788 26.631,62.936 26.792 C 63.444 27.343,64.991 29.911,65.092 30.372 C 65.148 30.626,65.256 30.833,65.334 30.833 C 65.411 30.833,65.563 31.103,65.672 31.433 C 65.781 31.762,65.974 32.231,66.101 32.474 C 66.227 32.718,66.332 33.048,66.332 33.208 C 66.333 33.369,66.402 33.500,66.485 33.500 C 66.568 33.500,66.727 34.044,66.837 34.708 C 66.948 35.373,67.123 36.022,67.227 36.151 C 67.497 36.484,67.489 43.970,67.218 44.516 C 67.109 44.736,66.933 45.460,66.828 46.125 C 66.723 46.790,66.577 47.333,66.503 47.333 C 66.430 47.333,66.322 47.593,66.262 47.910 C 66.203 48.227,66.045 48.695,65.911 48.951 C 65.778 49.207,65.622 49.660,65.566 49.958 C 65.509 50.256,65.406 50.500,65.336 50.500 C 65.266 50.500,65.163 50.725,65.108 51.000 C 65.014 51.474,64.704 52.234,63.986 53.761 C 63.810 54.134,63.667 54.527,63.667 54.636 C 63.667 54.745,63.600 54.833,63.518 54.833 C 63.436 54.833,63.318 55.040,63.255 55.292 C 63.192 55.544,62.846 56.353,62.487 57.089 C 62.127 57.826,61.833 58.519,61.833 58.631 C 61.833 58.742,61.764 58.833,61.680 58.833 C 61.595 58.833,61.434 59.115,61.322 59.458 C 61.210 59.802,61.070 60.121,61.011 60.167 C 60.860 60.284,60.000 62.251,60.000 62.479 C 60.000 62.582,59.937 62.667,59.860 62.667 C 59.783 62.667,59.621 62.967,59.500 63.333 C 59.379 63.700,59.217 64.000,59.140 64.000 C 59.063 64.000,59.000 64.080,59.000 64.177 C 59.000 64.275,58.813 64.765,58.583 65.266 C 58.354 65.767,58.167 66.249,58.167 66.338 C 58.167 66.427,58.101 66.500,58.022 66.500 C 57.942 66.500,57.782 66.837,57.667 67.250 C 57.551 67.662,57.391 68.000,57.312 68.000 C 57.232 68.000,57.164 68.094,57.161 68.208 C 57.159 68.323,56.972 68.792,56.746 69.250 C 56.521 69.708,56.336 70.177,56.335 70.292 C 56.334 70.406,56.258 70.500,56.167 70.500 C 56.075 70.500,56.000 70.573,56.000 70.662 C 56.000 70.751,55.813 71.233,55.583 71.734 C 55.354 72.235,55.167 72.725,55.167 72.823 C 55.167 72.920,55.104 73.000,55.027 73.000 C 54.950 73.000,54.788 73.300,54.667 73.667 C 54.546 74.033,54.393 74.333,54.328 74.333 C 54.263 74.333,54.111 74.690,53.990 75.125 C 53.868 75.560,53.671 76.016,53.551 76.137 C 53.431 76.258,53.333 76.464,53.333 76.595 C 53.333 76.726,53.258 76.833,53.167 76.833 C 53.075 76.833,53.000 76.921,53.000 77.028 C 53.000 77.218,52.564 78.188,51.401 80.588 C 51.089 81.232,50.833 81.851,50.833 81.963 C 50.833 82.075,50.768 82.167,50.688 82.167 C 50.609 82.167,50.449 82.504,50.333 82.917 C 50.218 83.329,50.064 83.667,49.992 83.667 C 49.919 83.667,49.810 83.892,49.750 84.167 C 49.690 84.442,49.579 84.667,49.505 84.667 C 49.430 84.667,49.322 84.857,49.263 85.090 C 49.083 85.809,48.718 85.181,47.953 82.833 C 47.849 82.512,47.712 82.212,47.649 82.167 C 47.586 82.121,47.444 81.746,47.333 81.333 C 47.223 80.921,47.084 80.546,47.024 80.500 C 46.901 80.405,46.394 79.051,46.135 78.125 C 46.038 77.781,45.903 77.500,45.834 77.500 C 45.765 77.500,45.663 77.275,45.608 77.000 C 45.553 76.725,45.356 76.167,45.171 75.759 C 44.985 75.352,44.833 74.902,44.833 74.759 C 44.833 74.617,44.765 74.500,44.682 74.500 C 44.599 74.500,44.435 74.125,44.317 73.667 C 44.200 73.208,44.050 72.833,43.985 72.833 C 43.920 72.833,43.777 72.458,43.667 72.000 C 43.557 71.542,43.399 71.167,43.317 71.167 C 43.234 71.167,43.167 71.050,43.167 70.908 C 43.167 70.765,43.025 70.334,42.852 69.949 C 42.679 69.565,42.486 69.006,42.422 68.708 C 42.359 68.410,42.247 68.167,42.174 68.167 C 42.101 68.167,41.997 67.942,41.942 67.667 C 41.887 67.392,41.690 66.833,41.504 66.426 C 41.319 66.018,41.167 65.568,41.167 65.426 C 41.167 65.283,41.098 65.167,41.013 65.167 C 40.929 65.167,40.808 64.923,40.744 64.625 C 40.681 64.327,40.487 63.769,40.314 63.384 C 40.142 63.000,40.000 62.636,40.000 62.576 C 40.000 62.471,39.730 61.814,39.250 60.750 C 39.126 60.475,38.925 59.950,38.805 59.583 C 38.684 59.217,38.540 58.879,38.485 58.833 C 38.430 58.788,38.330 58.528,38.263 58.256 C 38.197 57.984,37.998 57.444,37.821 57.057 C 37.645 56.669,37.500 56.235,37.500 56.092 C 37.500 55.950,37.432 55.833,37.350 55.833 C 37.267 55.833,37.110 55.458,37.000 54.999 C 36.890 54.541,36.740 54.129,36.667 54.083 C 36.593 54.038,36.443 53.626,36.333 53.167 C 36.223 52.709,36.074 52.333,36.002 52.333 C 35.930 52.333,35.821 52.071,35.761 51.750 C 35.701 51.429,35.589 51.167,35.513 51.167 C 35.437 51.167,35.330 50.942,35.275 50.667 C 35.220 50.392,35.023 49.833,34.838 49.426 C 34.652 49.018,34.500 48.615,34.500 48.530 C 34.500 48.351,33.920 46.944,33.594 46.333 C 33.472 46.104,33.320 45.673,33.256 45.375 C 33.192 45.077,33.083 44.833,33.013 44.833 C 32.944 44.833,32.788 44.421,32.667 43.917 C 32.546 43.413,32.392 43.000,32.325 43.000 C 32.258 43.000,32.155 42.737,32.094 42.417 C 32.034 42.096,31.925 41.833,31.852 41.833 C 31.780 41.833,31.621 41.421,31.500 40.917 C 31.379 40.413,31.225 40.000,31.157 40.000 C 31.089 40.000,30.943 39.625,30.833 39.167 C 30.723 38.708,30.566 38.333,30.483 38.333 C 30.401 38.333,30.333 38.202,30.332 38.042 C 30.332 37.881,30.220 37.538,30.085 37.278 C 29.950 37.018,29.755 36.493,29.652 36.111 C 29.549 35.729,29.417 35.379,29.357 35.333 C 29.297 35.287,29.149 34.950,29.029 34.583 C 28.908 34.217,28.708 33.692,28.584 33.417 C 28.011 32.147,27.823 31.656,27.728 31.180 C 27.671 30.898,27.567 30.667,27.496 30.667 C 27.425 30.667,27.277 30.292,27.167 29.833 C 27.057 29.375,26.899 29.000,26.817 29.000 C 26.734 29.000,26.667 28.883,26.667 28.741 C 26.667 28.598,26.525 28.167,26.352 27.783 C 26.179 27.398,25.986 26.840,25.922 26.542 C 25.859 26.244,25.747 26.000,25.674 26.000 C 25.601 26.000,25.497 25.775,25.442 25.500 C 25.387 25.225,25.190 24.667,25.004 24.259 C 24.819 23.852,24.667 23.402,24.667 23.259 C 24.667 23.117,24.601 23.000,24.520 23.000 C 24.440 23.000,24.295 22.719,24.200 22.375 C 23.952 21.488,23.288 19.766,23.154 19.667 C 23.092 19.621,22.989 19.340,22.924 19.042 C 22.860 18.744,22.750 18.500,22.680 18.500 C 22.610 18.500,22.454 18.087,22.333 17.583 C 22.212 17.079,22.060 16.667,21.994 16.667 C 21.929 16.667,21.830 16.442,21.775 16.167 C 21.720 15.892,21.523 15.333,21.338 14.926 C 21.152 14.518,21.000 14.068,21.000 13.926 C 21.000 13.783,20.932 13.667,20.850 13.667 C 20.767 13.667,20.610 13.292,20.500 12.833 C 20.390 12.375,20.247 12.000,20.182 12.000 C 20.116 12.000,19.967 11.625,19.850 11.167 C 19.732 10.709,19.568 10.292,19.485 10.241 C 19.401 10.189,19.333 9.999,19.333 9.818 C 19.333 9.238,17.229 9.649,16.667 10.339 C 16.621 10.395,16.227 10.539,15.792 10.659 C 15.356 10.779,15.000 10.942,15.000 11.022 C 15.000 11.101,14.906 11.167,14.792 11.168 C 14.677 11.169,14.208 11.354,13.750 11.580 C 13.292 11.805,12.823 11.992,12.708 11.995 C 12.594 11.998,12.500 12.075,12.500 12.167 C 12.500 12.258,12.375 12.333,12.222 12.333 C 12.068 12.333,11.487 12.548,10.930 12.811 C 9.224 13.614,8.707 13.833,8.516 13.833 C 8.416 13.833,8.333 13.899,8.333 13.978 C 8.333 14.058,7.996 14.218,7.583 14.333 C 7.171 14.449,6.833 14.600,6.833 14.670 C 6.833 14.740,6.627 14.848,6.375 14.910 C 6.123 14.972,5.391 15.274,4.749 15.581 C 4.107 15.888,3.376 16.191,3.124 16.255 C 2.873 16.318,2.667 16.428,2.667 16.500 C 2.667 16.572,2.460 16.681,2.208 16.743 C 1.629 16.886,0.293 17.529,0.117 17.750 C -0.165 18.105,0.077 21.049,0.454 21.833 C 0.652 22.246,0.864 22.790,0.925 23.042 C 0.986 23.294,1.094 23.500,1.165 23.500 C 1.236 23.500,1.379 23.837,1.483 24.250 C 1.586 24.662,1.731 25.000,1.804 25.000 C 1.877 25.000,2.033 25.375,2.151 25.833 C 2.268 26.292,2.424 26.667,2.497 26.667 C 2.570 26.667,2.679 26.929,2.739 27.250 C 2.799 27.571,2.914 27.833,2.994 27.833 C 3.075 27.833,3.191 28.077,3.253 28.375 C 3.315 28.673,3.464 29.072,3.584 29.262 C 3.704 29.452,3.896 29.921,4.011 30.304 C 4.126 30.687,4.274 31.000,4.341 31.000 C 4.408 31.000,4.512 31.263,4.572 31.583 C 4.633 31.904,4.753 32.167,4.841 32.167 C 4.928 32.167,5.000 32.291,5.000 32.442 C 5.000 32.594,5.182 33.102,5.404 33.573 C 5.627 34.043,5.860 34.631,5.922 34.880 C 5.985 35.130,6.095 35.333,6.166 35.333 C 6.238 35.333,6.345 35.596,6.406 35.917 C 6.466 36.237,6.573 36.500,6.643 36.500 C 6.713 36.500,6.866 36.875,6.984 37.333 C 7.101 37.792,7.250 38.167,7.314 38.167 C 7.378 38.167,7.521 38.504,7.631 38.917 C 7.742 39.329,7.899 39.667,7.981 39.667 C 8.063 39.667,8.179 39.929,8.239 40.250 C 8.299 40.571,8.406 40.833,8.476 40.833 C 8.546 40.833,8.700 41.208,8.817 41.667 C 8.935 42.125,9.099 42.500,9.182 42.500 C 9.265 42.500,9.334 42.631,9.335 42.792 C 9.336 42.952,9.521 43.458,9.746 43.917 C 9.972 44.375,10.159 44.844,10.161 44.958 C 10.164 45.073,10.227 45.167,10.302 45.167 C 10.376 45.167,10.533 45.542,10.651 46.000 C 10.768 46.458,10.932 46.833,11.015 46.833 C 11.099 46.833,11.167 46.967,11.167 47.131 C 11.167 47.295,11.317 47.724,11.500 48.083 C 11.683 48.443,11.833 48.828,11.833 48.940 C 11.833 49.052,11.931 49.242,12.051 49.363 C 12.171 49.484,12.368 49.940,12.490 50.375 C 12.611 50.810,12.775 51.167,12.855 51.167 C 12.935 51.167,13.000 51.293,13.000 51.447 C 13.000 51.706,13.150 52.076,14.002 53.917 C 14.171 54.283,14.361 54.790,14.423 55.042 C 14.485 55.294,14.603 55.500,14.685 55.500 C 14.766 55.500,14.833 55.611,14.833 55.747 C 14.833 56.009,15.681 58.193,15.838 58.333 C 15.889 58.379,16.033 58.735,16.159 59.125 C 16.284 59.515,16.450 59.833,16.527 59.833 C 16.604 59.833,16.667 59.944,16.667 60.080 C 16.667 60.344,17.516 62.528,17.672 62.667 C 17.724 62.712,17.859 63.069,17.973 63.458 C 18.087 63.848,18.252 64.167,18.340 64.167 C 18.428 64.167,18.500 64.278,18.500 64.413 C 18.500 64.738,19.381 66.901,19.542 66.972 C 19.610 67.003,19.667 67.148,19.667 67.295 C 19.667 67.441,19.806 67.866,19.976 68.239 C 20.672 69.760,21.167 70.969,21.167 71.146 C 21.167 71.249,21.227 71.333,21.302 71.333 C 21.376 71.333,21.533 71.708,21.651 72.167 C 21.768 72.625,21.932 73.000,22.015 73.000 C 22.099 73.000,22.167 73.110,22.167 73.245 C 22.167 73.380,22.354 73.900,22.583 74.401 C 22.812 74.902,23.000 75.392,23.000 75.489 C 23.000 75.587,23.061 75.667,23.135 75.667 C 23.209 75.667,23.366 76.042,23.484 76.500 C 23.601 76.958,23.766 77.333,23.849 77.333 C 23.932 77.333,24.000 77.455,24.000 77.604 C 24.000 77.890,24.829 79.858,25.009 80.000 C 25.068 80.046,25.170 80.306,25.237 80.578 C 25.303 80.849,25.491 81.374,25.655 81.744 C 25.818 82.114,26.126 82.848,26.340 83.375 C 26.553 83.902,26.780 84.333,26.843 84.333 C 26.907 84.333,27.003 84.558,27.058 84.833 C 27.113 85.108,27.316 85.690,27.508 86.125 C 27.700 86.560,27.956 87.142,28.077 87.417 C 28.198 87.692,28.347 88.085,28.409 88.292 C 28.472 88.498,28.583 88.667,28.657 88.667 C 28.731 88.667,28.837 88.892,28.892 89.167 C 28.947 89.442,29.133 89.985,29.305 90.375 C 29.477 90.765,29.798 91.533,30.018 92.083 C 30.237 92.633,30.473 93.108,30.542 93.139 C 30.610 93.169,30.667 93.298,30.667 93.426 C 30.667 93.630,30.859 94.102,31.750 96.083 C 31.873 96.358,32.026 96.790,32.089 97.042 C 32.151 97.294,32.270 97.500,32.351 97.500 C 32.433 97.500,32.500 97.626,32.500 97.781 C 32.500 97.935,32.644 98.366,32.819 98.739 C 33.471 100.123,33.812 100.941,33.923 101.381 C 33.985 101.630,34.094 101.833,34.164 101.833 C 34.234 101.833,34.333 102.040,34.383 102.292 C 34.434 102.544,34.738 103.313,35.059 104.000 C 35.380 104.688,35.693 105.456,35.756 105.708 C 35.818 105.960,35.927 106.167,35.997 106.167 C 36.068 106.167,36.168 106.382,36.221 106.645 C 36.273 106.908,36.583 107.692,36.908 108.387 C 37.234 109.082,37.500 109.711,37.501 109.784 C 37.502 109.857,37.606 110.116,37.733 110.359 C 37.860 110.602,38.059 111.089,38.175 111.441 C 38.291 111.794,38.562 112.412,38.776 112.816 C 38.991 113.219,39.167 113.611,39.167 113.687 C 39.167 113.762,39.354 114.233,39.583 114.734 C 39.813 115.235,40.003 115.706,40.006 115.781 C 40.009 115.856,40.156 116.217,40.333 116.583 C 40.510 116.950,40.658 117.344,40.661 117.458 C 40.664 117.573,40.742 117.667,40.833 117.667 C 40.925 117.667,41.000 117.773,41.000 117.904 C 41.000 118.034,41.169 118.521,41.375 118.987 L 41.750 119.833 43.958 119.833 C 45.639 119.833,46.167 119.782,46.167 119.620 C 46.167 119.503,46.388 118.981,46.658 118.461 C 46.928 117.940,47.240 117.211,47.351 116.840 C 47.462 116.470,47.610 116.167,47.680 116.167 C 47.750 116.167,47.897 115.897,48.005 115.567 C 48.114 115.238,48.307 114.769,48.434 114.526 C 48.561 114.282,48.665 113.990,48.666 113.875 C 48.666 113.760,48.732 113.667,48.812 113.667 C 48.891 113.667,49.051 113.329,49.167 112.917 C 49.282 112.504,49.442 112.167,49.522 112.167 C 49.601 112.167,49.667 112.080,49.667 111.974 C 49.667 111.800,49.912 111.233,50.848 109.239 C 51.023 108.866,51.167 108.473,51.167 108.364 C 51.167 108.255,51.238 108.167,51.326 108.167 C 51.413 108.167,51.534 107.907,51.593 107.589 C 51.653 107.272,51.806 106.925,51.934 106.819 C 52.062 106.713,52.167 106.553,52.167 106.463 C 52.167 106.290,52.346 105.875,53.336 103.750 C 53.677 103.017,54.014 102.233,54.084 102.008 C 54.154 101.783,54.310 101.499,54.432 101.377 C 54.554 101.256,54.702 100.896,54.762 100.578 C 54.822 100.260,54.937 100.000,55.019 100.000 C 55.100 100.000,55.169 99.906,55.172 99.792 C 55.175 99.677,55.362 99.208,55.587 98.750 C 55.812 98.292,55.998 97.823,55.998 97.708 C 55.999 97.594,56.065 97.500,56.145 97.500 C 56.225 97.500,56.385 97.162,56.500 96.750 C 56.615 96.337,56.775 96.000,56.855 96.000 C 56.935 96.000,57.002 95.906,57.005 95.792 C 57.008 95.677,57.195 95.208,57.420 94.750 C 57.646 94.292,57.831 93.823,57.832 93.708 C 57.833 93.594,57.899 93.500,57.978 93.500 C 58.058 93.500,58.218 93.162,58.333 92.750 C 58.449 92.337,58.609 92.000,58.688 92.000 C 58.768 92.000,58.833 91.918,58.833 91.817 C 58.833 91.635,58.924 91.419,59.871 89.333 C 60.542 87.855,60.634 87.646,60.829 87.167 C 60.923 86.938,61.071 86.638,61.158 86.500 C 61.246 86.362,61.444 85.950,61.599 85.583 C 61.754 85.217,62.167 84.307,62.515 83.563 C 62.864 82.818,63.199 82.012,63.260 81.771 C 63.320 81.530,63.433 81.333,63.511 81.333 C 63.589 81.333,63.743 81.033,63.853 80.667 C 63.963 80.300,64.116 80.000,64.193 80.000 C 64.270 80.000,64.336 79.906,64.339 79.792 C 64.341 79.677,64.528 79.208,64.754 78.750 C 64.979 78.292,65.164 77.823,65.165 77.708 C 65.166 77.594,65.234 77.500,65.315 77.500 C 65.397 77.500,65.515 77.294,65.578 77.042 C 65.641 76.790,66.092 75.758,66.579 74.750 C 67.067 73.742,67.521 72.729,67.589 72.500 C 67.656 72.271,67.758 72.046,67.814 72.000 C 68.017 71.835,69.500 68.606,69.500 68.328 C 69.500 68.239,69.575 68.167,69.667 68.167 C 69.758 68.167,69.836 68.073,69.839 67.958 C 69.841 67.844,70.028 67.375,70.254 66.917 C 70.479 66.458,70.664 65.990,70.665 65.875 C 70.666 65.760,70.732 65.667,70.812 65.667 C 70.891 65.667,71.051 65.329,71.167 64.917 C 71.282 64.504,71.442 64.167,71.522 64.167 C 71.601 64.167,71.669 64.073,71.672 63.958 C 71.675 63.844,71.862 63.375,72.087 62.917 C 72.312 62.458,72.498 61.990,72.498 61.875 C 72.499 61.760,72.575 61.667,72.667 61.667 C 72.758 61.667,72.833 61.584,72.833 61.483 C 72.833 61.381,73.021 60.925,73.250 60.469 C 73.479 60.013,73.667 59.533,73.667 59.403 C 73.667 59.273,73.730 59.167,73.807 59.167 C 73.884 59.167,74.046 58.867,74.167 58.500 C 74.288 58.133,74.450 57.833,74.527 57.833 C 74.604 57.833,74.667 57.745,74.667 57.636 C 74.667 57.431,74.881 56.949,76.106 54.405 C 76.506 53.574,76.833 52.805,76.833 52.697 C 76.833 52.589,76.891 52.500,76.961 52.500 C 77.031 52.500,77.251 52.144,77.450 51.708 C 78.287 49.879,78.667 48.981,78.667 48.828 C 78.667 48.739,78.738 48.667,78.826 48.667 C 78.913 48.667,79.034 48.404,79.094 48.083 C 79.155 47.762,79.261 47.500,79.330 47.500 C 79.400 47.500,79.556 47.144,79.677 46.708 C 79.798 46.273,79.996 45.818,80.115 45.696 C 80.235 45.575,80.333 45.362,80.333 45.222 C 80.333 45.082,80.440 44.731,80.570 44.442 C 81.131 43.194,81.500 42.280,81.500 42.136 C 81.500 42.051,81.642 41.667,81.814 41.283 C 81.987 40.898,82.184 40.321,82.250 40.000 C 82.317 39.679,82.430 39.342,82.500 39.250 C 82.570 39.158,82.680 38.821,82.743 38.500 C 82.806 38.179,82.957 37.692,83.079 37.417 C 83.200 37.142,83.353 36.504,83.418 36.000 C 83.484 35.496,83.594 35.008,83.663 34.917 C 83.814 34.716,84.167 32.004,84.167 31.040 C 84.167 30.662,84.242 30.307,84.333 30.250 C 84.434 30.188,84.500 28.974,84.500 27.167 C 84.500 25.360,84.434 24.146,84.333 24.083 C 84.242 24.027,84.164 23.666,84.160 23.282 C 84.149 22.119,83.302 18.244,82.989 17.925 C 82.903 17.838,82.833 17.628,82.833 17.458 C 82.833 17.287,82.689 16.831,82.512 16.443 C 82.336 16.056,82.140 15.535,82.077 15.286 C 82.015 15.037,81.897 14.833,81.815 14.833 C 81.734 14.833,81.667 14.709,81.667 14.558 C 81.667 14.256,80.863 12.467,80.667 12.333 C 80.600 12.287,80.487 12.063,80.416 11.833 C 80.345 11.604,80.148 11.238,79.977 11.019 C 79.806 10.801,79.667 10.556,79.667 10.476 C 79.667 10.396,79.404 9.956,79.083 9.500 C 78.762 9.044,78.500 8.598,78.500 8.510 C 78.500 8.422,78.406 8.290,78.291 8.217 C 78.176 8.143,77.858 7.751,77.583 7.346 C 76.676 6.008,74.791 3.999,73.190 2.667 C 72.805 2.346,72.398 2.007,72.286 1.914 C 72.175 1.821,71.549 1.353,70.896 0.873 L 69.709 0.000 68.285 0.000 C 66.899 0.000,66.849 0.014,66.389 0.526 M243.668 9.446 C 243.164 9.582,242.677 9.755,242.584 9.832 C 242.492 9.908,242.135 10.023,241.790 10.087 C 241.445 10.152,241.125 10.266,241.079 10.341 C 241.032 10.416,240.583 10.569,240.080 10.682 C 239.578 10.794,239.167 10.938,239.167 11.000 C 239.167 11.062,238.755 11.206,238.253 11.318 C 237.750 11.431,237.300 11.586,237.252 11.663 C 237.204 11.741,236.865 11.855,236.499 11.917 C 236.133 11.979,235.833 12.089,235.833 12.163 C 235.833 12.236,235.552 12.348,235.208 12.412 C 234.865 12.476,234.358 12.629,234.083 12.754 C 233.808 12.879,233.246 13.067,232.833 13.173 C 232.421 13.279,232.008 13.427,231.917 13.501 C 231.825 13.576,231.469 13.689,231.125 13.754 C 230.781 13.818,230.500 13.929,230.500 14.000 C 230.500 14.071,230.219 14.182,229.875 14.247 C 229.531 14.311,228.950 14.500,228.583 14.667 C 228.217 14.833,227.635 15.022,227.292 15.087 C 226.948 15.151,226.667 15.265,226.667 15.341 C 226.667 15.416,226.460 15.502,226.208 15.531 L 225.750 15.583 225.778 21.148 C 225.794 24.398,225.871 26.756,225.962 26.815 C 226.048 26.871,226.172 27.209,226.238 27.566 C 226.304 27.923,226.465 28.322,226.595 28.453 C 226.726 28.583,226.833 28.861,226.833 29.070 C 226.833 29.278,226.983 29.622,227.167 29.833 C 227.350 30.045,227.500 30.270,227.500 30.334 C 227.500 30.399,227.669 30.640,227.875 30.871 C 228.081 31.102,228.444 31.507,228.681 31.770 C 229.219 32.369,229.839 32.833,230.099 32.833 C 230.208 32.833,230.337 32.935,230.385 33.060 C 230.432 33.184,230.700 33.332,230.980 33.388 C 232.747 33.741,232.747 36.592,230.980 36.946 C 230.700 37.002,230.435 37.142,230.390 37.259 C 230.346 37.375,230.114 37.519,229.876 37.579 C 229.426 37.692,228.000 39.019,228.000 39.325 C 228.000 39.421,227.921 39.500,227.825 39.500 C 227.728 39.500,227.571 39.725,227.475 40.000 C 227.379 40.275,227.234 40.500,227.153 40.500 C 227.071 40.500,226.920 40.837,226.816 41.250 C 226.712 41.662,226.569 42.000,226.499 42.000 C 226.428 42.000,226.318 42.281,226.254 42.625 C 226.189 42.969,226.061 43.342,225.967 43.455 C 225.863 43.581,225.837 44.194,225.900 45.039 C 226.220 49.353,226.211 55.833,225.885 55.833 C 225.710 55.833,225.475 55.742,225.363 55.629 C 225.080 55.347,217.297 55.358,217.203 55.641 C 217.168 55.747,216.916 55.833,216.643 55.833 C 215.883 55.833,213.833 56.200,213.833 56.336 C 213.833 56.403,213.461 56.506,213.007 56.567 C 212.552 56.627,212.135 56.749,212.080 56.838 C 212.025 56.927,211.647 57.084,211.240 57.187 C 210.833 57.289,210.500 57.439,210.500 57.520 C 210.500 57.601,210.399 57.667,210.275 57.667 C 210.151 57.667,209.682 57.864,209.233 58.104 C 208.784 58.345,208.135 58.690,207.792 58.871 C 207.448 59.052,207.167 59.268,207.167 59.350 C 207.167 59.433,207.073 59.500,206.958 59.500 C 206.746 59.501,204.617 61.027,203.428 62.030 C 201.961 63.270,199.364 66.033,199.182 66.550 C 199.144 66.657,198.948 66.874,198.746 67.033 C 198.544 67.192,198.284 67.550,198.169 67.828 C 198.054 68.106,197.899 68.333,197.824 68.333 C 197.750 68.333,197.642 68.483,197.584 68.666 C 197.526 68.848,197.383 69.094,197.266 69.210 C 196.962 69.514,195.500 72.079,195.500 72.308 C 195.500 72.414,195.431 72.500,195.347 72.500 C 195.262 72.500,195.144 72.725,195.083 73.000 C 195.023 73.275,194.914 73.500,194.842 73.500 C 194.769 73.500,194.615 73.837,194.500 74.250 C 194.385 74.662,194.231 75.000,194.158 75.000 C 194.086 75.000,193.976 75.244,193.914 75.542 C 193.851 75.840,193.705 76.234,193.589 76.419 C 193.472 76.604,193.323 77.003,193.256 77.305 C 193.190 77.608,193.036 78.048,192.914 78.283 C 192.792 78.518,192.642 79.075,192.580 79.522 C 192.519 79.968,192.408 80.333,192.333 80.333 C 192.259 80.333,192.144 80.726,192.078 81.205 C 192.012 81.684,191.860 82.355,191.740 82.694 C 191.620 83.034,191.469 83.861,191.404 84.531 C 191.339 85.201,191.209 85.800,191.114 85.861 C 190.871 86.018,190.756 94.592,190.977 96.083 C 191.338 98.529,191.990 101.420,192.311 102.000 C 192.387 102.138,192.550 102.644,192.673 103.125 C 192.796 103.606,192.957 104.000,193.032 104.000 C 193.106 104.000,193.167 104.080,193.167 104.177 C 193.167 104.400,194.016 106.221,194.172 106.333 C 194.236 106.379,194.344 106.595,194.412 106.812 C 194.714 107.779,197.151 110.920,198.554 112.150 C 198.721 112.297,199.171 112.697,199.554 113.039 C 199.937 113.382,200.344 113.663,200.458 113.664 C 200.573 113.666,200.667 113.729,200.667 113.805 C 200.667 113.881,200.873 114.050,201.125 114.180 C 201.377 114.310,201.621 114.462,201.667 114.518 C 201.813 114.697,204.312 116.000,204.510 116.000 C 204.614 116.000,204.936 116.105,205.225 116.234 C 206.799 116.937,210.108 117.495,212.750 117.505 C 213.992 117.509,216.645 117.142,217.491 116.850 C 218.047 116.657,218.614 116.500,218.751 116.500 C 218.888 116.500,219.000 116.431,219.000 116.347 C 219.000 116.262,219.226 116.144,219.502 116.083 C 219.778 116.022,220.096 115.884,220.210 115.776 C 220.324 115.668,220.604 115.484,220.833 115.366 C 222.769 114.377,224.769 112.725,226.720 110.504 C 226.979 110.209,227.214 109.994,227.242 110.026 C 227.271 110.057,227.498 110.477,227.748 110.958 C 227.997 111.440,228.269 111.833,228.351 111.833 C 228.433 111.833,228.500 111.941,228.500 112.072 C 228.500 112.652,231.464 115.193,232.422 115.433 C 232.648 115.490,232.833 115.591,232.833 115.658 C 232.833 115.725,233.265 115.880,233.792 116.001 C 234.319 116.123,234.840 116.291,234.949 116.374 C 235.485 116.781,242.366 116.778,242.881 116.370 C 242.992 116.282,243.383 116.156,243.750 116.090 C 244.117 116.024,244.604 115.870,244.833 115.749 C 245.063 115.628,245.662 115.326,246.167 115.077 C 246.671 114.828,247.121 114.577,247.167 114.520 C 247.213 114.463,247.449 114.314,247.693 114.188 C 247.937 114.063,248.373 113.744,248.662 113.480 C 248.951 113.216,249.241 113.000,249.307 113.000 C 249.516 113.000,252.338 110.005,252.533 109.577 C 252.636 109.351,252.774 109.167,252.840 109.167 C 252.906 109.167,253.053 108.942,253.167 108.667 C 253.281 108.392,253.440 108.167,253.520 108.167 C 253.601 108.167,253.667 108.060,253.667 107.929 C 253.667 107.798,253.760 107.591,253.875 107.470 C 253.990 107.349,254.334 106.725,254.641 106.083 C 254.947 105.442,255.266 104.786,255.349 104.627 C 255.632 104.084,255.499 103.863,253.857 102.140 C 252.954 101.192,251.592 99.760,250.831 98.958 C 249.292 97.336,249.135 97.265,248.822 98.042 C 248.701 98.340,248.505 98.643,248.385 98.717 C 248.265 98.790,248.167 98.959,248.167 99.092 C 248.167 99.225,248.089 99.333,247.995 99.333 C 247.900 99.333,247.774 99.465,247.715 99.625 C 247.656 99.785,247.434 100.149,247.221 100.432 C 247.008 100.716,246.833 100.998,246.833 101.059 C 246.833 101.189,246.095 102.047,245.500 102.610 L 245.083 103.003 245.040 92.335 C 245.003 83.006,244.966 81.667,244.749 81.667 C 244.611 81.667,244.500 81.816,244.500 82.000 C 244.500 82.183,244.442 82.333,244.371 82.333 C 244.301 82.333,244.147 82.837,244.030 83.453 C 243.913 84.069,243.754 84.613,243.677 84.662 C 243.599 84.710,243.440 85.594,243.323 86.625 C 243.205 87.656,243.047 88.500,242.971 88.500 C 242.895 88.500,242.833 88.608,242.833 88.741 C 242.833 89.422,241.133 89.750,240.173 89.253 C 239.654 88.985,239.447 88.390,239.156 86.334 C 239.072 85.738,238.927 85.226,238.835 85.195 C 238.742 85.164,238.667 84.959,238.667 84.739 C 238.667 84.174,238.290 82.833,238.132 82.833 C 238.059 82.833,238.000 82.642,238.000 82.407 C 238.000 81.814,237.654 80.500,237.498 80.500 C 237.427 80.500,237.322 80.312,237.265 80.083 C 237.207 79.854,237.093 79.667,237.010 79.667 C 236.927 79.667,236.806 79.423,236.741 79.125 C 236.597 78.466,235.829 76.967,235.542 76.783 C 235.427 76.710,235.333 76.541,235.333 76.408 C 235.333 76.275,235.267 76.167,235.187 76.167 C 235.106 76.167,234.947 75.942,234.833 75.667 C 234.719 75.392,234.558 75.167,234.475 75.167 C 234.391 75.167,234.278 75.050,234.223 74.907 C 234.051 74.457,232.354 72.865,231.656 72.498 C 231.433 72.381,231.190 72.183,231.117 72.059 C 231.043 71.935,230.883 71.833,230.760 71.833 C 230.636 71.833,230.495 71.728,230.446 71.599 C 230.396 71.470,230.126 71.314,229.845 71.252 C 229.563 71.191,229.333 71.083,229.333 71.013 C 229.333 70.944,228.921 70.788,228.417 70.667 C 227.912 70.546,227.500 70.393,227.500 70.328 C 227.500 70.262,227.277 70.164,227.005 70.109 C 224.897 69.688,225.368 66.744,227.601 66.381 C 227.912 66.331,228.167 66.234,228.167 66.167 C 228.167 66.099,228.523 65.944,228.958 65.823 C 229.394 65.702,229.842 65.512,229.954 65.401 C 230.066 65.290,230.422 65.036,230.746 64.836 C 231.069 64.636,231.333 64.409,231.333 64.331 C 231.333 64.253,231.495 64.138,231.693 64.075 C 232.033 63.967,234.667 61.435,234.667 61.217 C 234.667 61.161,234.854 60.869,235.083 60.569 C 235.313 60.268,235.500 59.950,235.500 59.862 C 235.500 59.774,235.605 59.662,235.734 59.612 C 235.863 59.563,236.019 59.292,236.081 59.011 C 236.143 58.730,236.243 58.499,236.305 58.499 C 236.444 58.497,236.833 57.676,236.833 57.383 C 236.833 57.264,236.905 57.167,236.992 57.167 C 237.080 57.167,237.201 56.904,237.261 56.583 C 237.321 56.262,237.434 56.000,237.511 56.000 C 237.588 56.000,237.702 55.719,237.763 55.375 C 237.825 55.031,238.020 54.426,238.197 54.031 C 238.374 53.635,238.562 52.941,238.616 52.489 C 238.669 52.037,238.771 51.667,238.842 51.667 C 238.913 51.667,239.024 51.104,239.089 50.417 C 239.153 49.729,239.272 49.167,239.353 49.167 C 239.434 49.167,239.500 48.898,239.500 48.571 C 239.500 47.040,241.492 46.414,242.605 47.595 C 243.015 48.030,243.167 48.343,243.167 48.755 C 243.167 49.686,243.530 51.833,243.687 51.833 C 243.767 51.833,243.833 52.000,243.833 52.203 C 243.833 52.775,244.227 54.333,244.371 54.333 C 244.442 54.333,244.500 54.483,244.500 54.667 C 244.500 54.852,244.611 55.000,244.751 55.000 C 245.057 55.000,245.056 9.311,244.750 9.238 C 244.658 9.216,244.171 9.310,243.668 9.446 M223.772 26.542 C 223.716 26.748,223.670 27.115,223.669 27.357 C 223.668 27.599,223.565 27.837,223.440 27.885 C 223.315 27.933,223.164 28.343,223.103 28.803 C 223.037 29.302,222.894 29.672,222.746 29.728 C 222.611 29.780,222.500 29.941,222.500 30.085 C 222.500 30.229,222.350 30.508,222.167 30.705 C 221.983 30.902,221.833 31.172,221.833 31.305 C 221.833 31.438,221.615 31.756,221.349 32.010 C 221.082 32.265,220.815 32.629,220.754 32.820 C 220.694 33.011,220.543 33.167,220.420 33.167 C 220.296 33.167,219.983 33.392,219.723 33.667 C 219.463 33.942,219.157 34.167,219.042 34.167 C 218.927 34.167,218.833 34.234,218.833 34.315 C 218.833 34.397,218.637 34.513,218.397 34.573 C 217.253 34.861,217.361 35.462,218.623 35.840 C 219.014 35.957,219.385 36.202,219.502 36.420 C 219.613 36.627,219.899 36.899,220.138 37.023 C 220.694 37.313,221.023 37.645,221.320 38.213 C 221.450 38.463,221.610 38.667,221.675 38.667 C 221.740 38.667,221.886 38.892,222.000 39.167 C 222.114 39.442,222.273 39.667,222.354 39.667 C 222.434 39.667,222.500 39.849,222.500 40.071 C 222.500 40.294,222.609 40.585,222.743 40.719 C 222.876 40.853,223.073 41.308,223.179 41.731 C 223.286 42.154,223.439 42.500,223.520 42.500 C 223.601 42.500,223.667 42.678,223.667 42.896 C 223.667 44.392,224.241 44.854,224.374 43.465 C 224.420 42.988,224.542 42.569,224.646 42.535 C 224.749 42.500,224.833 42.293,224.833 42.074 C 224.833 41.856,225.021 41.267,225.250 40.766 C 225.479 40.265,225.667 39.773,225.667 39.672 C 225.667 39.572,225.779 39.446,225.917 39.394 C 226.054 39.341,226.167 39.234,226.167 39.156 C 226.167 38.729,227.984 36.670,228.554 36.451 C 228.708 36.392,228.833 36.280,228.833 36.203 C 228.833 36.126,229.096 35.959,229.417 35.833 C 229.737 35.707,230.000 35.543,230.000 35.469 C 230.000 35.394,230.150 35.333,230.333 35.333 C 230.850 35.333,230.729 35.084,230.042 34.735 C 229.698 34.560,229.392 34.360,229.361 34.292 C 229.331 34.223,229.207 34.167,229.087 34.167 C 228.967 34.167,228.692 33.980,228.476 33.753 C 228.260 33.525,228.017 33.338,227.936 33.336 C 227.752 33.333,227.000 32.534,227.000 32.342 C 227.000 32.265,226.814 32.025,226.586 31.809 C 226.359 31.593,226.171 31.323,226.170 31.208 C 226.168 31.094,226.104 31.000,226.027 31.000 C 225.950 31.000,225.788 30.700,225.667 30.333 C 225.546 29.967,225.391 29.667,225.323 29.667 C 225.255 29.667,225.110 29.292,225.000 28.833 C 224.890 28.375,224.738 28.000,224.662 28.000 C 224.586 28.000,224.472 27.587,224.409 27.083 C 224.290 26.128,223.958 25.846,223.772 26.542 M240.914 49.708 C 240.847 50.373,240.726 50.960,240.643 51.012 C 240.561 51.064,240.446 51.614,240.388 52.234 C 240.330 52.853,240.183 53.460,240.062 53.581 C 239.940 53.703,239.747 54.296,239.632 54.901 C 239.518 55.505,239.369 56.000,239.303 56.000 C 239.236 56.000,239.133 56.262,239.072 56.583 C 239.012 56.904,238.908 57.167,238.841 57.167 C 238.775 57.167,238.621 57.467,238.500 57.833 C 238.379 58.200,238.220 58.500,238.146 58.500 C 238.073 58.500,237.932 58.800,237.833 59.167 C 237.735 59.533,237.582 59.833,237.494 59.833 C 237.405 59.833,237.333 59.905,237.333 59.993 C 237.333 60.140,236.698 61.183,236.358 61.594 C 236.278 61.691,236.115 61.952,235.997 62.172 C 235.879 62.393,235.531 62.796,235.224 63.068 C 234.918 63.339,234.667 63.660,234.667 63.781 C 234.667 63.901,234.598 64.000,234.514 64.000 C 234.430 64.000,234.040 64.300,233.646 64.667 C 233.253 65.033,232.852 65.333,232.756 65.333 C 232.659 65.333,232.487 65.483,232.372 65.667 C 232.258 65.850,232.052 66.000,231.915 66.000 C 231.779 66.000,231.667 66.075,231.667 66.167 C 231.667 66.258,231.558 66.333,231.425 66.333 C 231.292 66.333,231.123 66.435,231.050 66.560 C 230.977 66.684,230.619 66.883,230.255 67.002 C 229.890 67.120,229.496 67.314,229.378 67.432 C 229.259 67.550,228.826 67.697,228.415 67.759 C 228.003 67.821,227.667 67.938,227.667 68.019 C 227.667 68.100,227.517 68.167,227.333 68.167 C 226.531 68.167,227.040 68.638,228.030 68.812 C 228.596 68.912,229.103 69.061,229.155 69.143 C 229.207 69.225,229.488 69.343,229.778 69.406 C 230.068 69.469,230.481 69.664,230.695 69.840 C 231.341 70.372,231.400 70.412,231.875 70.623 C 232.127 70.735,232.333 70.903,232.333 70.996 C 232.333 71.090,232.432 71.167,232.553 71.167 C 232.674 71.167,232.936 71.354,233.136 71.583 C 233.335 71.813,233.573 72.000,233.666 72.000 C 233.878 72.000,234.998 73.177,235.007 73.410 C 235.011 73.505,235.236 73.767,235.507 73.992 C 235.778 74.217,236.000 74.496,236.000 74.611 C 236.000 74.727,236.150 74.902,236.333 75.000 C 236.517 75.098,236.667 75.254,236.667 75.346 C 236.667 75.515,237.239 76.383,237.625 76.799 C 237.740 76.923,237.833 77.208,237.833 77.434 C 237.833 77.659,237.946 77.887,238.083 77.940 C 238.221 77.992,238.333 78.166,238.333 78.326 C 238.333 78.486,238.521 78.970,238.750 79.401 C 238.979 79.832,239.167 80.293,239.167 80.425 C 239.167 80.558,239.230 80.667,239.307 80.667 C 239.384 80.667,239.540 81.187,239.653 81.824 C 239.767 82.460,239.925 83.004,240.005 83.032 C 240.084 83.060,240.232 83.608,240.333 84.250 C 240.435 84.892,240.589 85.442,240.676 85.472 C 240.762 85.503,240.834 85.765,240.835 86.056 C 240.841 88.439,241.387 89.114,241.566 86.958 C 241.629 86.202,241.752 85.558,241.840 85.528 C 241.928 85.497,242.000 85.259,242.000 84.999 C 242.000 84.370,242.360 82.833,242.507 82.833 C 242.571 82.833,242.673 82.458,242.734 82.000 C 242.795 81.542,242.905 81.167,242.979 81.167 C 243.053 81.167,243.206 80.754,243.319 80.250 C 243.432 79.746,243.585 79.333,243.660 79.333 C 243.735 79.333,243.846 79.067,243.907 78.741 C 243.968 78.416,244.122 78.109,244.249 78.061 C 244.376 78.012,244.528 77.753,244.586 77.486 C 244.645 77.219,244.753 77.000,244.826 77.000 C 244.900 77.000,245.053 76.775,245.167 76.500 C 245.281 76.225,245.440 76.000,245.520 76.000 C 245.601 76.000,245.667 75.887,245.667 75.750 C 245.667 75.612,245.817 75.350,246.000 75.167 C 246.183 74.983,246.333 74.761,246.333 74.673 C 246.333 74.584,246.478 74.434,246.655 74.339 C 246.833 74.245,247.028 74.007,247.090 73.812 C 247.152 73.616,247.467 73.222,247.790 72.937 C 248.112 72.651,248.496 72.285,248.642 72.125 C 248.788 71.965,248.985 71.833,249.080 71.833 C 249.175 71.833,249.347 71.683,249.461 71.500 C 249.576 71.317,249.781 71.167,249.918 71.167 C 250.055 71.167,250.167 71.104,250.167 71.028 C 250.167 70.952,250.373 70.783,250.625 70.653 C 251.080 70.418,251.319 70.254,251.720 69.899 C 251.835 69.797,252.226 69.610,252.589 69.483 C 252.953 69.356,253.295 69.191,253.349 69.116 C 253.404 69.041,253.910 68.893,254.474 68.785 C 255.447 68.600,255.933 68.167,255.167 68.167 C 254.983 68.167,254.833 68.092,254.833 68.000 C 254.833 67.908,254.657 67.833,254.442 67.833 C 253.946 67.833,253.000 67.509,253.000 67.339 C 253.000 67.268,252.644 67.112,252.208 66.993 C 251.773 66.873,251.357 66.676,251.283 66.554 C 251.210 66.433,251.041 66.333,250.908 66.333 C 250.775 66.333,250.667 66.257,250.667 66.163 C 250.667 66.069,250.461 65.901,250.209 65.788 C 249.958 65.675,249.527 65.340,249.252 65.042 C 248.977 64.744,248.696 64.500,248.626 64.500 C 248.477 64.500,247.167 63.212,247.167 63.066 C 247.167 62.961,246.514 62.110,246.082 61.653 C 245.945 61.507,245.833 61.299,245.833 61.189 C 245.833 61.079,245.734 60.951,245.612 60.904 C 245.490 60.858,245.288 60.560,245.164 60.243 C 245.040 59.926,244.883 59.667,244.815 59.667 C 244.748 59.667,244.644 59.442,244.583 59.167 C 244.523 58.892,244.404 58.667,244.319 58.667 C 244.235 58.667,244.075 58.329,243.965 57.917 C 243.854 57.504,243.712 57.167,243.649 57.167 C 243.585 57.167,243.443 56.792,243.333 56.333 C 243.223 55.875,243.072 55.500,242.998 55.500 C 242.924 55.500,242.809 55.181,242.744 54.792 C 242.679 54.402,242.559 54.041,242.478 53.989 C 242.396 53.937,242.240 53.281,242.131 52.531 C 242.022 51.780,241.878 51.167,241.811 51.167 C 241.744 51.167,241.637 50.567,241.573 49.833 C 241.420 48.079,241.082 48.015,240.914 49.708 M145.500 50.750 C 145.500 50.979,145.437 51.167,145.360 51.167 C 145.283 51.167,145.127 51.579,145.015 52.083 C 144.902 52.587,144.743 53.000,144.662 53.000 C 144.581 53.000,144.467 53.257,144.408 53.572 C 144.349 53.886,144.195 54.184,144.067 54.233 C 143.938 54.283,143.831 54.419,143.829 54.536 C 143.826 54.654,143.526 55.075,143.162 55.473 C 142.798 55.870,142.500 56.250,142.500 56.317 C 142.500 56.383,142.241 56.540,141.924 56.664 C 141.607 56.788,141.309 56.990,141.262 57.112 C 141.215 57.234,141.062 57.333,140.922 57.333 C 140.782 57.333,140.667 57.408,140.667 57.500 C 140.667 57.592,140.554 57.667,140.417 57.667 C 140.279 57.667,140.167 57.736,140.167 57.821 C 140.167 58.056,140.660 58.500,140.922 58.500 C 141.049 58.500,141.459 58.800,141.833 59.167 C 142.207 59.533,142.618 59.833,142.746 59.833 C 142.873 59.833,143.025 59.983,143.083 60.166 C 143.141 60.348,143.315 60.624,143.469 60.779 C 143.624 60.933,143.756 61.102,143.764 61.155 C 143.772 61.207,143.844 61.400,143.923 61.583 C 144.061 61.904,144.196 62.096,144.606 62.558 C 144.710 62.676,144.891 63.198,145.008 63.719 C 145.124 64.240,145.283 64.667,145.360 64.667 C 145.437 64.667,145.500 64.892,145.500 65.167 C 145.500 65.442,145.575 65.667,145.667 65.667 C 145.758 65.667,145.833 65.517,145.833 65.333 C 145.833 65.150,145.908 65.000,146.000 65.000 C 146.092 65.000,146.167 64.818,146.167 64.595 C 146.167 64.373,146.279 64.078,146.417 63.940 C 146.554 63.803,146.667 63.546,146.667 63.370 C 146.667 62.904,147.007 62.000,147.183 62.000 C 147.266 62.000,147.333 61.895,147.333 61.767 C 147.333 61.640,147.520 61.358,147.747 61.142 C 147.975 60.927,148.162 60.694,148.164 60.625 C 148.168 60.435,149.404 59.239,149.721 59.117 C 149.874 59.059,150.000 58.947,150.000 58.870 C 150.000 58.792,150.262 58.626,150.583 58.500 C 151.127 58.287,151.432 57.667,150.993 57.667 C 150.805 57.667,150.469 57.418,150.035 56.958 C 149.883 56.798,149.691 56.667,149.608 56.667 C 149.399 56.667,148.000 55.251,148.000 55.040 C 148.000 54.946,147.895 54.829,147.766 54.779 C 147.637 54.730,147.482 54.465,147.422 54.192 C 147.362 53.918,147.209 53.655,147.082 53.606 C 146.956 53.557,146.802 53.251,146.741 52.925 C 146.680 52.600,146.568 52.333,146.492 52.333 C 146.416 52.333,146.301 51.980,146.236 51.547 C 146.078 50.495,145.500 49.869,145.500 50.750 M376.596 54.958 C 376.375 56.893,376.292 57.333,376.148 57.333 C 376.066 57.333,376.000 57.557,376.000 57.831 C 376.000 58.463,375.638 59.833,375.471 59.833 C 375.402 59.833,375.295 60.208,375.234 60.667 C 375.173 61.125,375.066 61.500,374.995 61.500 C 374.924 61.500,374.777 61.875,374.667 62.333 C 374.557 62.792,374.401 63.167,374.320 63.167 C 374.239 63.167,374.127 63.351,374.070 63.576 C 374.014 63.802,373.862 64.074,373.734 64.180 C 373.605 64.287,373.500 64.510,373.500 64.675 C 373.500 64.841,373.406 65.075,373.292 65.196 C 373.177 65.318,372.971 65.642,372.834 65.917 C 372.696 66.192,372.539 66.454,372.484 66.500 C 372.428 66.546,372.287 66.766,372.169 66.990 C 371.912 67.477,371.763 67.663,370.990 68.467 C 370.664 68.806,370.348 69.215,370.287 69.375 C 370.227 69.535,370.094 69.667,369.991 69.667 C 369.889 69.667,369.558 69.910,369.255 70.208 C 368.478 70.974,367.785 71.495,367.542 71.498 C 367.427 71.499,367.333 71.575,367.333 71.667 C 367.333 71.758,367.225 71.833,367.092 71.833 C 366.959 71.833,366.790 71.935,366.717 72.060 C 366.643 72.184,366.302 72.378,365.958 72.489 C 365.615 72.601,365.333 72.756,365.333 72.834 C 365.333 72.912,364.921 73.068,364.417 73.181 C 363.912 73.294,363.500 73.449,363.500 73.527 C 363.500 73.604,363.350 73.667,363.167 73.667 C 362.396 73.667,362.869 74.130,363.833 74.320 C 364.383 74.428,364.833 74.574,364.833 74.644 C 364.833 74.713,365.202 74.865,365.653 74.981 C 366.105 75.096,366.515 75.298,366.565 75.429 C 366.615 75.560,366.737 75.667,366.835 75.667 C 367.014 75.667,367.238 75.824,367.845 76.375 C 368.022 76.535,368.234 76.667,368.316 76.667 C 368.398 76.667,368.642 76.853,368.858 77.080 C 369.073 77.308,369.306 77.496,369.375 77.497 C 369.547 77.501,370.833 78.801,370.833 78.971 C 370.833 79.047,371.021 79.285,371.250 79.500 C 371.479 79.715,371.667 79.973,371.667 80.072 C 371.667 80.172,371.817 80.347,372.000 80.461 C 372.183 80.576,372.333 80.781,372.333 80.918 C 372.333 81.055,372.403 81.167,372.489 81.167 C 372.574 81.167,372.689 81.308,372.744 81.480 C 372.798 81.653,372.991 81.964,373.172 82.172 C 373.352 82.381,373.500 82.719,373.500 82.924 C 373.500 83.130,373.603 83.337,373.729 83.386 C 373.855 83.434,374.008 83.742,374.070 84.070 C 374.131 84.398,374.245 84.667,374.322 84.667 C 374.400 84.667,374.563 85.004,374.685 85.417 C 374.806 85.829,374.958 86.167,375.021 86.167 C 375.084 86.167,375.187 86.542,375.250 87.000 C 375.313 87.458,375.420 87.833,375.487 87.833 C 375.631 87.833,376.000 89.343,376.000 89.929 C 376.000 90.152,376.068 90.333,376.152 90.333 C 376.315 90.333,376.427 90.927,376.598 92.708 C 376.732 94.114,377.167 94.336,377.167 93.000 C 377.167 92.542,377.230 92.167,377.306 92.167 C 377.383 92.167,377.531 91.479,377.635 90.638 C 377.738 89.797,377.895 89.065,377.983 89.010 C 378.071 88.956,378.231 88.406,378.339 87.789 C 378.446 87.172,378.595 86.667,378.669 86.667 C 378.743 86.667,378.855 86.367,378.917 86.000 C 378.979 85.633,379.090 85.333,379.165 85.333 C 379.239 85.333,379.389 84.964,379.497 84.513 C 379.605 84.061,379.791 83.655,379.909 83.609 C 380.027 83.564,380.174 83.327,380.235 83.083 C 380.297 82.838,380.420 82.551,380.510 82.444 C 381.190 81.634,381.333 81.422,381.333 81.223 C 381.333 81.098,381.483 80.868,381.667 80.711 C 381.850 80.554,382.000 80.348,382.000 80.253 C 382.000 80.158,382.225 79.894,382.500 79.667 C 382.775 79.440,383.001 79.178,383.003 79.085 C 383.005 78.908,384.561 77.333,384.733 77.333 C 384.788 77.333,384.965 77.215,385.125 77.071 C 385.862 76.409,386.434 76.000,386.625 76.000 C 386.740 76.000,386.833 75.925,386.833 75.833 C 386.833 75.742,386.948 75.667,387.089 75.667 C 387.229 75.667,387.384 75.563,387.433 75.435 C 387.481 75.308,387.873 75.106,388.302 74.987 C 388.732 74.867,389.175 74.678,389.287 74.567 C 389.400 74.457,389.868 74.314,390.329 74.251 C 391.159 74.136,391.565 73.667,390.833 73.667 C 390.650 73.667,390.500 73.592,390.500 73.500 C 390.500 73.408,390.337 73.333,390.137 73.333 C 389.694 73.333,388.667 72.976,388.667 72.822 C 388.667 72.760,388.310 72.612,387.875 72.493 C 387.440 72.373,387.023 72.176,386.950 72.054 C 386.877 71.933,386.745 71.833,386.658 71.833 C 386.571 71.833,386.369 71.718,386.208 71.576 C 384.808 70.343,384.400 70.008,384.291 70.004 C 384.129 69.999,383.000 68.803,383.000 68.638 C 383.000 68.568,382.776 68.265,382.503 67.964 C 381.731 67.114,381.601 66.942,381.334 66.412 C 381.196 66.139,380.990 65.857,380.875 65.783 C 380.761 65.710,380.667 65.541,380.667 65.408 C 380.667 65.275,380.604 65.167,380.526 65.167 C 380.449 65.167,380.296 64.867,380.186 64.500 C 380.077 64.133,379.922 63.833,379.843 63.833 C 379.764 63.833,379.610 63.458,379.500 63.000 C 379.390 62.542,379.241 62.167,379.169 62.167 C 379.096 62.167,378.988 61.904,378.928 61.583 C 378.867 61.262,378.755 61.000,378.678 61.000 C 378.601 61.000,378.446 60.512,378.333 59.915 C 378.220 59.318,378.068 58.792,377.995 58.747 C 377.922 58.702,377.770 57.988,377.657 57.161 C 377.544 56.333,377.387 55.617,377.309 55.568 C 377.231 55.520,377.167 55.147,377.167 54.740 C 377.167 53.588,376.733 53.754,376.596 54.958 M103.092 54.485 C 103.041 54.569,102.699 54.688,102.333 54.750 C 101.968 54.812,101.631 54.923,101.585 54.998 C 101.539 55.072,101.126 55.223,100.667 55.333 C 100.209 55.443,99.833 55.591,99.833 55.662 C 99.833 55.734,99.602 55.838,99.320 55.894 C 99.038 55.951,98.569 56.104,98.278 56.234 C 97.988 56.364,97.263 56.681,96.667 56.937 C 96.071 57.194,95.546 57.452,95.500 57.511 C 95.454 57.570,95.135 57.710,94.792 57.822 C 94.448 57.934,94.167 58.087,94.167 58.162 C 94.167 58.236,93.966 58.347,93.721 58.409 C 93.477 58.470,93.092 58.666,92.866 58.844 C 92.640 59.021,92.359 59.167,92.241 59.167 C 92.124 59.167,92.003 59.226,91.972 59.298 C 91.942 59.370,91.543 59.646,91.086 59.911 C 90.228 60.409,90.034 60.546,89.488 61.042 C 89.311 61.202,89.110 61.333,89.042 61.334 C 88.973 61.334,88.692 61.518,88.417 61.743 C 88.142 61.968,87.654 62.361,87.333 62.615 C 86.158 63.545,82.080 67.740,81.207 68.917 C 81.139 69.009,80.877 69.360,80.625 69.697 C 80.373 70.035,80.167 70.383,80.167 70.471 C 80.167 70.559,80.054 70.674,79.917 70.727 C 79.779 70.780,79.667 70.926,79.667 71.053 C 79.667 71.179,79.517 71.455,79.333 71.667 C 79.150 71.878,79.000 72.152,79.000 72.276 C 79.000 72.399,78.930 72.500,78.844 72.500 C 78.758 72.500,78.593 72.762,78.477 73.083 C 78.361 73.404,78.218 73.667,78.160 73.667 C 78.101 73.667,77.954 73.967,77.833 74.333 C 77.712 74.700,77.550 75.000,77.473 75.000 C 77.396 75.000,77.333 75.080,77.333 75.177 C 77.333 75.274,77.138 75.781,76.900 76.302 C 76.159 77.925,76.039 78.233,75.913 78.828 C 75.846 79.146,75.729 79.521,75.654 79.661 C 75.398 80.140,74.844 82.247,74.733 83.167 C 74.672 83.671,74.560 84.162,74.485 84.259 C 73.994 84.885,73.996 95.099,74.487 95.750 C 74.557 95.842,74.709 96.479,74.826 97.167 C 74.943 97.854,75.098 98.492,75.171 98.583 C 75.244 98.675,75.356 99.031,75.420 99.375 C 75.485 99.719,75.595 100.000,75.667 100.000 C 75.738 100.000,75.845 100.260,75.905 100.578 C 75.964 100.896,76.110 101.253,76.228 101.371 C 76.347 101.490,76.499 101.806,76.566 102.075 C 76.634 102.343,76.834 102.767,77.011 103.016 C 77.188 103.264,77.333 103.550,77.333 103.651 C 77.333 103.751,77.393 103.833,77.467 103.833 C 77.540 103.833,77.695 104.096,77.811 104.417 C 77.927 104.737,78.092 105.000,78.177 105.000 C 78.263 105.000,78.333 105.087,78.333 105.193 C 78.333 105.299,78.521 105.631,78.750 105.931 C 78.979 106.232,79.167 106.513,79.167 106.555 C 79.167 106.975,83.038 110.942,84.563 112.083 C 84.808 112.267,85.100 112.493,85.213 112.585 C 85.415 112.753,86.112 113.222,86.750 113.621 C 86.933 113.735,87.365 113.954,87.708 114.106 C 88.052 114.259,88.333 114.448,88.333 114.525 C 88.333 114.603,88.420 114.667,88.525 114.667 C 88.694 114.667,89.723 115.119,91.000 115.754 C 91.229 115.868,91.679 116.016,92.000 116.083 C 92.321 116.150,92.658 116.263,92.750 116.333 C 92.842 116.404,93.179 116.515,93.500 116.579 C 93.821 116.644,94.393 116.799,94.772 116.923 C 95.150 117.047,96.034 117.201,96.735 117.265 C 97.436 117.328,98.049 117.445,98.098 117.523 C 98.225 117.729,105.122 117.707,105.250 117.500 C 105.307 117.408,105.630 117.332,105.968 117.330 C 106.307 117.328,107.071 117.213,107.667 117.074 C 108.263 116.934,109.106 116.739,109.542 116.638 C 109.977 116.538,110.333 116.400,110.333 116.332 C 110.333 116.264,110.558 116.163,110.833 116.108 C 111.322 116.011,112.669 115.470,113.167 115.172 C 113.304 115.090,113.892 114.774,114.472 114.470 C 115.053 114.166,115.606 113.824,115.701 113.709 C 115.796 113.594,115.961 113.500,116.067 113.500 C 116.172 113.500,116.485 113.294,116.762 113.042 C 117.038 112.790,117.467 112.491,117.715 112.379 C 117.964 112.266,118.167 112.097,118.167 112.004 C 118.167 111.910,118.252 111.833,118.357 111.833 C 118.562 111.833,118.918 111.521,121.196 109.345 C 122.005 108.572,122.667 107.881,122.667 107.809 C 122.667 107.737,122.910 107.422,123.208 107.110 C 123.978 106.303,124.495 105.614,124.498 105.393 C 124.499 105.288,124.612 105.159,124.750 105.106 C 124.888 105.054,125.000 104.904,125.000 104.773 C 125.000 104.642,125.112 104.492,125.250 104.440 C 125.388 104.387,125.500 104.270,125.500 104.179 C 125.500 104.028,126.131 102.988,126.477 102.571 C 126.559 102.472,126.683 102.209,126.752 101.987 C 126.821 101.765,126.931 101.546,126.995 101.500 C 127.147 101.391,128.167 99.215,128.167 99.000 C 128.167 98.908,128.238 98.833,128.326 98.833 C 128.413 98.833,128.534 98.571,128.594 98.250 C 128.655 97.929,128.763 97.667,128.835 97.667 C 128.908 97.667,129.060 97.273,129.174 96.792 C 129.288 96.310,129.428 95.879,129.485 95.833 C 129.641 95.709,130.329 93.247,130.444 92.403 C 130.500 91.998,130.598 91.667,130.663 91.667 C 130.802 91.667,131.167 88.844,131.167 87.770 C 131.167 87.357,131.242 86.973,131.333 86.917 C 131.433 86.855,131.500 85.779,131.500 84.250 C 131.500 82.721,131.433 81.645,131.333 81.583 C 131.242 81.527,131.167 81.153,131.167 80.752 C 131.167 79.794,130.861 77.506,130.677 77.083 C 130.597 76.900,130.419 76.300,130.282 75.750 C 129.864 74.076,129.617 73.254,129.506 73.167 C 129.448 73.121,129.310 72.774,129.200 72.397 C 129.090 72.019,128.737 71.197,128.416 70.571 C 128.096 69.945,127.833 69.335,127.833 69.216 C 127.833 69.097,127.763 69.000,127.678 69.000 C 127.592 69.000,127.470 68.835,127.406 68.634 C 127.343 68.433,127.038 67.909,126.729 67.469 C 126.420 67.030,126.167 66.624,126.167 66.567 C 126.167 66.511,125.998 66.256,125.792 66.001 C 125.585 65.747,125.192 65.250,124.917 64.898 C 123.874 63.563,120.201 60.038,119.432 59.633 C 119.240 59.533,119.046 59.398,119.000 59.334 C 118.922 59.225,118.484 58.973,117.500 58.470 C 117.271 58.353,117.046 58.214,117.000 58.161 C 116.954 58.108,116.654 57.960,116.333 57.833 C 116.013 57.706,115.712 57.559,115.667 57.507 C 115.529 57.350,113.346 56.500,113.080 56.500 C 112.944 56.500,112.833 56.437,112.833 56.360 C 112.833 56.283,112.424 56.128,111.925 56.016 C 111.022 55.814,110.670 55.880,110.094 56.359 C 109.286 57.030,109.101 57.167,108.999 57.167 C 108.935 57.167,108.665 57.356,108.399 57.588 C 107.634 58.257,107.525 58.333,107.340 58.333 C 107.245 58.333,107.167 58.274,107.167 58.201 C 107.167 58.128,106.885 57.761,106.542 57.386 C 106.198 57.011,105.784 56.520,105.621 56.294 C 105.459 56.069,105.065 55.592,104.746 55.234 C 104.428 54.876,104.167 54.527,104.167 54.458 C 104.167 54.279,103.205 54.303,103.092 54.485 M161.333 54.500 C 161.333 54.592,161.240 54.665,161.125 54.664 C 160.849 54.660,158.107 55.553,158.000 55.682 C 157.954 55.737,157.692 55.836,157.417 55.903 C 157.142 55.969,156.617 56.162,156.250 56.332 C 154.465 57.157,154.046 57.333,153.864 57.333 C 153.755 57.333,153.667 57.400,153.667 57.482 C 153.667 57.564,153.479 57.678,153.250 57.735 C 152.946 57.812,152.833 57.951,152.833 58.253 C 152.833 58.481,152.775 58.667,152.703 58.667 C 152.632 58.667,152.491 58.884,152.391 59.149 C 152.264 59.485,152.056 59.665,151.702 59.742 C 151.423 59.804,151.153 59.962,151.102 60.094 C 151.052 60.225,150.924 60.333,150.819 60.333 C 150.576 60.333,149.333 61.567,149.333 61.808 C 149.333 61.907,149.189 62.065,149.014 62.159 C 148.838 62.254,148.644 62.556,148.584 62.832 C 148.523 63.108,148.414 63.333,148.341 63.333 C 148.269 63.333,148.161 63.633,148.103 64.000 C 148.044 64.367,147.935 64.667,147.860 64.667 C 147.785 64.667,147.637 65.044,147.530 65.505 C 147.003 67.790,144.309 67.791,143.819 65.507 C 143.720 65.045,143.566 64.667,143.476 64.667 C 143.164 64.667,139.854 68.164,139.467 68.902 C 139.367 69.093,139.183 69.310,139.059 69.383 C 138.935 69.457,138.833 69.625,138.833 69.758 C 138.833 69.891,138.762 70.000,138.676 70.000 C 138.526 70.000,138.414 70.173,137.728 71.458 C 137.568 71.756,137.377 72.000,137.302 72.000 C 137.228 72.000,137.167 72.082,137.167 72.183 C 137.167 72.283,137.022 72.569,136.844 72.818 C 136.667 73.067,136.472 73.472,136.410 73.718 C 136.348 73.965,136.233 74.167,136.155 74.167 C 136.077 74.167,135.923 74.467,135.814 74.833 C 135.704 75.200,135.551 75.500,135.474 75.500 C 135.396 75.500,135.331 75.594,135.328 75.708 C 135.325 75.823,135.138 76.292,134.913 76.750 C 134.688 77.208,134.502 77.669,134.502 77.773 C 134.501 77.877,134.390 78.175,134.255 78.435 C 134.120 78.695,133.961 79.229,133.902 79.621 C 133.844 80.013,133.734 80.333,133.658 80.333 C 133.582 80.333,133.469 80.690,133.406 81.125 C 133.343 81.560,133.227 81.998,133.149 82.097 C 133.070 82.196,132.921 83.021,132.817 83.930 C 132.713 84.839,132.550 85.751,132.453 85.957 C 132.212 86.473,132.205 93.684,132.445 94.195 C 132.546 94.409,132.716 95.256,132.824 96.078 C 132.932 96.901,133.087 97.654,133.169 97.753 C 133.252 97.852,133.369 98.248,133.431 98.633 C 133.492 99.018,133.599 99.333,133.667 99.333 C 133.736 99.333,133.837 99.560,133.892 99.836 C 134.032 100.535,134.916 102.464,135.838 104.083 C 136.100 104.542,136.384 105.067,136.471 105.250 C 136.558 105.433,136.826 105.793,137.065 106.050 C 137.304 106.307,137.501 106.570,137.502 106.634 C 137.505 106.795,138.123 107.573,138.917 108.415 C 139.283 108.804,139.778 109.338,140.016 109.603 C 140.425 110.058,141.650 111.169,142.750 112.084 C 143.025 112.312,143.344 112.500,143.458 112.500 C 143.573 112.500,143.667 112.577,143.667 112.672 C 143.667 112.766,143.798 112.893,143.958 112.953 C 144.119 113.013,144.592 113.301,145.009 113.593 C 145.427 113.885,145.952 114.181,146.176 114.251 C 146.400 114.321,146.621 114.431,146.667 114.495 C 146.801 114.683,148.622 115.500,148.906 115.500 C 149.050 115.500,149.167 115.570,149.167 115.655 C 149.167 115.740,149.579 115.902,150.083 116.015 C 150.587 116.127,151.000 116.274,151.000 116.341 C 151.000 116.408,151.281 116.514,151.625 116.576 C 151.969 116.639,152.560 116.793,152.938 116.920 C 153.317 117.046,154.200 117.201,154.901 117.265 C 155.602 117.328,156.216 117.445,156.264 117.523 C 156.392 117.729,163.289 117.707,163.417 117.500 C 163.473 117.408,163.796 117.332,164.135 117.330 C 164.473 117.328,165.237 117.213,165.833 117.074 C 166.429 116.934,167.273 116.739,167.708 116.638 C 168.144 116.538,168.500 116.400,168.500 116.332 C 168.500 116.264,168.725 116.163,169.000 116.108 C 169.761 115.956,172.376 114.767,172.788 114.386 C 172.906 114.277,173.170 114.136,173.376 114.072 C 173.582 114.008,173.787 113.908,173.833 113.851 C 173.879 113.794,174.250 113.530,174.658 113.266 C 175.447 112.754,175.669 112.587,176.179 112.125 C 176.355 111.965,176.539 111.833,176.586 111.833 C 176.922 111.833,180.007 108.926,181.161 107.521 C 182.307 106.127,183.659 104.246,183.663 104.042 C 183.665 103.927,183.741 103.833,183.831 103.833 C 183.922 103.833,184.108 103.590,184.244 103.292 C 184.514 102.704,184.857 102.132,185.018 102.000 C 185.074 101.954,185.220 101.635,185.343 101.292 C 185.466 100.948,185.615 100.667,185.674 100.667 C 185.733 100.667,185.870 100.367,185.980 100.000 C 186.090 99.633,186.252 99.333,186.340 99.333 C 186.428 99.333,186.500 99.254,186.500 99.158 C 186.500 99.061,186.652 98.648,186.838 98.241 C 187.023 97.833,187.220 97.275,187.275 97.000 C 187.330 96.725,187.429 96.500,187.494 96.500 C 187.560 96.500,187.709 96.069,187.825 95.542 C 187.942 95.015,188.095 94.508,188.166 94.417 C 188.237 94.325,188.350 93.912,188.417 93.500 C 188.483 93.087,188.599 92.674,188.674 92.580 C 188.749 92.487,188.897 91.737,189.003 90.914 C 189.109 90.090,189.283 89.237,189.390 89.016 C 189.659 88.459,189.659 80.206,189.389 79.650 C 189.282 79.430,189.103 78.556,188.990 77.708 C 188.877 76.860,188.728 76.167,188.658 76.167 C 188.588 76.167,188.480 75.792,188.417 75.333 C 188.354 74.875,188.244 74.500,188.174 74.500 C 188.103 74.500,187.950 74.050,187.833 73.500 C 187.717 72.950,187.562 72.500,187.490 72.500 C 187.419 72.500,187.307 72.256,187.242 71.958 C 187.131 71.445,186.533 70.181,186.316 70.000 C 186.260 69.954,186.123 69.635,186.011 69.292 C 185.899 68.948,185.752 68.667,185.685 68.667 C 185.617 68.667,185.459 68.404,185.333 68.083 C 185.207 67.762,185.043 67.500,184.969 67.500 C 184.894 67.500,184.833 67.385,184.833 67.245 C 184.833 67.104,184.721 66.946,184.583 66.894 C 184.446 66.841,184.333 66.707,184.333 66.597 C 184.333 66.487,184.183 66.235,184.000 66.038 C 183.817 65.842,183.667 65.603,183.667 65.508 C 183.667 65.414,183.517 65.242,183.333 65.128 C 183.150 65.013,183.000 64.855,183.000 64.775 C 183.000 64.517,180.190 61.646,179.000 60.687 C 178.588 60.355,178.213 60.046,178.167 60.000 C 177.918 59.752,176.949 59.139,176.586 59.001 C 176.355 58.913,176.167 58.771,176.167 58.684 C 176.167 58.597,175.942 58.477,175.667 58.417 C 175.392 58.356,175.167 58.241,175.167 58.160 C 175.167 58.079,174.867 57.923,174.500 57.814 C 174.133 57.704,173.833 57.551,173.833 57.474 C 173.833 57.396,173.749 57.333,173.646 57.333 C 173.543 57.333,172.999 57.136,172.438 56.895 C 170.549 56.085,170.418 56.036,169.864 55.919 C 169.251 55.789,168.410 56.059,168.267 56.432 C 168.218 56.561,168.100 56.667,168.005 56.667 C 167.911 56.667,167.689 56.798,167.512 56.958 C 166.919 57.496,166.682 57.667,166.256 57.861 C 166.024 57.967,165.833 58.116,165.833 58.193 C 165.833 58.270,165.721 58.333,165.583 58.333 C 165.446 58.333,165.333 58.261,165.333 58.174 C 165.333 58.086,165.033 57.699,164.667 57.313 C 164.300 56.928,164.000 56.556,164.000 56.487 C 164.000 56.418,163.737 56.092,163.417 55.761 C 163.096 55.431,162.833 55.104,162.833 55.034 C 162.833 54.964,162.682 54.778,162.498 54.620 C 162.136 54.311,161.333 54.228,161.333 54.500 M281.667 54.500 C 281.667 54.592,281.554 54.667,281.417 54.667 C 281.157 54.667,279.448 55.220,278.583 55.584 C 278.308 55.700,277.821 55.886,277.500 55.998 C 276.922 56.201,276.626 56.326,275.156 56.990 C 274.737 57.179,274.306 57.333,274.197 57.333 C 274.089 57.333,274.000 57.403,274.000 57.487 C 274.000 57.572,273.719 57.733,273.375 57.845 C 273.031 57.957,272.712 58.094,272.667 58.149 C 272.621 58.205,272.171 58.469,271.667 58.737 C 271.162 59.005,270.712 59.267,270.667 59.320 C 270.621 59.374,270.358 59.529,270.083 59.667 C 269.808 59.804,269.546 59.954,269.500 60.000 C 269.454 60.046,269.079 60.309,268.667 60.584 C 267.774 61.178,267.578 61.324,267.155 61.708 C 266.978 61.869,266.795 62.000,266.748 62.000 C 266.324 62.000,261.556 66.611,260.388 68.150 C 259.999 68.663,259.577 69.196,259.450 69.333 C 259.324 69.471,259.174 69.715,259.116 69.875 C 259.058 70.035,258.933 70.167,258.839 70.167 C 258.744 70.167,258.667 70.238,258.667 70.326 C 258.667 70.479,258.019 71.535,257.669 71.951 C 257.576 72.062,257.500 72.200,257.500 72.259 C 257.500 72.317,257.355 72.569,257.178 72.818 C 257.001 73.067,256.805 73.472,256.743 73.718 C 256.681 73.965,256.567 74.167,256.489 74.167 C 256.411 74.167,256.257 74.467,256.147 74.833 C 256.037 75.200,255.884 75.500,255.807 75.500 C 255.730 75.500,255.667 75.580,255.667 75.677 C 255.667 75.775,255.479 76.265,255.250 76.766 C 255.021 77.267,254.833 77.741,254.833 77.819 C 254.833 77.898,254.723 78.175,254.588 78.435 C 254.453 78.695,254.294 79.229,254.236 79.621 C 254.177 80.013,254.069 80.333,253.996 80.333 C 253.923 80.333,253.812 80.652,253.750 81.042 C 253.688 81.431,253.535 82.060,253.411 82.438 C 253.286 82.817,253.133 83.717,253.070 84.438 C 253.007 85.160,252.879 85.847,252.785 85.966 C 252.547 86.265,252.540 93.893,252.777 94.192 C 252.875 94.316,253.004 94.918,253.065 95.531 C 253.125 96.144,253.322 97.110,253.504 97.678 C 253.685 98.246,253.833 98.850,253.833 99.022 C 253.833 99.193,253.899 99.333,253.979 99.333 C 254.059 99.333,254.170 99.557,254.225 99.831 C 254.322 100.319,255.343 102.672,255.672 103.167 C 255.763 103.304,255.990 103.717,256.176 104.083 C 256.783 105.280,256.983 105.600,257.411 106.062 C 257.643 106.312,257.834 106.570,257.836 106.634 C 257.846 107.180,263.241 112.492,263.792 112.498 C 263.906 112.499,264.000 112.577,264.000 112.672 C 264.000 112.766,264.131 112.893,264.292 112.953 C 264.452 113.013,264.925 113.301,265.343 113.593 C 265.760 113.885,266.285 114.181,266.509 114.251 C 266.733 114.321,266.954 114.431,267.000 114.495 C 267.135 114.683,268.955 115.500,269.240 115.500 C 269.383 115.500,269.500 115.570,269.500 115.655 C 269.500 115.740,269.912 115.902,270.417 116.015 C 270.921 116.127,271.333 116.274,271.333 116.341 C 271.333 116.408,271.615 116.514,271.958 116.576 C 272.302 116.639,272.893 116.793,273.272 116.920 C 273.650 117.046,274.534 117.201,275.235 117.265 C 275.936 117.328,276.549 117.445,276.598 117.523 C 276.725 117.729,283.622 117.707,283.750 117.500 C 283.807 117.408,284.167 117.332,284.552 117.331 C 284.936 117.329,285.700 117.213,286.250 117.072 C 286.800 116.931,287.587 116.737,288.000 116.641 C 288.412 116.544,288.821 116.398,288.908 116.316 C 288.995 116.234,289.162 116.167,289.278 116.167 C 289.477 116.167,290.437 115.763,292.167 114.952 C 292.579 114.759,293.016 114.503,293.137 114.384 C 293.258 114.265,293.539 114.121,293.762 114.066 C 293.984 114.010,294.168 113.916,294.170 113.857 C 294.172 113.798,294.547 113.528,295.003 113.257 C 295.460 112.986,295.833 112.705,295.833 112.632 C 295.833 112.559,295.945 112.500,296.082 112.500 C 296.219 112.500,296.424 112.350,296.539 112.167 C 296.653 111.983,296.805 111.833,296.876 111.833 C 297.259 111.833,300.305 108.981,301.500 107.503 C 301.821 107.107,302.271 106.550,302.500 106.266 C 302.729 105.982,302.973 105.725,303.042 105.694 C 303.110 105.664,303.167 105.565,303.167 105.475 C 303.167 105.385,303.354 105.065,303.583 104.765 C 303.813 104.464,304.000 104.132,304.000 104.026 C 304.000 103.920,304.070 103.833,304.154 103.833 C 304.239 103.833,304.413 103.627,304.540 103.375 C 304.849 102.764,305.230 102.103,305.333 102.000 C 305.498 101.836,306.333 100.046,306.333 99.858 C 306.333 99.753,306.403 99.667,306.489 99.667 C 306.574 99.667,306.696 99.498,306.759 99.292 C 306.822 99.085,307.016 98.598,307.191 98.208 C 307.365 97.819,307.553 97.275,307.608 97.000 C 307.663 96.725,307.774 96.500,307.854 96.500 C 307.934 96.500,308.000 96.386,308.000 96.246 C 308.000 96.106,308.146 95.576,308.325 95.067 C 308.504 94.559,308.700 93.811,308.760 93.405 C 308.821 92.999,308.929 92.667,309.000 92.667 C 309.071 92.667,309.224 91.898,309.340 90.958 C 309.456 90.019,309.633 89.145,309.734 89.016 C 309.995 88.682,309.985 80.192,309.723 79.650 C 309.616 79.430,309.436 78.556,309.323 77.708 C 309.211 76.860,309.061 76.167,308.991 76.167 C 308.922 76.167,308.814 75.801,308.753 75.355 C 308.692 74.909,308.537 74.343,308.410 74.098 C 308.283 73.853,308.130 73.393,308.071 73.076 C 308.012 72.759,307.904 72.500,307.833 72.500 C 307.761 72.500,307.655 72.294,307.596 72.042 C 307.484 71.565,306.184 68.813,306.002 68.667 C 305.945 68.621,305.799 68.340,305.679 68.042 C 305.558 67.744,305.412 67.500,305.354 67.500 C 305.296 67.500,305.156 67.294,305.044 67.042 C 304.932 66.790,304.651 66.380,304.420 66.132 C 304.189 65.884,304.000 65.604,304.000 65.509 C 304.000 65.414,303.850 65.242,303.667 65.128 C 303.483 65.013,303.333 64.841,303.333 64.744 C 303.333 64.513,300.095 61.226,299.243 60.592 C 298.880 60.322,298.546 60.059,298.500 60.009 C 298.292 59.779,297.298 59.145,296.919 59.001 C 296.689 58.913,296.500 58.771,296.500 58.684 C 296.500 58.597,296.275 58.477,296.000 58.417 C 295.725 58.356,295.500 58.241,295.500 58.160 C 295.500 58.079,295.200 57.923,294.833 57.814 C 294.467 57.704,294.167 57.551,294.167 57.474 C 294.167 57.396,294.073 57.333,293.958 57.332 C 293.844 57.331,293.375 57.146,292.917 56.920 C 292.458 56.695,292.001 56.508,291.901 56.505 C 291.800 56.502,291.500 56.391,291.234 56.259 C 290.246 55.766,289.449 55.757,288.883 56.234 C 288.600 56.472,288.323 56.667,288.268 56.667 C 288.212 56.667,288.029 56.798,287.861 56.958 C 287.693 57.119,287.384 57.362,287.175 57.500 C 286.966 57.637,286.623 57.881,286.413 58.042 C 285.991 58.364,285.667 58.421,285.667 58.172 C 285.667 58.022,284.832 56.995,283.662 55.703 C 283.390 55.402,283.167 55.100,283.167 55.032 C 283.167 54.963,283.016 54.778,282.831 54.620 C 282.470 54.311,281.667 54.228,281.667 54.500 M339.926 54.485 C 339.874 54.569,339.532 54.688,339.167 54.750 C 338.801 54.812,338.464 54.923,338.418 54.998 C 338.372 55.072,337.959 55.223,337.501 55.333 C 337.042 55.443,336.667 55.587,336.667 55.652 C 336.667 55.717,336.273 55.870,335.792 55.992 C 335.310 56.114,334.879 56.262,334.833 56.320 C 334.787 56.379,334.206 56.643,333.542 56.907 C 332.877 57.170,332.333 57.449,332.333 57.526 C 332.333 57.604,332.236 57.667,332.117 57.667 C 331.850 57.667,329.107 59.059,328.833 59.334 C 328.787 59.380,328.525 59.530,328.250 59.667 C 327.975 59.804,327.661 59.992,327.553 60.083 C 327.445 60.175,326.968 60.512,326.493 60.833 C 326.018 61.154,325.488 61.548,325.315 61.708 C 325.142 61.869,324.956 62.000,324.901 62.000 C 324.122 62.000,316.500 70.275,316.500 71.121 C 316.500 71.223,316.442 71.331,316.372 71.361 C 316.199 71.436,314.905 73.654,314.760 74.125 C 314.696 74.331,314.584 74.500,314.510 74.500 C 314.437 74.500,314.282 74.837,314.167 75.250 C 314.051 75.662,313.891 76.000,313.812 76.000 C 313.732 76.000,313.667 76.079,313.667 76.176 C 313.667 76.273,313.522 76.669,313.346 77.057 C 313.169 77.444,312.971 77.984,312.906 78.256 C 312.841 78.528,312.733 78.825,312.666 78.917 C 312.598 79.008,312.449 79.496,312.333 80.000 C 312.218 80.504,312.067 80.992,311.998 81.083 C 311.930 81.175,311.794 81.662,311.696 82.167 C 311.599 82.671,311.438 83.458,311.338 83.917 C 310.646 87.109,310.754 95.772,311.498 96.750 C 311.568 96.842,311.676 97.271,311.739 97.704 C 311.801 98.138,311.915 98.531,311.991 98.578 C 312.067 98.625,312.182 98.945,312.246 99.290 C 312.311 99.635,312.512 100.254,312.694 100.667 C 313.321 102.091,314.417 104.250,314.542 104.306 C 314.610 104.336,314.667 104.442,314.667 104.540 C 314.667 104.638,314.854 104.964,315.083 105.265 C 315.313 105.565,315.500 105.891,315.500 105.989 C 315.500 106.087,315.577 106.167,315.671 106.167 C 315.765 106.167,315.913 106.354,316.000 106.583 C 316.087 106.813,316.230 107.000,316.318 107.000 C 316.406 107.000,316.525 107.151,316.584 107.335 C 316.701 107.704,320.767 111.833,321.013 111.833 C 321.097 111.833,321.311 111.965,321.488 112.125 C 322.167 112.741,323.872 113.877,324.599 114.197 C 324.866 114.314,325.121 114.449,325.167 114.497 C 325.360 114.697,327.139 115.500,327.392 115.500 C 327.543 115.500,327.667 115.570,327.667 115.655 C 327.667 115.740,328.079 115.902,328.583 116.015 C 329.087 116.127,329.500 116.278,329.500 116.350 C 329.500 116.421,329.855 116.533,330.289 116.598 C 330.723 116.663,331.315 116.815,331.604 116.936 C 331.893 117.057,332.738 117.207,333.482 117.269 C 334.225 117.331,334.833 117.445,334.833 117.524 C 334.833 117.710,341.953 117.711,342.068 117.524 C 342.117 117.446,342.688 117.333,343.339 117.272 C 343.989 117.212,344.761 117.062,345.055 116.939 C 345.349 116.817,345.944 116.663,346.378 116.598 C 346.812 116.533,347.167 116.419,347.167 116.344 C 347.167 116.269,347.407 116.160,347.701 116.101 C 348.247 115.992,350.714 114.813,351.917 114.087 C 352.283 113.865,352.733 113.613,352.917 113.527 C 353.100 113.441,353.460 113.174,353.717 112.935 C 353.974 112.696,354.236 112.500,354.300 112.500 C 354.364 112.500,354.642 112.315,354.917 112.090 C 355.192 111.865,355.678 111.471,355.997 111.215 C 356.768 110.597,359.500 107.919,359.500 107.781 C 359.500 107.722,359.744 107.409,360.042 107.087 C 360.827 106.239,361.333 105.557,361.333 105.349 C 361.333 105.249,361.410 105.167,361.504 105.167 C 361.598 105.167,361.746 104.979,361.833 104.750 C 361.920 104.521,362.055 104.333,362.131 104.333 C 362.208 104.333,362.374 104.071,362.500 103.750 C 362.626 103.429,362.778 103.167,362.837 103.167 C 362.897 103.167,363.161 102.735,363.424 102.208 C 363.687 101.681,363.951 101.212,364.011 101.167 C 364.071 101.121,364.224 100.783,364.351 100.417 C 364.478 100.050,364.624 99.712,364.675 99.667 C 364.843 99.517,365.500 98.161,365.506 97.953 C 365.509 97.841,365.656 97.450,365.833 97.083 C 366.010 96.717,366.158 96.304,366.162 96.167 C 366.166 96.029,366.284 95.695,366.426 95.424 C 366.567 95.153,366.727 94.609,366.781 94.216 C 366.834 93.822,366.936 93.500,367.005 93.500 C 367.075 93.500,367.228 92.844,367.345 92.042 C 367.463 91.240,367.614 90.545,367.683 90.498 C 367.843 90.389,368.239 85.986,368.245 84.250 C 368.254 81.680,367.854 78.446,367.493 78.167 C 367.315 78.029,366.890 77.675,366.549 77.380 C 366.207 77.085,365.719 76.798,365.464 76.742 C 365.209 76.686,365.000 76.583,365.000 76.513 C 365.000 76.444,364.587 76.288,364.083 76.167 C 363.579 76.046,363.167 75.892,363.167 75.825 C 363.167 75.758,362.923 75.657,362.625 75.600 C 361.782 75.438,360.714 73.167,361.481 73.167 C 361.562 73.167,361.668 73.011,361.718 72.821 C 361.768 72.631,361.964 72.435,362.154 72.385 C 362.344 72.335,362.500 72.229,362.500 72.149 C 362.500 72.069,362.800 71.956,363.167 71.897 C 363.533 71.839,363.833 71.735,363.833 71.667 C 363.833 71.599,364.171 71.449,364.583 71.333 C 365.257 71.145,365.719 70.500,365.180 70.500 C 365.096 70.500,364.977 70.275,364.917 70.000 C 364.856 69.725,364.750 69.500,364.680 69.500 C 364.610 69.500,364.454 69.200,364.333 68.833 C 364.212 68.467,364.055 68.167,363.985 68.167 C 363.914 68.167,363.812 68.028,363.758 67.860 C 363.668 67.576,363.242 66.956,361.799 65.009 C 361.107 64.074,358.199 61.133,357.257 60.414 C 356.140 59.561,354.232 58.333,354.023 58.333 C 353.919 58.333,353.833 58.258,353.833 58.167 C 353.833 58.075,353.748 58.000,353.644 58.000 C 353.539 58.000,352.823 57.697,352.051 57.327 C 351.280 56.957,350.427 56.610,350.157 56.556 C 349.888 56.503,349.667 56.405,349.667 56.339 C 349.667 55.879,347.174 55.825,346.976 56.281 C 346.943 56.356,346.579 56.641,346.167 56.916 C 345.754 57.191,345.357 57.510,345.283 57.625 C 345.210 57.739,345.039 57.833,344.903 57.833 C 344.767 57.833,344.613 57.946,344.560 58.083 C 344.424 58.438,344.114 58.393,343.828 57.976 C 343.694 57.780,343.321 57.333,343.000 56.983 C 342.159 56.066,341.454 55.201,341.170 54.737 C 340.920 54.329,340.122 54.167,339.926 54.485 M222.821 68.862 C 223.286 68.969,223.667 69.114,223.667 69.182 C 223.667 69.251,223.929 69.394,224.250 69.500 C 224.571 69.606,224.833 69.750,224.833 69.820 C 224.833 69.889,225.028 70.035,225.266 70.144 L 225.700 70.341 225.641 80.177 C 225.602 86.891,225.527 90.050,225.406 90.131 C 225.308 90.197,225.134 91.074,225.019 92.080 C 224.905 93.087,224.751 93.950,224.679 93.997 C 224.606 94.045,224.494 94.438,224.430 94.871 C 224.366 95.304,224.256 95.695,224.186 95.738 C 224.115 95.782,223.957 96.234,223.835 96.742 C 223.713 97.251,223.559 97.667,223.493 97.667 C 223.427 97.667,223.288 98.004,223.184 98.417 C 223.080 98.829,222.923 99.167,222.834 99.167 C 222.746 99.167,222.627 99.349,222.571 99.571 C 222.516 99.794,222.364 100.016,222.235 100.066 C 222.106 100.116,222.000 100.254,222.000 100.375 C 222.000 100.723,220.276 102.250,219.392 102.685 C 216.627 104.046,212.584 102.152,211.594 99.032 C 211.530 98.831,211.416 98.667,211.342 98.667 C 211.267 98.667,211.117 98.311,211.007 97.877 C 210.898 97.443,210.757 97.049,210.693 97.002 C 210.496 96.857,209.845 94.413,209.730 93.389 C 209.670 92.854,209.538 92.311,209.436 92.183 C 209.175 91.855,209.177 83.308,209.438 82.984 C 209.541 82.855,209.680 82.300,209.746 81.750 C 209.812 81.200,209.963 80.517,210.081 80.233 C 210.199 79.949,210.348 79.405,210.412 79.026 C 210.477 78.646,210.590 78.297,210.664 78.251 C 210.739 78.205,210.890 77.792,211.000 77.334 C 211.110 76.875,211.267 76.500,211.350 76.500 C 211.432 76.500,211.502 76.406,211.505 76.292 C 211.514 75.951,212.207 74.643,213.204 73.085 C 213.602 72.464,216.058 70.000,216.280 70.000 C 216.401 70.000,216.500 69.938,216.500 69.863 C 216.500 69.063,220.766 68.388,222.821 68.862 M100.583 72.411 C 101.408 72.555,102.233 72.742,102.417 72.827 C 102.600 72.911,103.013 73.031,103.333 73.092 C 104.382 73.294,106.420 74.390,107.616 75.398 C 108.292 75.966,110.254 77.972,110.637 78.485 C 110.882 78.814,111.158 79.168,111.250 79.271 C 111.938 80.047,114.000 83.712,114.000 84.159 C 114.000 84.255,114.070 84.333,114.155 84.333 C 114.240 84.333,114.402 84.746,114.515 85.250 C 114.627 85.754,114.776 86.167,114.845 86.167 C 114.914 86.167,115.023 86.485,115.088 86.875 C 115.152 87.265,115.276 87.672,115.363 87.780 C 115.900 88.446,115.886 95.991,115.347 96.325 C 115.266 96.376,115.146 96.773,115.081 97.208 C 115.016 97.644,114.905 98.000,114.836 98.000 C 114.767 98.000,114.615 98.337,114.500 98.750 C 114.385 99.162,114.234 99.500,114.165 99.500 C 114.097 99.500,113.942 99.737,113.823 100.026 C 113.703 100.315,113.412 100.761,113.177 101.017 C 112.942 101.272,112.667 101.580,112.565 101.699 C 112.135 102.204,111.156 102.964,110.679 103.161 C 110.397 103.278,110.167 103.431,110.167 103.502 C 110.167 103.572,109.910 103.678,109.595 103.737 C 109.281 103.796,109.000 103.915,108.970 104.002 C 108.790 104.531,102.717 104.519,102.528 103.989 C 102.497 103.904,102.357 103.833,102.217 103.833 C 100.774 103.833,97.149 100.379,95.833 97.749 C 95.604 97.291,95.371 96.879,95.316 96.833 C 95.260 96.787,95.121 96.461,95.006 96.109 C 94.891 95.756,94.693 95.269,94.566 95.026 C 94.439 94.782,94.334 94.433,94.333 94.250 C 94.332 94.067,94.229 93.721,94.105 93.483 C 93.980 93.244,93.824 92.682,93.757 92.233 C 93.690 91.784,93.549 91.311,93.443 91.183 C 93.175 90.858,93.170 82.705,93.438 82.536 C 93.541 82.470,93.678 82.079,93.742 81.667 C 93.805 81.254,93.958 80.692,94.082 80.417 C 94.205 80.142,94.358 79.635,94.421 79.292 C 94.485 78.948,94.595 78.667,94.667 78.667 C 94.738 78.667,94.842 78.423,94.899 78.125 C 94.956 77.827,95.301 76.983,95.667 76.250 C 96.032 75.517,96.332 74.823,96.332 74.708 C 96.333 74.594,96.399 74.500,96.480 74.500 C 96.560 74.500,96.725 74.256,96.845 73.958 C 96.966 73.660,97.110 73.379,97.166 73.333 C 97.222 73.287,97.443 72.962,97.657 72.609 C 98.005 72.038,98.102 71.979,98.565 72.060 C 98.850 72.109,99.758 72.268,100.583 72.411 M157.425 72.142 C 157.512 72.220,158.258 72.379,159.083 72.495 C 159.908 72.611,160.658 72.764,160.750 72.835 C 160.842 72.905,161.348 73.058,161.875 73.175 C 162.402 73.291,162.833 73.441,162.833 73.508 C 162.833 73.576,163.039 73.682,163.290 73.745 C 163.541 73.808,163.785 73.910,163.832 73.972 C 163.878 74.033,164.356 74.380,164.894 74.741 C 166.277 75.674,168.754 78.188,169.750 79.672 C 170.024 80.082,170.287 80.454,170.333 80.500 C 170.379 80.546,170.530 80.808,170.667 81.083 C 170.804 81.358,171.010 81.682,171.125 81.804 C 171.240 81.925,171.333 82.122,171.333 82.241 C 171.333 82.361,171.441 82.549,171.573 82.658 C 171.704 82.767,171.860 83.076,171.919 83.345 C 171.978 83.614,172.086 83.833,172.158 83.833 C 172.231 83.833,172.388 84.190,172.508 84.625 C 172.627 85.060,172.775 85.454,172.835 85.500 C 172.932 85.574,173.070 86.042,173.672 88.333 C 173.756 88.654,173.827 89.193,173.829 89.532 C 173.832 89.870,173.908 90.193,174.000 90.250 C 174.208 90.379,174.221 93.400,174.015 93.794 C 173.932 93.953,173.788 94.608,173.697 95.250 C 173.384 97.436,172.473 99.751,171.500 100.832 C 171.362 100.985,171.094 101.291,170.903 101.513 C 170.394 102.105,169.365 103.000,169.194 103.000 C 169.112 103.000,168.860 103.145,168.634 103.323 C 168.408 103.501,168.005 103.700,167.737 103.765 C 167.469 103.831,167.209 103.947,167.159 104.022 C 166.817 104.539,161.669 104.533,160.713 104.014 C 160.550 103.926,159.985 103.660,159.458 103.422 C 158.931 103.185,158.500 102.917,158.500 102.828 C 158.500 102.739,158.402 102.667,158.283 102.667 C 158.003 102.667,155.333 99.992,155.333 99.712 C 155.333 99.595,155.256 99.500,155.163 99.500 C 155.069 99.500,154.920 99.313,154.833 99.083 C 154.746 98.854,154.604 98.667,154.517 98.667 C 154.431 98.667,154.312 98.447,154.253 98.178 C 154.194 97.910,154.042 97.604,153.917 97.500 C 153.791 97.396,153.640 97.090,153.581 96.822 C 153.522 96.553,153.413 96.333,153.340 96.333 C 153.266 96.333,153.117 95.978,153.007 95.544 C 152.898 95.110,152.755 94.716,152.690 94.669 C 152.541 94.561,152.036 92.602,151.779 91.138 C 151.671 90.526,151.527 89.970,151.458 89.902 C 151.280 89.725,151.303 84.220,151.484 83.873 C 151.567 83.714,151.708 83.133,151.799 82.583 C 151.995 81.395,152.430 79.780,152.741 79.083 C 152.864 78.808,153.016 78.340,153.079 78.042 C 153.142 77.744,153.259 77.500,153.339 77.500 C 153.419 77.500,153.534 77.237,153.594 76.917 C 153.655 76.596,153.758 76.333,153.825 76.333 C 153.892 76.333,154.046 76.033,154.167 75.667 C 154.288 75.300,154.436 75.000,154.496 75.000 C 154.555 75.000,154.707 74.737,154.833 74.417 C 154.959 74.096,155.123 73.833,155.198 73.833 C 155.272 73.833,155.333 73.763,155.333 73.677 C 155.333 72.724,156.840 71.618,157.425 72.142 M277.758 72.142 C 277.845 72.220,278.592 72.379,279.417 72.495 C 280.242 72.611,280.992 72.764,281.083 72.835 C 281.175 72.905,281.681 73.058,282.208 73.175 C 282.735 73.291,283.167 73.443,283.167 73.513 C 283.167 73.583,283.392 73.690,283.667 73.750 C 283.942 73.810,284.167 73.929,284.167 74.013 C 284.167 74.098,284.253 74.167,284.360 74.167 C 284.860 74.167,288.305 77.286,289.417 78.746 C 289.600 78.986,289.879 79.339,290.037 79.528 C 290.194 79.718,290.368 80.014,290.423 80.186 C 290.478 80.359,290.592 80.500,290.678 80.500 C 290.763 80.500,290.833 80.571,290.833 80.657 C 290.833 80.743,291.128 81.287,291.489 81.865 C 291.850 82.444,292.195 83.123,292.257 83.375 C 292.319 83.627,292.429 83.833,292.503 83.833 C 292.576 83.833,292.732 84.208,292.849 84.667 C 292.967 85.125,293.117 85.500,293.184 85.500 C 293.250 85.500,293.355 85.800,293.417 86.167 C 293.479 86.533,293.582 86.833,293.647 86.833 C 293.782 86.833,294.167 88.926,294.167 89.660 C 294.167 89.928,294.242 90.193,294.333 90.250 C 294.541 90.378,294.555 93.398,294.350 93.794 C 294.268 93.953,294.115 94.745,294.010 95.555 C 293.906 96.364,293.755 97.151,293.676 97.305 C 293.596 97.458,293.327 98.071,293.077 98.667 C 292.828 99.263,292.521 99.868,292.395 100.013 C 292.269 100.158,292.167 100.347,292.167 100.434 C 292.167 100.521,292.035 100.710,291.875 100.853 C 291.715 100.996,291.427 101.293,291.236 101.515 C 290.713 102.122,289.801 102.893,289.333 103.124 C 289.104 103.238,288.804 103.402,288.667 103.488 C 287.084 104.484,282.469 104.800,281.046 104.011 C 280.883 103.920,280.319 103.650,279.792 103.411 C 279.265 103.172,278.833 102.906,278.833 102.821 C 278.833 102.736,278.735 102.667,278.615 102.667 C 278.494 102.667,277.913 102.171,277.323 101.564 C 276.733 100.958,276.119 100.341,275.958 100.194 C 275.798 100.047,275.667 99.830,275.667 99.713 C 275.667 99.596,275.590 99.500,275.496 99.500 C 275.402 99.500,275.254 99.313,275.167 99.083 C 275.080 98.854,274.937 98.667,274.851 98.667 C 274.764 98.667,274.645 98.447,274.586 98.178 C 274.527 97.910,274.376 97.604,274.250 97.500 C 274.124 97.396,273.973 97.090,273.914 96.822 C 273.855 96.553,273.745 96.333,273.670 96.333 C 273.595 96.333,273.443 95.958,273.333 95.500 C 273.223 95.042,273.078 94.667,273.010 94.667 C 272.942 94.667,272.787 94.138,272.665 93.492 C 272.543 92.847,272.386 92.282,272.315 92.239 C 272.244 92.195,272.135 91.636,272.072 90.996 C 272.008 90.357,271.892 89.833,271.812 89.833 C 271.619 89.833,271.624 84.244,271.817 83.873 C 271.900 83.714,272.043 83.133,272.134 82.583 C 272.340 81.347,272.849 79.446,273.003 79.333 C 273.067 79.287,273.212 78.856,273.326 78.375 C 273.440 77.894,273.597 77.500,273.676 77.500 C 273.754 77.500,273.867 77.237,273.928 76.917 C 273.988 76.596,274.092 76.333,274.159 76.333 C 274.225 76.333,274.379 76.033,274.500 75.667 C 274.621 75.300,274.765 75.000,274.819 75.000 C 274.874 75.000,275.025 74.756,275.154 74.458 C 275.284 74.160,275.433 73.879,275.487 73.833 C 275.622 73.717,275.951 73.181,276.282 72.542 C 276.565 71.993,277.354 71.779,277.758 72.142 M337.417 72.408 C 338.242 72.550,339.039 72.736,339.188 72.822 C 339.337 72.907,339.749 73.029,340.104 73.093 C 342.007 73.434,344.929 75.528,347.089 78.097 C 347.544 78.638,348.006 79.176,348.114 79.292 C 348.223 79.407,348.359 79.652,348.417 79.834 C 348.475 80.017,348.587 80.167,348.667 80.167 C 348.746 80.167,348.858 80.316,348.916 80.499 C 348.974 80.682,349.113 80.926,349.224 81.041 C 349.592 81.423,351.500 85.467,351.500 85.867 C 351.500 85.995,351.576 86.176,351.670 86.270 C 351.763 86.363,351.923 86.922,352.026 87.511 C 352.129 88.101,352.296 88.637,352.397 88.702 C 352.521 88.781,352.584 89.910,352.591 92.144 L 352.600 95.468 353.228 96.234 C 353.573 96.655,353.959 97.000,354.086 97.000 C 354.213 97.000,354.377 97.094,354.450 97.208 C 354.625 97.481,355.262 97.833,355.581 97.833 C 355.720 97.833,355.833 97.908,355.833 98.000 C 355.833 98.092,355.925 98.167,356.036 98.167 C 357.472 98.167,357.181 101.139,355.717 101.432 C 355.426 101.490,355.148 101.641,355.099 101.769 C 355.050 101.896,354.896 102.000,354.755 102.000 C 354.615 102.000,354.500 102.075,354.500 102.167 C 354.500 102.258,354.406 102.334,354.292 102.335 C 353.994 102.338,352.667 103.644,352.667 103.934 C 352.667 104.068,352.554 104.220,352.417 104.273 C 352.279 104.326,352.167 104.476,352.167 104.606 C 352.167 104.737,352.060 104.885,351.930 104.935 C 351.800 104.984,351.605 105.395,351.497 105.846 C 351.389 106.297,351.245 106.667,351.179 106.667 C 351.036 106.667,350.667 108.178,350.667 108.763 C 350.667 108.985,350.600 109.167,350.519 109.167 C 350.438 109.167,350.332 109.322,350.282 109.512 C 350.232 109.703,350.036 109.899,349.846 109.948 C 349.656 109.998,349.500 110.105,349.500 110.186 C 349.500 110.267,349.162 110.333,348.750 110.333 C 348.337 110.333,348.000 110.270,348.000 110.193 C 348.000 110.116,347.820 109.971,347.599 109.871 C 347.344 109.754,347.155 109.487,347.080 109.136 C 347.015 108.832,346.904 108.508,346.833 108.417 C 346.762 108.325,346.652 107.931,346.588 107.542 C 346.523 107.152,346.412 106.833,346.340 106.833 C 346.267 106.833,346.163 106.605,346.107 106.326 C 346.051 106.047,345.804 105.475,345.558 105.055 L 345.111 104.292 343.597 104.400 C 341.988 104.515,339.454 104.275,339.361 103.999 C 339.331 103.908,339.180 103.833,339.026 103.833 C 337.868 103.833,334.100 100.557,333.167 98.737 C 333.030 98.469,332.880 98.212,332.834 98.167 C 332.669 98.003,331.833 96.213,331.833 96.025 C 331.833 95.920,331.773 95.833,331.698 95.833 C 331.624 95.833,331.464 95.440,331.343 94.958 C 331.223 94.477,331.064 94.007,330.990 93.914 C 330.917 93.820,330.767 93.220,330.658 92.580 C 330.548 91.940,330.374 91.311,330.271 91.183 C 330.011 90.858,330.009 82.811,330.270 82.484 C 330.372 82.355,330.550 81.743,330.664 81.123 C 330.778 80.503,330.933 79.958,331.008 79.912 C 331.083 79.865,331.236 79.416,331.349 78.914 C 331.461 78.411,331.616 78.000,331.693 78.000 C 331.770 78.000,331.833 77.920,331.833 77.823 C 331.833 77.725,332.021 77.235,332.250 76.734 C 332.479 76.233,332.667 75.751,332.667 75.662 C 332.667 75.573,332.734 75.500,332.815 75.500 C 332.897 75.500,333.014 75.300,333.076 75.055 C 333.137 74.810,333.333 74.425,333.510 74.199 C 333.688 73.973,333.833 73.720,333.833 73.637 C 333.833 73.554,333.913 73.395,334.010 73.285 C 334.107 73.174,334.336 72.832,334.518 72.524 C 334.811 72.031,334.912 71.976,335.383 72.058 C 335.677 72.109,336.592 72.266,337.417 72.408 M348.438 91.208 C 348.383 91.415,348.337 91.743,348.336 91.938 C 348.334 92.133,348.229 92.379,348.101 92.485 C 347.974 92.591,347.820 93.006,347.760 93.408 C 347.700 93.810,347.542 94.230,347.408 94.340 C 347.275 94.450,347.167 94.665,347.167 94.817 C 347.167 94.968,347.017 95.221,346.833 95.378 C 346.650 95.535,346.500 95.779,346.500 95.921 C 346.500 96.062,346.289 96.384,346.032 96.635 C 345.775 96.887,345.514 97.222,345.454 97.380 C 345.393 97.538,345.242 97.667,345.118 97.667 C 344.993 97.667,344.674 97.927,344.409 98.245 C 344.144 98.563,343.719 98.869,343.464 98.925 C 343.209 98.981,343.000 99.087,343.000 99.162 C 343.000 99.236,342.813 99.344,342.583 99.402 C 341.931 99.565,342.090 99.885,343.042 100.329 C 343.523 100.553,344.155 100.983,344.447 101.285 C 344.739 101.586,345.047 101.833,345.132 101.833 C 345.217 101.833,345.428 102.032,345.602 102.275 C 345.775 102.519,346.048 102.856,346.208 103.025 C 346.369 103.195,346.500 103.411,346.500 103.505 C 346.500 103.600,346.608 103.719,346.740 103.769 C 346.872 103.820,347.029 104.099,347.090 104.389 C 347.150 104.679,347.298 105.073,347.419 105.265 C 347.540 105.457,347.723 105.925,347.826 106.307 C 347.929 106.688,348.085 107.000,348.173 107.000 C 348.261 107.000,348.333 107.178,348.333 107.396 C 348.333 108.880,348.907 109.357,349.039 107.982 C 349.084 107.514,349.189 107.083,349.272 107.024 C 349.354 106.965,349.519 106.542,349.637 106.083 C 349.756 105.625,349.923 105.225,350.009 105.194 C 350.096 105.164,350.167 105.007,350.167 104.845 C 350.167 104.683,350.317 104.378,350.500 104.167 C 350.683 103.955,350.833 103.679,350.833 103.553 C 350.833 103.426,350.946 103.280,351.083 103.227 C 351.221 103.174,351.333 103.054,351.333 102.961 C 351.333 102.727,352.871 101.176,353.107 101.171 C 353.212 101.169,353.341 101.054,353.394 100.917 C 353.446 100.779,353.593 100.667,353.719 100.667 C 353.846 100.667,354.122 100.517,354.333 100.333 C 354.545 100.150,354.856 100.000,355.026 100.000 C 355.484 100.000,355.398 99.522,354.917 99.402 C 354.688 99.344,354.500 99.238,354.500 99.167 C 354.500 99.095,354.308 98.988,354.073 98.929 C 353.654 98.824,352.935 98.246,351.983 97.250 C 351.174 96.403,350.994 96.170,350.788 95.702 C 350.679 95.453,350.551 95.212,350.503 95.166 C 350.283 94.953,349.697 93.695,349.591 93.208 C 349.526 92.910,349.413 92.667,349.339 92.667 C 349.265 92.667,349.154 92.254,349.091 91.750 C 348.971 90.791,348.627 90.505,348.438 91.208 M394.172 110.287 C 394.049 110.904,393.848 111.509,393.724 111.633 C 393.601 111.756,393.500 111.964,393.500 112.095 C 393.500 112.226,393.434 112.333,393.354 112.333 C 393.274 112.333,393.165 112.552,393.111 112.819 C 393.058 113.086,392.711 113.623,392.340 114.013 C 391.970 114.402,391.667 114.812,391.667 114.924 C 391.667 115.035,391.442 115.219,391.167 115.333 C 390.892 115.447,390.667 115.597,390.667 115.667 C 390.667 115.736,390.423 115.893,390.125 116.014 C 389.115 116.427,388.880 117.079,389.668 117.285 C 389.850 117.333,390.000 117.438,390.000 117.519 C 390.000 117.600,390.097 117.667,390.216 117.667 C 390.335 117.667,390.745 117.967,391.127 118.333 C 391.508 118.700,391.898 119.000,391.994 119.000 C 392.089 119.000,392.167 119.108,392.167 119.241 C 392.167 119.373,392.305 119.579,392.474 119.699 C 392.644 119.819,392.879 120.217,392.998 120.583 C 393.117 120.950,393.316 121.310,393.440 121.383 C 393.565 121.457,393.667 121.657,393.667 121.828 C 393.667 121.999,393.738 122.164,393.825 122.194 C 393.913 122.225,394.080 122.756,394.197 123.375 C 394.432 124.622,394.734 124.832,394.913 123.875 C 394.978 123.532,395.104 123.205,395.195 123.149 C 395.285 123.094,395.400 122.737,395.451 122.357 C 395.502 121.977,395.603 121.667,395.676 121.667 C 395.748 121.667,395.898 121.392,396.009 121.056 C 396.120 120.721,396.425 120.236,396.688 119.979 C 396.951 119.722,397.167 119.462,397.167 119.402 C 397.167 119.208,398.623 117.928,399.321 117.508 C 399.694 117.283,400.000 116.997,400.000 116.871 C 400.000 116.622,399.606 116.168,399.387 116.164 C 398.974 116.158,396.951 114.203,396.648 113.517 C 396.522 113.233,396.376 113.000,396.324 113.000 C 396.272 113.000,396.126 112.737,396.000 112.417 C 395.874 112.096,395.717 111.833,395.650 111.833 C 395.584 111.833,395.479 111.533,395.417 111.167 C 395.355 110.800,395.245 110.500,395.173 110.500 C 395.101 110.500,394.995 110.200,394.936 109.833 C 394.771 108.799,394.427 109.003,394.172 110.287 M366.500 112.569 C 366.500 112.974,366.421 113.332,366.325 113.364 C 366.229 113.396,366.106 113.852,366.052 114.378 C 365.998 114.903,365.894 115.333,365.822 115.333 C 365.750 115.333,365.598 115.746,365.485 116.250 C 365.373 116.754,365.225 117.167,365.157 117.167 C 365.089 117.167,364.945 117.536,364.836 117.987 C 364.728 118.439,364.533 118.849,364.403 118.899 C 364.273 118.949,364.167 119.142,364.167 119.328 C 364.167 119.514,364.090 119.667,363.996 119.667 C 363.903 119.667,363.735 119.873,363.623 120.125 C 363.405 120.614,363.255 120.834,362.792 121.345 C 362.631 121.522,362.500 121.715,362.500 121.775 C 362.500 121.958,360.542 123.833,360.350 123.833 C 360.251 123.833,360.076 123.983,359.961 124.167 C 359.847 124.350,359.656 124.500,359.538 124.500 C 359.420 124.500,359.282 124.606,359.232 124.736 C 359.182 124.866,358.772 125.061,358.321 125.170 C 357.869 125.278,357.500 125.428,357.500 125.503 C 357.500 125.579,357.275 125.690,357.000 125.750 C 356.305 125.903,356.291 126.500,356.982 126.500 C 357.247 126.500,357.504 126.603,357.552 126.729 C 357.601 126.855,357.909 127.008,358.237 127.070 C 358.565 127.131,358.833 127.241,358.833 127.314 C 358.833 127.387,359.024 127.533,359.256 127.639 C 359.787 127.881,359.873 127.954,361.589 129.618 C 362.365 130.370,363.000 131.060,363.000 131.151 C 363.000 131.242,363.098 131.377,363.218 131.450 C 363.338 131.523,363.534 131.825,363.653 132.119 C 363.772 132.414,364.011 132.701,364.185 132.756 C 364.423 132.831,364.476 132.955,364.399 133.261 C 364.343 133.484,364.368 133.667,364.455 133.667 C 364.542 133.667,364.716 133.985,364.841 134.375 C 364.967 134.765,365.133 135.128,365.211 135.183 C 365.289 135.237,365.441 135.743,365.548 136.308 C 365.655 136.872,365.795 137.333,365.859 137.333 C 365.924 137.333,366.028 137.746,366.091 138.250 C 366.154 138.754,366.266 139.167,366.341 139.167 C 366.416 139.167,366.502 139.372,366.531 139.624 C 366.656 140.714,367.105 140.224,367.323 138.757 C 367.439 137.974,367.594 137.333,367.666 137.333 C 367.738 137.333,367.836 137.090,367.884 136.792 C 367.997 136.089,368.585 134.490,368.781 134.355 C 368.865 134.297,369.030 133.919,369.148 133.515 C 369.266 133.111,369.450 132.682,369.556 132.563 C 370.039 132.020,370.167 131.836,370.167 131.683 C 370.167 131.593,370.311 131.418,370.488 131.294 C 370.665 131.170,370.902 130.866,371.015 130.618 C 371.128 130.370,371.291 130.167,371.378 130.167 C 371.465 130.167,371.492 130.054,371.440 129.917 C 371.377 129.754,371.444 129.666,371.630 129.666 C 371.788 129.666,372.239 129.328,372.632 128.916 C 373.026 128.504,373.457 128.167,373.591 128.167 C 373.724 128.167,373.833 128.097,373.833 128.011 C 373.833 127.926,373.974 127.811,374.147 127.756 C 374.319 127.702,374.631 127.509,374.839 127.328 C 375.047 127.148,375.352 127.000,375.517 127.000 C 375.682 127.000,375.877 126.894,375.950 126.764 C 376.023 126.635,376.308 126.504,376.582 126.473 C 377.381 126.383,377.332 125.890,376.509 125.752 C 376.137 125.689,375.833 125.575,375.833 125.499 C 375.833 125.422,375.603 125.309,375.322 125.248 C 375.041 125.186,374.770 125.030,374.721 124.901 C 374.671 124.772,374.532 124.667,374.412 124.667 C 374.291 124.667,373.969 124.479,373.697 124.250 C 373.425 124.021,373.160 123.833,373.108 123.833 C 372.924 123.833,371.000 121.870,371.000 121.682 C 371.000 121.576,370.894 121.449,370.765 121.399 C 370.636 121.350,370.442 121.095,370.333 120.833 C 370.225 120.572,370.031 120.317,369.901 120.267 C 369.772 120.218,369.667 120.025,369.667 119.839 C 369.667 119.652,369.604 119.500,369.527 119.500 C 369.342 119.500,369.000 118.737,369.000 118.325 C 369.000 118.146,368.925 118.000,368.833 118.000 C 368.741 118.000,368.575 117.662,368.465 117.250 C 368.354 116.837,368.211 116.500,368.147 116.500 C 368.082 116.500,367.979 116.200,367.917 115.833 C 367.855 115.467,367.751 115.167,367.686 115.167 C 367.550 115.167,367.167 113.072,367.167 112.330 C 367.167 111.944,367.092 111.833,366.833 111.833 C 366.550 111.833,366.500 111.944,366.500 112.569 " stroke="none" fill="#ffffff" fill-rule="evenodd">
                </path>
        </g>
</svg>