<svg id="svg"
        xmlns="http://www.w3.org/2000/svg"
        xmlns:xlink="http://www.w3.org/1999/xlink" width="400" height="225" viewBox="0, 0, 400,225" version="1.1">
        <g id="svgg">
                <path id="path0" d="M63.342 48.906 C 62.898 49.336,59.714 52.854,56.267 56.724 C 48.510 65.433,48.726 64.823,52.370 67.769 C 59.253 73.333,62.371 77.749,63.451 83.461 C 64.386 88.409,63.295 92.456,58.052 103.488 C 56.758 106.210,54.118 111.830,52.184 115.975 L 48.669 123.513 35.789 90.559 C 22.155 55.676,22.581 56.667,21.212 56.667 C 20.253 56.667,3.223 64.289,2.702 64.951 C 2.367 65.377,2.292 65.797,2.292 67.230 L 2.292 68.986 21.357 114.337 C 33.341 142.842,40.585 159.823,40.859 160.052 C 41.223 160.356,41.723 160.417,43.854 160.417 C 47.131 160.417,46.750 160.817,49.693 154.271 C 58.479 134.728,68.552 112.814,74.686 99.903 C 80.770 87.096,82.293 81.984,82.291 74.380 C 82.288 64.860,77.571 55.411,69.957 49.675 L 67.899 48.125 66.025 48.125 L 64.151 48.125 63.342 48.906 M68.292 50.893 C 78.847 58.734,82.878 71.702,78.828 84.792 C 77.659 88.570,76.013 92.540,72.867 99.164 C 67.893 109.642,59.335 128.194,52.279 143.799 L 45.521 158.745 43.844 158.747 L 42.167 158.750 23.119 113.490 C 8.001 77.568,4.057 68.014,4.004 67.188 L 3.938 66.146 12.208 62.500 C 16.757 60.495,20.633 58.794,20.821 58.721 C 21.110 58.608,23.319 64.095,34.801 93.447 C 42.301 112.621,48.500 128.243,48.576 128.164 C 48.710 128.025,50.575 124.076,56.466 111.458 C 58.044 108.078,60.007 103.906,60.828 102.188 C 68.744 85.622,66.999 76.907,53.634 66.249 C 52.724 65.524,51.990 64.820,52.002 64.687 C 52.015 64.553,54.968 61.148,58.565 57.120 L 65.104 49.798 65.957 49.795 C 66.663 49.792,67.065 49.981,68.292 50.893 M217.083 59.482 C 206.415 63.188,207.500 62.246,207.500 67.802 L 207.500 72.038 206.982 72.168 C 206.323 72.333,205.953 72.905,205.418 74.580 C 204.604 77.129,203.198 79.000,201.414 79.914 C 199.440 80.923,199.440 82.606,201.414 83.640 C 203.596 84.784,204.895 86.704,205.819 90.149 C 206.055 91.032,206.678 91.667,207.307 91.667 C 207.699 91.667,207.917 93.486,207.917 96.768 L 207.917 98.681 206.302 98.588 C 194.079 97.883,183.300 105.682,178.325 118.830 L 177.546 120.889 177.197 119.351 C 175.367 111.278,170.158 104.348,163.364 100.948 C 159.001 98.765,157.712 98.563,155.906 99.780 L 154.688 100.602 154.176 99.937 C 151.963 97.059,150.565 97.078,144.085 100.073 C 142.081 101.000,142.152 100.999,140.990 100.112 C 139.859 99.248,138.895 97.751,138.422 96.124 C 137.601 93.299,135.255 93.092,134.475 95.774 C 133.776 98.179,132.563 99.835,130.852 100.720 C 129.061 101.646,129.413 103.137,131.857 104.967 C 132.215 105.235,132.753 105.776,133.053 106.169 L 133.597 106.883 131.641 108.910 C 129.193 111.446,127.421 114.034,125.734 117.538 L 124.421 120.264 124.270 119.351 C 123.084 112.206,117.147 104.301,110.448 100.948 C 106.084 98.765,104.795 98.563,102.990 99.780 L 101.771 100.602 101.259 99.937 C 99.266 97.346,98.687 97.223,94.857 98.581 C 78.224 104.479,68.291 118.750,69.756 134.648 C 71.196 150.279,85.577 160.890,101.458 158.038 C 110.088 156.488,118.091 149.581,122.186 140.149 L 123.071 138.111 123.629 139.899 C 127.667 152.850,140.641 160.505,154.375 158.038 C 162.998 156.489,171.008 149.580,175.096 140.165 L 175.974 138.143 176.440 140.374 C 178.312 149.336,184.584 156.193,192.396 157.819 C 198.402 159.069,204.237 157.726,208.542 154.105 L 210.104 152.790 211.354 154.053 C 217.803 160.567,230.667 157.914,235.813 149.010 L 236.686 147.499 237.933 149.049 C 245.187 158.067,259.589 161.144,270.059 155.914 C 276.239 152.827,281.445 147.135,284.478 140.149 L 285.363 138.111 285.921 139.899 C 289.959 152.850,302.933 160.505,316.667 158.038 C 329.718 155.694,340.002 142.076,340.083 127.032 C 340.095 124.884,340.112 123.126,340.121 123.126 C 341.099 123.070,344.191 130.812,344.690 134.565 C 345.150 138.025,347.889 137.443,348.538 133.747 C 349.922 125.872,353.863 120.417,359.313 118.833 C 361.658 118.151,361.715 115.819,359.404 115.132 C 353.792 113.465,349.863 107.961,348.460 99.796 C 348.118 97.810,347.725 97.292,346.562 97.292 C 345.335 97.292,345.010 97.781,344.477 100.425 C 343.398 105.788,341.555 109.557,338.737 112.166 L 337.444 113.363 336.519 111.629 C 333.523 106.014,328.886 102.015,322.536 99.570 C 320.368 98.735,319.700 98.768,318.198 99.780 L 316.979 100.602 316.467 99.937 C 314.474 97.346,313.896 97.223,310.066 98.581 C 299.878 102.193,292.260 108.746,288.026 117.538 L 286.713 120.264 286.561 119.351 C 285.375 112.206,279.438 104.301,272.739 100.948 C 268.376 98.765,267.087 98.563,265.281 99.780 L 264.063 100.602 263.551 99.937 C 261.558 97.346,260.979 97.223,257.149 98.581 C 240.502 104.483,230.584 118.746,232.050 134.675 C 232.180 136.087,232.353 137.418,232.434 137.632 C 232.550 137.936,232.434 137.895,231.901 137.448 C 230.680 136.424,229.405 136.787,228.398 138.446 C 228.203 138.766,228.147 136.846,228.137 129.567 L 228.125 120.280 228.792 119.273 C 230.357 116.911,232.937 114.889,235.500 114.017 C 238.301 113.063,238.620 110.889,236.071 110.132 C 233.455 109.355,230.986 107.580,229.257 105.234 L 228.125 103.698 228.125 80.589 L 228.125 57.481 227.614 56.970 C 226.805 56.161,226.295 56.283,217.083 59.482 M226.234 78.802 C 226.217 101.159,226.216 101.169,225.135 94.839 C 224.789 92.810,224.401 92.292,223.229 92.292 C 222.002 92.292,221.676 92.781,221.144 95.425 C 219.545 103.369,215.931 108.335,210.469 110.097 C 207.917 110.921,208.092 113.093,210.780 113.958 C 216.098 115.668,220.451 122.052,221.347 129.455 C 221.778 133.019,224.536 132.514,225.215 128.747 C 226.162 123.485,226.221 123.804,226.236 134.323 C 226.244 139.622,226.306 143.958,226.374 143.958 C 226.837 143.958,227.904 142.796,229.143 140.944 L 230.587 138.785 233.210 141.579 C 236.232 144.797,236.083 144.378,234.956 146.494 C 229.368 156.980,215.463 159.219,211.072 150.339 L 210.582 149.347 208.953 151.009 C 203.270 156.807,195.541 158.078,188.578 154.357 C 169.004 143.899,177.153 105.759,200.000 100.906 C 202.069 100.467,208.265 100.379,209.190 100.776 L 209.735 101.010 209.711 94.724 L 209.688 88.438 210.298 87.192 C 211.037 85.684,212.467 84.211,213.793 83.590 C 215.882 82.612,215.774 80.965,213.543 79.776 C 212.075 78.993,211.065 77.837,210.144 75.888 L 209.479 74.479 209.414 69.358 L 209.349 64.236 217.747 61.311 C 222.367 59.701,226.169 58.373,226.198 58.359 C 226.227 58.345,226.243 67.544,226.234 78.802 M208.447 76.460 C 209.275 78.665,212.123 81.666,213.389 81.667 C 213.530 81.667,213.252 81.862,212.771 82.100 C 210.390 83.279,207.790 87.056,207.691 89.478 C 207.682 89.708,207.461 89.240,207.200 88.438 C 206.221 85.430,204.407 83.004,202.510 82.167 L 201.649 81.787 202.543 81.333 C 203.404 80.895,205.625 78.869,205.625 78.521 C 205.625 78.428,205.847 78.025,206.118 77.626 C 206.575 76.952,207.019 75.790,207.399 74.271 L 207.556 73.646 207.747 74.375 C 207.852 74.776,208.167 75.714,208.447 76.460 M224.177 98.642 C 226.049 105.353,230.468 110.558,235.310 111.754 C 235.906 111.901,235.871 111.932,234.464 112.479 C 228.786 114.688,224.938 120.197,223.534 128.125 L 223.184 130.104 223.024 128.854 C 222.273 122.958,219.033 116.904,215.173 114.184 C 213.919 113.301,213.238 112.965,210.957 112.104 C 210.648 111.988,210.857 111.846,211.895 111.468 C 217.350 109.479,221.485 103.607,222.859 95.896 L 223.223 93.854 223.381 95.104 C 223.468 95.792,223.826 97.384,224.177 98.642 M136.831 96.994 C 137.494 99.125,140.023 102.292,141.060 102.292 C 141.475 102.292,141.211 102.635,140.501 103.017 C 138.942 103.857,137.667 105.634,136.687 108.333 C 136.459 108.964,136.267 109.318,136.261 109.122 C 136.205 107.286,133.040 102.708,131.827 102.708 C 131.419 102.708,131.748 102.288,132.580 101.743 C 134.237 100.659,135.479 98.830,136.078 96.593 C 136.218 96.068,136.358 95.663,136.388 95.694 C 136.419 95.724,136.618 96.310,136.831 96.994 M347.510 103.642 C 349.382 110.353,353.801 115.558,358.643 116.754 C 359.240 116.901,359.204 116.932,357.797 117.479 C 352.120 119.688,348.272 125.197,346.867 133.125 L 346.517 135.104 346.358 133.854 C 345.607 127.958,342.366 121.904,338.506 119.184 C 337.252 118.301,336.572 117.965,334.290 117.104 C 333.982 116.988,334.191 116.846,335.228 116.468 C 340.683 114.479,344.818 108.607,346.193 100.896 L 346.557 98.854 346.714 100.104 C 346.801 100.792,347.159 102.384,347.510 103.642 M99.954 101.454 L 101.470 103.321 103.168 102.077 C 105.147 100.627,104.805 100.700,106.544 101.355 C 124.203 108.002,128.721 131.342,115.451 147.364 C 100.092 165.908,70.206 154.432,71.536 130.501 C 72.310 116.584,81.107 105.574,95.586 100.400 C 98.476 99.368,98.207 99.303,99.954 101.454 M152.870 101.454 L 154.386 103.321 156.084 102.077 C 158.064 100.627,157.721 100.700,159.461 101.355 C 177.120 108.002,181.638 131.342,168.368 147.364 C 154.318 164.327,127.244 156.555,124.568 134.792 C 123.564 126.629,126.824 116.931,132.708 110.572 C 134.174 108.988,134.583 108.777,134.583 109.605 C 134.583 110.279,135.507 111.042,136.322 111.042 C 137.364 111.042,137.836 110.519,138.508 108.618 C 139.211 106.630,140.042 105.516,141.582 104.493 C 142.245 104.054,142.751 103.547,142.826 103.251 C 142.971 102.674,144.927 101.696,148.542 100.393 C 151.385 99.368,151.125 99.305,152.870 101.454 M262.245 101.454 L 263.761 103.321 265.459 102.077 C 267.439 100.627,267.096 100.700,268.836 101.355 C 286.495 108.002,291.013 131.342,277.743 147.364 C 262.384 165.908,232.498 154.432,233.828 130.501 C 234.602 116.584,243.398 105.574,257.878 100.400 C 260.767 99.368,260.499 99.303,262.245 101.454 M315.162 101.454 L 316.678 103.321 318.376 102.077 C 320.356 100.627,320.013 100.700,321.753 101.355 C 327.527 103.528,332.019 107.384,334.791 112.547 C 335.805 114.434,335.809 114.419,334.060 115.001 C 331.186 115.957,331.301 118.028,334.283 119.024 C 338.044 120.280,338.236 120.657,338.220 126.771 C 338.152 152.361,310.036 166.305,293.469 148.965 C 279.067 133.890,288.124 108.501,310.794 100.400 C 313.684 99.368,313.416 99.303,315.162 101.454 M202.864 112.101 C 195.550 113.825,191.442 127.839,195.218 138.184 C 198.388 146.873,205.772 145.645,208.213 136.023 C 209.114 132.471,209.212 131.251,209.314 122.292 L 209.413 113.646 208.300 112.985 C 206.502 111.917,204.812 111.642,202.864 112.101 M206.591 114.295 L 207.396 114.688 207.394 122.500 C 207.393 130.998,207.227 132.776,206.101 136.354 C 203.287 145.298,197.492 143.397,195.939 133.021 C 194.327 122.244,200.532 111.336,206.591 114.295 M92.359 115.885 C 86.721 124.754,87.128 136.029,93.309 142.212 C 97.409 146.315,104.369 145.913,107.351 141.403 C 111.256 135.497,109.650 126.106,103.659 119.820 C 101.121 117.156,99.280 116.176,95.357 115.402 C 92.773 114.892,93.015 114.853,92.359 115.885 M145.276 115.885 C 139.638 124.754,140.045 136.029,146.225 142.212 C 150.326 146.315,157.286 145.913,160.268 141.403 C 164.173 135.497,162.566 126.106,156.576 119.820 C 154.037 117.156,152.197 116.176,148.274 115.402 C 145.690 114.892,145.932 114.853,145.276 115.885 M254.651 115.885 C 249.013 124.754,249.420 136.029,255.600 142.212 C 259.701 146.315,266.661 145.913,269.643 141.403 C 273.548 135.497,271.941 126.106,265.951 119.820 C 263.412 117.156,261.572 116.176,257.649 115.402 C 255.065 114.892,255.307 114.853,254.651 115.885 M307.567 115.885 C 299.824 128.066,304.136 144.738,315.083 144.942 C 316.452 144.968,317.635 145.061,317.712 145.151 C 317.921 145.393,318.883 147.897,319.152 148.899 C 319.684 150.883,322.708 150.896,322.708 148.915 C 322.708 146.603,325.129 143.156,327.431 142.188 C 329.229 141.432,328.944 139.627,326.849 138.511 C 324.821 137.430,324.692 137.152,324.662 133.784 C 324.579 124.638,318.732 117.014,310.566 115.402 C 307.982 114.892,308.223 114.853,307.567 115.885 M95.981 117.496 C 105.365 119.746,111.077 134.221,105.211 140.885 C 101.709 144.863,95.660 143.523,92.637 138.098 C 89.205 131.940,89.545 124.225,93.534 117.760 C 94.027 116.962,93.839 116.983,95.981 117.496 M148.897 117.496 C 158.282 119.746,163.994 134.221,158.127 140.885 C 154.626 144.863,148.577 143.523,145.554 138.098 C 142.122 131.940,142.462 124.225,146.451 117.760 C 146.943 116.962,146.756 116.983,148.897 117.496 M258.272 117.496 C 267.657 119.746,273.369 134.221,267.502 140.885 C 264.001 144.863,257.952 143.523,254.929 138.098 C 251.497 131.940,251.837 124.225,255.826 117.760 C 256.318 116.962,256.131 116.983,258.272 117.496 M311.189 117.496 C 316.216 118.701,320.572 123.528,322.282 129.787 C 322.828 131.785,322.818 131.966,322.197 131.345 C 320.990 130.137,319.505 130.887,318.857 133.031 C 318.052 135.698,316.495 137.802,314.642 138.729 C 312.732 139.684,312.822 141.398,314.837 142.419 C 316.138 143.078,315.863 143.379,314.200 143.114 C 305.797 141.772,302.727 127.510,308.743 117.760 C 309.235 116.962,309.047 116.983,311.189 117.496 M321.781 135.210 C 322.608 137.415,325.456 140.416,326.722 140.417 C 326.863 140.417,326.585 140.612,326.104 140.850 C 323.723 142.029,321.123 145.806,321.025 148.228 C 321.015 148.458,320.794 147.990,320.533 147.188 C 319.555 144.180,317.740 141.754,315.843 140.917 L 314.983 140.537 315.877 140.083 C 316.738 139.645,318.958 137.619,318.958 137.271 C 318.958 137.178,319.180 136.775,319.451 136.376 C 319.908 135.702,320.352 134.540,320.733 133.021 L 320.889 132.396 321.080 133.125 C 321.186 133.526,321.501 134.464,321.781 135.210 M361.519 147.814 C 361.258 147.997,360.926 148.625,360.725 149.316 C 360.026 151.720,358.813 153.377,357.102 154.261 C 355.266 155.211,355.614 156.539,358.250 158.646 C 359.296 159.481,360.133 160.843,360.655 162.555 C 361.580 165.592,363.614 165.396,364.758 162.160 C 365.452 160.198,366.326 159.012,367.751 158.098 C 369.907 156.714,369.768 155.349,367.300 153.669 C 366.219 152.933,365.151 151.311,364.679 149.688 C 364.103 147.707,362.787 146.926,361.519 147.814 M363.081 150.536 C 363.744 152.666,366.273 155.833,367.310 155.833 C 367.725 155.833,367.461 156.176,366.751 156.559 C 365.192 157.398,363.917 159.176,362.937 161.875 C 362.709 162.505,362.517 162.860,362.511 162.664 C 362.455 160.827,359.290 156.250,358.077 156.250 C 357.669 156.250,357.998 155.830,358.830 155.285 C 360.487 154.201,361.729 152.372,362.328 150.134 C 362.468 149.609,362.608 149.205,362.638 149.236 C 362.669 149.266,362.868 149.851,363.081 150.536 M335.928 150.511 C 335.647 150.793,335.417 151.213,335.417 151.446 C 335.417 155.271,332.000 160.648,328.498 162.333 C 325.806 163.629,325.600 165.634,328.062 166.562 C 331.377 167.812,333.880 171.154,335.081 175.938 C 336.113 180.044,338.491 180.273,339.412 176.354 C 340.558 171.475,342.697 168.423,346.126 166.774 C 348.939 165.421,349.218 163.461,346.719 162.616 C 343.145 161.408,339.167 155.567,339.167 151.530 C 339.167 150.715,338.290 150.000,337.292 150.000 C 336.665 150.000,336.304 150.135,335.928 150.511 M338.252 155.289 C 339.641 159.511,342.341 162.762,345.542 164.062 C 346.510 164.456,346.678 164.587,346.351 164.694 C 342.416 165.976,339.112 170.106,337.837 175.332 C 337.560 176.467,337.281 177.255,337.217 177.083 C 337.152 176.911,336.903 175.974,336.663 175.000 C 335.498 170.275,331.070 164.792,328.418 164.792 C 327.806 164.792,328.166 164.435,329.219 163.997 C 332.790 162.515,335.824 158.288,336.873 153.333 C 337.257 151.521,337.323 151.482,337.621 152.893 C 337.776 153.625,338.060 154.703,338.252 155.289 " stroke="none" fill="#ffffff" fill-rule="evenodd"></path>
                <path id="path1" d="M58.565 57.120 C 54.968 61.148,52.015 64.553,52.002 64.687 C 51.990 64.820,52.724 65.524,53.634 66.249 C 59.653 71.049,62.938 75.207,64.548 80.061 C 66.689 86.518,65.806 91.770,60.828 102.188 C 60.007 103.906,58.044 108.078,56.466 111.458 C 50.575 124.076,48.710 128.025,48.576 128.164 C 48.500 128.243,42.301 112.621,34.801 93.447 C 23.319 64.095,21.110 58.608,20.821 58.721 C 20.633 58.794,16.757 60.495,12.208 62.500 L 3.938 66.146 4.004 67.188 C 4.057 68.014,8.001 77.568,23.119 113.490 L 42.167 158.750 43.844 158.747 L 45.521 158.745 52.279 143.799 C 59.335 128.194,67.893 109.642,72.867 99.164 C 81.764 80.426,82.643 71.912,76.831 60.790 C 74.168 55.694,68.326 49.786,65.957 49.795 L 65.104 49.798 58.565 57.120 M217.747 61.311 L 209.349 64.236 209.414 69.358 L 209.479 74.479 210.144 75.888 C 211.065 77.837,212.075 78.993,213.543 79.776 C 215.774 80.965,215.882 82.612,213.793 83.590 C 212.467 84.211,211.037 85.684,210.298 87.192 L 209.688 88.438 209.711 94.724 L 209.735 101.010 209.190 100.776 C 208.265 100.379,202.069 100.467,200.000 100.906 C 177.153 105.759,169.004 143.899,188.578 154.357 C 195.541 158.078,203.270 156.807,208.953 151.009 L 210.582 149.347 211.072 150.339 C 215.463 159.219,229.368 156.980,234.956 146.494 C 236.083 144.378,236.232 144.797,233.210 141.579 L 230.587 138.785 229.143 140.944 C 227.904 142.796,226.837 143.958,226.374 143.958 C 226.306 143.958,226.244 139.622,226.236 134.323 C 226.221 123.804,226.162 123.485,225.215 128.747 C 224.536 132.514,221.778 133.019,221.347 129.455 C 220.451 122.052,216.098 115.668,210.780 113.958 C 208.092 113.093,207.917 110.921,210.469 110.097 C 215.931 108.335,219.545 103.369,221.144 95.425 C 221.676 92.781,222.002 92.292,223.229 92.292 C 224.401 92.292,224.789 92.810,225.135 94.839 C 226.216 101.169,226.217 101.159,226.234 78.802 C 226.243 67.544,226.227 58.345,226.198 58.359 C 226.169 58.373,222.367 59.701,217.747 61.311 M207.399 74.271 C 207.019 75.790,206.575 76.952,206.118 77.626 C 205.847 78.025,205.625 78.428,205.625 78.521 C 205.625 78.869,203.404 80.895,202.543 81.333 L 201.649 81.787 202.510 82.167 C 204.407 83.004,206.221 85.430,207.200 88.438 C 207.461 89.240,207.682 89.708,207.691 89.478 C 207.790 87.056,210.390 83.279,212.771 82.100 C 213.252 81.862,213.530 81.667,213.389 81.667 C 211.597 81.666,208.666 77.877,207.747 74.375 L 207.556 73.646 207.399 74.271 M222.859 95.896 C 221.485 103.607,217.350 109.479,211.895 111.468 C 210.857 111.846,210.648 111.988,210.957 112.104 C 213.238 112.965,213.919 113.301,215.173 114.184 C 219.033 116.904,222.273 122.958,223.024 128.854 L 223.184 130.104 223.534 128.125 C 224.938 120.197,228.786 114.688,234.464 112.479 C 235.871 111.932,235.906 111.901,235.310 111.754 C 229.630 110.351,224.380 103.024,223.381 95.104 L 223.223 93.854 222.859 95.896 M136.078 96.593 C 135.479 98.830,134.237 100.659,132.580 101.743 C 131.748 102.288,131.419 102.708,131.827 102.708 C 133.040 102.708,136.205 107.286,136.261 109.122 C 136.267 109.318,136.459 108.964,136.687 108.333 C 137.667 105.634,138.942 103.857,140.501 103.017 C 141.211 102.635,141.475 102.292,141.060 102.292 C 140.023 102.292,137.494 99.125,136.831 96.994 C 136.618 96.310,136.419 95.724,136.388 95.694 C 136.358 95.663,136.218 96.068,136.078 96.593 M346.193 100.896 C 344.818 108.607,340.683 114.479,335.228 116.468 C 334.191 116.846,333.982 116.988,334.290 117.104 C 336.572 117.965,337.252 118.301,338.506 119.184 C 342.366 121.904,345.607 127.958,346.358 133.854 L 346.517 135.104 346.867 133.125 C 348.272 125.197,352.120 119.688,357.797 117.479 C 359.204 116.932,359.240 116.901,358.643 116.754 C 352.963 115.351,347.714 108.024,346.714 100.104 L 346.557 98.854 346.193 100.896 M95.586 100.400 C 81.107 105.574,72.310 116.584,71.536 130.501 C 70.206 154.432,100.092 165.908,115.451 147.364 C 128.721 131.342,124.203 108.002,106.544 101.355 C 104.805 100.700,105.147 100.627,103.168 102.077 L 101.470 103.321 99.954 101.454 C 98.207 99.303,98.476 99.368,95.586 100.400 M148.542 100.393 C 144.927 101.696,142.971 102.674,142.826 103.251 C 142.751 103.547,142.245 104.054,141.582 104.493 C 140.042 105.516,139.211 106.630,138.508 108.618 C 137.836 110.519,137.364 111.042,136.322 111.042 C 135.507 111.042,134.583 110.279,134.583 109.605 C 134.583 108.777,134.174 108.988,132.708 110.572 C 126.824 116.931,123.564 126.629,124.568 134.792 C 127.244 156.555,154.318 164.327,168.368 147.364 C 181.638 131.342,177.120 108.002,159.461 101.355 C 157.721 100.700,158.064 100.627,156.084 102.077 L 154.386 103.321 152.870 101.454 C 151.125 99.305,151.385 99.368,148.542 100.393 M257.878 100.400 C 243.398 105.574,234.602 116.584,233.828 130.501 C 232.498 154.432,262.384 165.908,277.743 147.364 C 291.013 131.342,286.495 108.002,268.836 101.355 C 267.096 100.700,267.439 100.627,265.459 102.077 L 263.761 103.321 262.245 101.454 C 260.499 99.303,260.767 99.368,257.878 100.400 M310.794 100.400 C 288.124 108.501,279.067 133.890,293.469 148.965 C 310.036 166.305,338.152 152.361,338.220 126.771 C 338.236 120.657,338.044 120.280,334.283 119.024 C 331.301 118.028,331.186 115.957,334.060 115.001 C 335.809 114.419,335.805 114.434,334.791 112.547 C 332.019 107.384,327.527 103.528,321.753 101.355 C 320.013 100.700,320.356 100.627,318.376 102.077 L 316.678 103.321 315.162 101.454 C 313.416 99.303,313.684 99.368,310.794 100.400 M206.354 112.101 C 206.813 112.224,207.688 112.622,208.300 112.985 L 209.413 113.646 209.314 122.292 C 209.212 131.251,209.114 132.471,208.213 136.023 C 205.359 147.274,196.515 146.481,194.277 134.773 C 191.893 122.298,198.453 109.983,206.354 112.101 M95.357 115.402 C 99.280 116.176,101.121 117.156,103.659 119.820 C 113.035 129.659,110.809 144.896,99.996 144.896 C 88.975 144.896,84.566 128.145,92.359 115.885 C 93.015 114.853,92.773 114.892,95.357 115.402 M148.274 115.402 C 152.197 116.176,154.037 117.156,156.576 119.820 C 165.952 129.659,163.726 144.896,152.912 144.896 C 141.892 144.896,137.482 128.145,145.276 115.885 C 145.932 114.853,145.690 114.892,148.274 115.402 M257.649 115.402 C 261.572 116.176,263.412 117.156,265.951 119.820 C 275.327 129.659,273.101 144.896,262.287 144.896 C 251.267 144.896,246.857 128.145,254.651 115.885 C 255.307 114.853,255.065 114.892,257.649 115.402 M310.566 115.402 C 318.732 117.014,324.579 124.638,324.662 133.784 C 324.692 137.152,324.821 137.430,326.849 138.511 C 328.944 139.627,329.229 141.432,327.431 142.188 C 325.129 143.156,322.708 146.603,322.708 148.915 C 322.708 150.896,319.684 150.883,319.152 148.899 C 318.883 147.897,317.921 145.393,317.712 145.151 C 317.635 145.061,316.452 144.968,315.083 144.942 C 304.136 144.738,299.824 128.066,307.567 115.885 C 308.223 114.853,307.982 114.892,310.566 115.402 M320.733 133.021 C 320.352 134.540,319.908 135.702,319.451 136.376 C 319.180 136.775,318.958 137.178,318.958 137.271 C 318.958 137.619,316.738 139.645,315.877 140.083 L 314.983 140.537 315.843 140.917 C 317.740 141.754,319.555 144.180,320.533 147.188 C 320.794 147.990,321.015 148.458,321.025 148.228 C 321.123 145.806,323.723 142.029,326.104 140.850 C 326.585 140.612,326.863 140.417,326.722 140.417 C 324.931 140.416,321.999 136.627,321.080 133.125 L 320.889 132.396 320.733 133.021 M362.328 150.134 C 361.729 152.372,360.487 154.201,358.830 155.285 C 357.998 155.830,357.669 156.250,358.077 156.250 C 359.290 156.250,362.455 160.827,362.511 162.664 C 362.517 162.860,362.709 162.505,362.937 161.875 C 363.917 159.176,365.192 157.398,366.751 156.559 C 367.461 156.176,367.725 155.833,367.310 155.833 C 366.273 155.833,363.744 152.666,363.081 150.536 C 362.868 149.851,362.669 149.266,362.638 149.236 C 362.608 149.205,362.468 149.609,362.328 150.134 M337.228 151.875 C 337.166 152.047,337.007 152.703,336.873 153.333 C 335.824 158.288,332.790 162.515,329.219 163.997 C 328.166 164.435,327.806 164.792,328.418 164.792 C 331.070 164.792,335.498 170.275,336.663 175.000 C 336.903 175.974,337.152 176.911,337.217 177.083 C 337.281 177.255,337.560 176.467,337.837 175.332 C 339.112 170.106,342.416 165.976,346.351 164.694 C 346.678 164.587,346.510 164.456,345.542 164.062 C 341.706 162.503,338.780 158.377,337.621 152.893 C 337.466 152.161,337.289 151.703,337.228 151.875 " stroke="none" fill="#000000" fill-rule="evenodd"></path>
        </g>
</svg>