<svg id="svg" xmlns="http://www.w3.org/2000/svg" xmlns:xlink="http://www.w3.org/1999/xlink" width="400" height="485.33333333333337" viewBox="0, 0, 400,485.33333333333337" version="1.1"><g id="svgg"><path id="path0" d="M236.918 33.294 C 220.524 51.606,207.111 66.943,207.111 67.377 C 207.111 67.810,210.011 70.459,213.556 73.262 C 252.034 103.696,266.806 129.374,265.500 163.556 C 264.847 180.658,261.502 191.894,248.750 219.822 C 242.565 233.369,242.722 231.436,247.576 234.281 C 255.436 238.887,255.703 246.737,248.132 250.599 C 241.626 253.918,237.268 259.970,233.815 270.479 C 231.538 277.409,229.330 279.400,224.396 278.975 L 221.144 278.695 207.713 307.347 C 200.326 323.106,194.033 336.000,193.729 336.000 C 193.425 336.000,167.255 269.700,135.573 188.667 C 103.892 107.633,77.727 41.055,77.430 40.714 C 77.132 40.373,59.889 47.663,39.111 56.913 C 18.333 66.163,1.021 73.845,0.639 73.986 C 0.257 74.126,8.114 93.636,18.098 117.343 C 28.083 141.049,36.887 161.973,37.663 163.841 C 39.027 167.126,39.139 167.192,41.068 165.841 C 46.413 162.098,51.805 165.020,53.791 172.736 C 56.848 184.611,63.728 194.069,72.184 198.019 C 80.902 202.091,80.624 209.454,71.586 213.880 C 68.939 215.176,65.671 217.387,64.324 218.792 L 61.876 221.348 63.648 225.563 C 152.622 437.204,172.962 485.333,173.433 485.333 C 173.747 485.333,178.209 476.036,183.349 464.673 L 192.695 444.013 189.968 440.908 C 186.695 437.180,181.511 433.783,175.723 431.572 C 165.373 427.620,166.090 419.057,177.201 413.924 C 192.124 407.029,207.111 383.962,207.111 367.888 C 207.111 359.505,222.963 360.234,223.174 368.626 C 223.344 375.413,224.541 373.946,231.507 358.413 C 240.144 339.155,288.870 234.146,301.095 208.444 C 338.586 129.626,340.274 86.787,307.816 37.846 C 299.339 25.066,272.478 -0.000,267.258 0.000 C 266.965 0.000,253.312 14.982,236.918 33.294 M44.954 173.778 C 44.614 175.244,43.961 177.139,43.502 177.988 C 43.043 178.837,42.663 180.037,42.657 180.655 C 42.652 181.272,41.673 183.578,40.481 185.778 C 39.288 187.978,37.932 190.599,37.467 191.603 C 36.075 194.607,28.273 201.814,24.115 203.936 L 20.231 205.918 23.072 207.095 C 32.523 211.009,40.699 222.534,45.157 238.222 C 45.906 240.858,46.057 240.994,46.144 239.111 C 46.630 228.713,57.714 212.114,67.309 207.418 L 71.061 205.581 67.458 203.956 C 58.993 200.139,49.991 187.739,46.701 175.363 C 45.589 171.184,45.560 171.157,44.954 173.778 M224.889 214.536 C 224.889 221.456,216.234 234.936,208.723 239.715 L 204.281 242.541 207.696 244.795 C 215.723 250.094,220.823 256.987,223.735 266.470 L 225.422 271.965 227.093 266.871 C 230.369 256.890,235.256 250.037,242.251 245.618 C 246.006 243.246,247.215 241.778,245.413 241.778 C 240.985 241.778,230.198 228.266,227.369 219.176 C 225.593 213.469,224.889 212.152,224.889 214.536 M343.656 237.943 C 337.395 271.823,320.251 295.596,295.658 304.501 L 290.427 306.395 294.420 307.401 C 318.457 313.453,339.690 343.677,344.486 378.667 L 345.156 383.556 346.719 374.667 C 352.626 341.077,370.248 316.409,394.354 307.985 L 400.165 305.955 397.194 305.303 C 373.359 300.068,352.364 271.472,346.435 236.166 L 345.268 229.220 343.656 237.943 M214.222 369.765 C 214.222 386.998,197.845 412.416,182.000 419.776 C 176.287 422.429,174.521 424.000,177.251 424.000 C 188.566 424.000,207.460 447.394,212.429 467.556 C 215.114 478.448,215.139 478.465,217.008 470.667 C 222.771 446.610,236.125 429.504,253.778 423.563 C 255.253 423.066,254.875 422.702,251.556 421.422 C 234.159 414.712,216.000 388.513,216.000 370.123 C 216.000 368.955,215.600 368.000,215.111 368.000 C 214.622 368.000,214.222 368.794,214.222 369.765 " stroke="none" fill="#000000" fill-rule="evenodd"></path></g></svg>