<svg id="svg" xmlns="http://www.w3.org/2000/svg" xmlns:xlink="http://www.w3.org/1999/xlink" width="400" height="482.40343347639487" viewBox="0, 0, 400,482.40343347639487" version="1.1"><g id="svgg"><path id="path0" d="M259.727 1.815 C 258.457 2.813,244.500 18.081,228.709 35.744 C 193.426 75.210,194.626 72.131,209.766 84.371 C 255.285 121.170,266.020 152.322,248.565 196.963 C 245.277 205.372,238.083 221.873,237.164 223.113 C 236.518 223.984,234.343 219.779,233.030 215.120 C 229.704 203.323,219.960 202.349,216.721 213.490 C 213.841 223.397,208.842 230.221,201.793 233.866 C 198.672 235.480,197.425 237.582,197.425 241.231 C 197.425 244.037,198.199 244.939,207.265 252.689 C 209.680 254.754,212.186 258.099,213.853 261.485 L 216.543 266.949 205.526 290.489 L 194.509 314.029 141.443 178.259 C 85.285 34.576,87.027 38.627,81.395 38.627 C 78.021 38.627,3.543 71.568,1.502 73.963 C -1.382 77.348,-0.330 80.445,20.654 130.351 L 41.309 179.472 38.315 184.800 C 34.844 190.977,30.268 195.628,25.136 198.195 C 17.435 202.048,17.637 209.125,25.567 213.282 C 34.558 217.996,39.911 225.905,43.716 240.098 C 45.876 248.157,58.369 248.354,58.369 240.329 C 58.369 238.209,60.891 230.177,61.717 229.666 C 62.029 229.474,85.998 285.706,114.981 354.627 C 170.281 486.128,168.550 482.403,174.345 482.403 C 179.302 482.403,180.642 480.527,189.347 461.388 C 193.853 451.482,197.703 443.212,197.904 443.012 C 198.704 442.211,203.465 454.328,205.490 462.322 C 209.754 479.151,219.548 480.044,223.327 463.948 C 228.048 443.846,236.861 431.272,250.992 424.475 C 262.458 418.960,263.734 410.866,253.678 407.439 C 243.318 403.909,233.866 394.444,228.163 381.887 L 226.758 378.795 239.001 351.844 C 254.687 317.311,286.095 249.655,301.408 217.410 C 337.949 140.471,342.338 103.719,320.497 57.574 C 305.088 25.017,270.535 -6.687,259.727 1.815 M274.004 13.734 C 305.388 35.774,325.333 74.104,325.317 112.344 C 325.304 141.430,318.763 162.549,293.114 216.309 C 281.301 241.070,241.185 327.498,231.275 349.539 C 223.972 365.784,222.364 368.020,222.331 361.978 C 222.298 355.972,213.456 352.989,208.974 357.472 C 207.815 358.631,206.867 360.363,206.867 361.322 C 206.867 377.083,192.790 399.234,178.359 406.180 C 167.271 411.517,166.420 419.780,176.564 423.604 C 181.411 425.431,186.570 428.833,190.026 432.481 L 192.498 435.091 183.588 454.907 C 177.704 467.993,174.433 474.350,173.956 473.623 C 173.560 473.018,149.332 415.744,120.117 346.347 L 67.000 220.172 70.055 217.442 C 71.734 215.940,74.797 213.918,76.861 212.948 C 85.196 209.030,84.597 202.185,75.493 197.333 C 67.455 193.048,61.460 184.142,58.365 171.886 C 56.941 166.246,52.182 164.267,46.279 166.859 C 45.120 167.368,9.876 86.458,8.417 79.942 C 8.197 78.955,80.472 45.851,81.218 46.597 C 81.322 46.702,106.599 111.195,137.388 189.917 C 168.176 268.639,193.604 333.046,193.894 333.044 C 194.184 333.042,200.383 320.295,207.670 304.718 L 220.920 276.395 224.099 276.395 C 228.637 276.395,230.532 274.347,233.339 266.410 C 236.198 258.326,239.797 253.441,245.669 249.673 C 253.784 244.466,253.926 238.059,246.036 233.072 L 242.178 230.633 245.874 223.257 C 277.704 159.746,268.734 120.081,212.661 76.400 C 209.946 74.285,207.725 72.246,207.725 71.870 C 207.725 70.733,264.550 7.639,265.333 7.907 C 265.732 8.043,269.634 10.665,274.004 13.734 M54.272 182.833 C 57.907 192.161,64.881 200.539,71.749 203.825 L 75.258 205.503 72.007 207.112 C 62.339 211.895,51.753 227.668,51.434 237.765 C 51.360 240.115,51.396 240.197,48.817 231.760 C 45.557 221.099,37.376 210.428,29.950 207.152 L 26.538 205.646 30.222 203.766 C 34.214 201.728,41.752 194.732,43.015 191.891 C 43.446 190.922,44.489 188.970,45.334 187.554 C 46.969 184.814,49.217 178.924,50.248 174.678 L 50.874 172.103 51.653 175.107 C 52.082 176.760,53.260 180.236,54.272 182.833 M226.429 218.517 C 229.161 227.295,239.578 240.343,243.854 240.343 C 245.566 240.343,244.450 241.729,241.283 243.538 C 234.954 247.151,229.299 255.019,226.163 264.575 L 224.549 269.494 222.920 264.188 C 220.140 255.133,215.383 248.654,207.514 243.205 L 204.298 240.978 208.505 238.300 C 215.681 233.733,224.034 220.682,224.034 214.037 C 224.034 211.735,224.714 213.007,226.429 218.517 M335.631 222.997 C 334.159 224.188,333.286 226.748,331.752 234.370 C 325.163 267.100,310.276 287.561,287.769 294.821 C 277.254 298.213,277.975 307.163,289.051 310.726 C 311.301 317.884,328.380 343.087,332.629 375.031 C 334.525 389.288,345.808 386.889,348.484 371.660 C 354.185 339.216,370.423 316.741,392.879 310.213 C 402.540 307.404,402.776 297.793,393.253 294.965 C 370.128 288.098,353.944 265.418,348.160 231.776 C 346.472 221.957,341.348 218.367,335.631 222.997 M343.676 245.494 C 351.324 274.714,370.039 297.210,390.423 301.687 L 393.292 302.317 387.681 304.278 C 364.103 312.517,347.479 335.901,341.600 369.099 L 340.156 377.253 339.500 372.103 C 335.299 339.127,313.223 308.397,290.163 303.429 L 287.193 302.789 292.309 300.936 C 316.247 292.269,332.649 269.508,338.753 236.488 L 340.338 227.911 340.940 232.625 C 341.270 235.218,342.502 241.009,343.676 245.494 M215.451 364.282 C 215.451 381.327,232.701 406.849,248.585 413.305 C 252.578 414.928,253.267 415.466,251.917 415.908 C 235.668 421.223,222.098 438.180,216.839 459.739 C 215.698 464.415,214.548 467.661,214.283 466.953 C 214.018 466.245,212.991 462.382,212.002 458.369 C 207.204 438.900,188.958 416.309,178.032 416.309 C 175.470 416.309,177.059 414.914,182.622 412.280 C 197.405 405.281,209.350 387.947,213.003 368.198 C 214.080 362.375,215.451 360.182,215.451 364.282 " stroke="none" fill="#000000" fill-rule="evenodd"></path></g></svg>