<svg id="svg" version="1.1" xmlns="http://www.w3.org/2000/svg" xmlns:xlink="http://www.w3.org/1999/xlink" width="400" height="485.33333333333337" viewBox="0, 0, 400,485.33333333333337"><g id="svgg"><path id="path0" d="M266.007 0.296 C 265.336 0.559,264.400 1.423,264.400 1.779 C 264.400 1.909,263.320 3.088,262.000 4.400 C 260.680 5.712,259.600 6.960,259.600 7.173 C 259.600 7.387,258.340 8.826,256.800 10.372 C 255.260 11.918,254.000 13.263,254.000 13.361 C 254.000 13.459,253.505 14.058,252.900 14.692 C 251.280 16.392,250.400 17.558,250.400 18.005 C 250.400 18.222,250.214 18.400,249.987 18.400 C 249.556 18.400,246.800 20.999,246.800 21.405 C 246.800 21.532,246.395 22.052,245.900 22.559 C 244.540 23.954,243.200 25.578,243.200 25.832 C 243.200 26.136,242.119 27.200,241.810 27.200 C 241.495 27.200,239.600 29.086,239.600 29.400 C 239.600 29.530,239.195 30.052,238.700 30.559 C 237.505 31.785,236.000 33.568,236.000 33.758 C 236.000 33.842,234.380 35.581,232.400 37.622 C 230.420 39.663,228.800 41.489,228.800 41.680 C 228.800 41.870,227.450 43.358,225.800 44.987 C 224.150 46.616,222.800 48.058,222.800 48.191 C 222.800 48.546,222.184 49.239,218.300 53.261 C 216.375 55.253,214.800 57.063,214.800 57.282 C 214.800 57.500,213.945 58.535,212.900 59.582 C 206.194 66.296,205.635 67.467,208.100 69.641 C 208.815 70.271,209.553 70.790,209.740 70.794 C 209.926 70.797,210.583 71.340,211.200 72.000 C 211.817 72.660,212.519 73.200,212.760 73.200 C 213.002 73.200,213.200 73.380,213.200 73.600 C 213.200 73.820,213.560 74.000,214.000 74.000 C 214.440 74.000,214.800 74.188,214.800 74.418 C 214.800 74.961,216.639 76.800,217.182 76.800 C 217.412 76.800,217.600 76.980,217.600 77.200 C 217.600 77.420,217.960 77.600,218.400 77.600 C 218.840 77.600,219.200 77.788,219.200 78.018 C 219.200 78.457,220.993 80.400,221.399 80.400 C 221.528 80.400,222.020 80.760,222.492 81.200 C 222.964 81.640,223.587 82.000,223.875 82.000 C 224.164 82.000,224.400 82.193,224.400 82.429 C 224.400 82.892,225.384 84.000,225.795 84.000 C 225.933 84.000,226.802 84.766,227.725 85.703 C 228.649 86.640,230.033 87.854,230.802 88.400 C 232.487 89.598,236.542 93.655,238.200 95.801 C 238.860 96.655,240.347 98.331,241.504 99.525 C 242.661 100.719,243.884 102.279,244.222 102.990 C 244.560 103.702,245.278 104.521,245.818 104.810 C 246.358 105.099,246.800 105.665,246.800 106.068 C 246.800 106.470,246.980 106.800,247.200 106.800 C 247.420 106.800,247.600 107.030,247.600 107.312 C 247.600 107.593,247.960 108.083,248.400 108.400 C 248.840 108.717,249.200 109.278,249.200 109.646 C 249.200 110.013,249.470 110.418,249.800 110.545 C 250.130 110.671,250.400 111.051,250.400 111.387 C 250.400 111.724,250.580 112.000,250.800 112.000 C 251.020 112.000,251.200 112.270,251.200 112.600 C 251.200 112.930,251.380 113.200,251.600 113.200 C 251.820 113.200,252.000 113.560,252.000 114.000 C 252.000 114.440,252.180 114.800,252.400 114.800 C 252.620 114.800,252.800 115.070,252.800 115.400 C 252.800 115.730,252.980 116.000,253.200 116.000 C 253.420 116.000,253.600 116.276,253.600 116.613 C 253.600 116.949,253.870 117.329,254.200 117.455 C 254.530 117.582,254.800 118.116,254.800 118.643 C 254.800 119.169,254.980 119.600,255.200 119.600 C 255.420 119.600,255.600 119.960,255.600 120.400 C 255.600 120.840,255.780 121.200,256.000 121.200 C 256.220 121.200,256.400 121.442,256.400 121.739 C 256.400 122.541,257.602 124.800,258.029 124.800 C 258.233 124.800,258.400 125.149,258.400 125.576 C 258.400 126.003,258.580 126.464,258.800 126.600 C 259.020 126.736,259.200 127.377,259.200 128.024 C 259.200 128.671,259.380 129.200,259.600 129.200 C 259.820 129.200,260.000 129.549,260.000 129.976 C 260.000 130.403,260.180 130.864,260.400 131.000 C 260.620 131.136,260.800 131.777,260.800 132.424 C 260.800 133.071,260.980 133.600,261.200 133.600 C 261.420 133.600,261.600 134.037,261.600 134.571 C 261.600 135.106,261.870 135.813,262.200 136.143 C 262.537 136.480,262.800 137.457,262.800 138.371 C 262.800 139.267,262.980 140.000,263.200 140.000 C 263.420 140.000,263.600 140.810,263.600 141.800 C 263.600 142.790,263.780 143.600,264.000 143.600 C 264.226 143.600,264.400 144.733,264.400 146.200 C 264.400 147.667,264.574 148.800,264.800 148.800 C 265.057 148.800,265.200 152.725,265.200 159.776 C 265.200 166.663,265.051 170.845,264.800 171.000 C 264.580 171.136,264.400 172.396,264.400 173.800 C 264.400 175.204,264.220 176.464,264.000 176.600 C 263.780 176.736,263.600 177.737,263.600 178.824 C 263.600 179.911,263.420 180.800,263.200 180.800 C 262.980 180.800,262.800 181.595,262.800 182.567 C 262.800 183.538,262.610 184.397,262.379 184.474 C 261.986 184.605,261.419 186.327,260.922 188.900 C 260.805 189.505,260.550 190.000,260.355 190.000 C 260.160 190.000,260.000 190.540,260.000 191.200 C 260.000 191.860,259.820 192.400,259.600 192.400 C 259.380 192.400,259.200 193.030,259.200 193.800 C 259.200 194.570,259.020 195.200,258.800 195.200 C 258.580 195.200,258.400 195.573,258.400 196.029 C 258.400 196.484,258.130 197.127,257.800 197.457 C 257.470 197.787,257.200 198.404,257.200 198.829 C 257.200 199.253,257.020 199.600,256.800 199.600 C 256.580 199.600,256.400 200.140,256.400 200.800 C 256.400 201.460,256.220 202.000,256.000 202.000 C 255.780 202.000,255.600 202.450,255.600 203.000 C 255.600 203.550,255.420 204.000,255.200 204.000 C 254.980 204.000,254.800 204.345,254.800 204.768 C 254.800 205.590,253.597 208.112,253.100 208.333 C 252.935 208.407,252.800 208.902,252.800 209.433 C 252.800 209.965,252.620 210.400,252.400 210.400 C 252.180 210.400,252.000 210.839,252.000 211.376 C 252.000 211.913,251.820 212.464,251.600 212.600 C 251.380 212.736,251.200 213.287,251.200 213.824 C 251.200 214.361,251.020 214.800,250.800 214.800 C 250.580 214.800,250.400 215.141,250.400 215.557 C 250.400 215.974,250.130 216.418,249.800 216.545 C 249.470 216.671,249.200 217.141,249.200 217.587 C 249.200 218.034,249.020 218.400,248.800 218.400 C 248.580 218.400,248.400 218.672,248.400 219.005 C 248.400 219.338,248.241 219.923,248.047 220.305 C 247.728 220.931,247.335 221.848,246.632 223.600 C 246.499 223.930,246.046 224.740,245.625 225.400 C 245.203 226.060,244.845 226.915,244.829 227.300 C 244.813 227.685,244.620 228.000,244.400 228.000 C 244.180 228.000,244.000 228.360,244.000 228.800 C 244.000 229.240,243.820 229.600,243.600 229.600 C 242.535 229.600,243.205 232.335,244.400 232.864 C 245.060 233.156,245.600 233.531,245.600 233.698 C 245.600 233.864,245.870 234.000,246.200 234.000 C 246.530 234.000,246.800 234.270,246.800 234.600 C 246.800 234.933,247.156 235.200,247.600 235.200 C 248.040 235.200,248.400 235.380,248.400 235.600 C 248.400 235.820,248.768 236.000,249.218 236.000 C 250.274 236.000,252.000 237.726,252.000 238.782 C 252.000 239.232,252.180 239.600,252.400 239.600 C 252.631 239.600,252.800 240.867,252.800 242.600 C 252.800 244.333,252.631 245.600,252.400 245.600 C 252.180 245.600,252.000 245.968,252.000 246.418 C 252.000 247.474,250.274 249.200,249.218 249.200 C 248.768 249.200,248.400 249.380,248.400 249.600 C 248.400 249.820,248.040 250.000,247.600 250.000 C 247.156 250.000,246.800 250.267,246.800 250.600 C 246.800 250.930,246.530 251.200,246.200 251.200 C 245.870 251.200,245.600 251.380,245.600 251.600 C 245.600 251.820,245.324 252.000,244.988 252.000 C 244.185 252.000,239.600 256.579,239.600 257.380 C 239.600 257.721,239.420 258.000,239.200 258.000 C 238.980 258.000,238.800 258.270,238.800 258.600 C 238.800 258.930,238.607 259.200,238.371 259.200 C 237.734 259.200,236.800 260.253,236.800 260.971 C 236.800 261.317,236.620 261.600,236.400 261.600 C 236.180 261.600,236.000 262.050,236.000 262.600 C 236.000 263.150,235.820 263.600,235.600 263.600 C 235.380 263.600,235.200 264.309,235.200 265.176 C 235.200 266.043,235.020 266.864,234.800 267.000 C 234.580 267.136,234.400 267.597,234.400 268.024 C 234.400 268.451,234.130 268.800,233.800 268.800 C 233.381 268.800,233.200 269.222,233.200 270.200 C 233.200 270.970,233.020 271.600,232.800 271.600 C 232.580 271.600,232.400 272.140,232.400 272.800 C 232.400 273.460,232.220 274.000,232.000 274.000 C 231.780 274.000,231.600 274.450,231.600 275.000 C 231.600 275.550,231.438 276.000,231.239 276.000 C 231.041 276.000,230.683 276.560,230.444 277.245 C 230.157 278.069,229.817 278.415,229.438 278.270 C 229.124 278.149,228.767 278.309,228.646 278.625 C 228.399 279.269,226.400 279.425,226.400 278.800 C 226.400 278.580,225.590 278.400,224.600 278.400 C 223.610 278.400,222.800 278.220,222.800 278.000 C 222.800 277.780,222.350 277.600,221.800 277.600 C 221.178 277.600,220.800 277.827,220.800 278.200 C 220.800 278.530,220.620 278.800,220.400 278.800 C 220.180 278.800,220.000 279.072,220.000 279.405 C 220.000 279.738,219.820 280.368,219.600 280.805 C 219.380 281.242,219.020 281.958,218.800 282.395 C 218.580 282.832,218.400 283.552,218.400 283.995 C 218.400 284.444,218.135 284.800,217.800 284.800 C 217.427 284.800,217.200 285.178,217.200 285.800 C 217.200 286.350,217.020 286.800,216.800 286.800 C 216.580 286.800,216.400 287.160,216.400 287.600 C 216.400 288.040,216.220 288.400,216.000 288.400 C 215.780 288.400,215.600 288.749,215.600 289.176 C 215.600 289.603,215.420 290.064,215.200 290.200 C 214.980 290.336,214.800 290.782,214.800 291.190 C 214.800 291.599,214.665 291.993,214.500 292.067 C 214.335 292.140,213.865 292.920,213.456 293.800 C 213.046 294.680,212.551 295.713,212.356 296.095 C 212.160 296.477,212.000 297.062,212.000 297.395 C 212.000 297.728,211.820 298.000,211.600 298.000 C 211.380 298.000,211.200 298.450,211.200 299.000 C 211.200 299.550,211.020 300.000,210.800 300.000 C 210.580 300.000,210.400 300.341,210.400 300.757 C 210.400 301.174,210.130 301.618,209.800 301.745 C 209.470 301.871,209.200 302.341,209.200 302.787 C 209.200 303.234,209.020 303.600,208.800 303.600 C 208.580 303.600,208.400 303.960,208.400 304.400 C 208.400 304.840,208.220 305.200,208.000 305.200 C 207.780 305.200,207.600 305.650,207.600 306.200 C 207.600 306.750,207.420 307.200,207.200 307.200 C 206.980 307.200,206.800 307.452,206.800 307.759 C 206.800 308.067,206.352 309.102,205.805 310.059 C 205.257 311.017,204.807 312.115,204.805 312.500 C 204.802 312.885,204.620 313.200,204.400 313.200 C 204.180 313.200,204.000 313.650,204.000 314.200 C 204.000 314.750,203.820 315.200,203.600 315.200 C 203.380 315.200,203.200 315.560,203.200 316.000 C 203.200 316.440,203.020 316.800,202.800 316.800 C 202.580 316.800,202.400 317.250,202.400 317.800 C 202.400 318.422,202.173 318.800,201.800 318.800 C 201.467 318.800,201.200 319.156,201.200 319.600 C 201.200 320.040,201.020 320.400,200.800 320.400 C 200.580 320.400,200.400 320.850,200.400 321.400 C 200.400 321.950,200.220 322.400,200.000 322.400 C 199.780 322.400,199.600 322.749,199.600 323.176 C 199.600 323.603,199.420 324.064,199.200 324.200 C 198.980 324.336,198.800 324.775,198.800 325.175 C 198.800 325.575,198.530 326.126,198.200 326.400 C 197.870 326.674,197.600 327.236,197.600 327.649 C 197.600 328.062,197.420 328.400,197.200 328.400 C 196.980 328.400,196.800 328.760,196.800 329.200 C 196.800 329.640,196.620 330.000,196.400 330.000 C 196.180 330.000,196.000 330.450,196.000 331.000 C 196.000 331.550,195.820 332.000,195.600 332.000 C 195.380 332.000,195.200 332.360,195.200 332.800 C 195.200 333.240,195.020 333.600,194.800 333.600 C 194.580 333.600,194.400 334.050,194.400 334.600 C 194.400 335.222,194.173 335.600,193.800 335.600 C 193.427 335.600,193.200 335.222,193.200 334.600 C 193.200 334.050,193.064 333.600,192.897 333.600 C 192.566 333.600,191.600 330.776,191.600 329.806 C 191.600 329.473,191.420 329.200,191.200 329.200 C 190.980 329.200,190.800 328.853,190.800 328.429 C 190.800 328.004,190.530 327.387,190.200 327.057 C 189.870 326.727,189.600 326.084,189.600 325.629 C 189.600 325.173,189.420 324.800,189.200 324.800 C 188.980 324.800,188.800 324.260,188.800 323.600 C 188.800 322.940,188.620 322.400,188.400 322.400 C 188.180 322.400,188.000 321.950,188.000 321.400 C 188.000 320.850,187.820 320.400,187.600 320.400 C 187.380 320.400,187.200 319.978,187.200 319.461 C 187.200 318.452,186.188 316.164,185.575 315.784 C 185.369 315.657,185.200 315.023,185.200 314.376 C 185.200 313.729,185.064 313.200,184.897 313.200 C 184.566 313.200,183.600 310.376,183.600 309.406 C 183.600 309.073,183.420 308.800,183.200 308.800 C 182.980 308.800,182.800 308.453,182.800 308.029 C 182.800 307.604,182.530 306.987,182.200 306.657 C 181.870 306.327,181.600 305.684,181.600 305.229 C 181.600 304.773,181.420 304.400,181.200 304.400 C 180.980 304.400,180.800 303.871,180.800 303.224 C 180.800 302.577,180.620 301.936,180.400 301.800 C 180.180 301.664,180.000 301.203,180.000 300.776 C 180.000 300.349,179.820 300.000,179.600 300.000 C 179.380 300.000,179.200 299.578,179.200 299.061 C 179.200 298.052,178.188 295.764,177.575 295.384 C 177.369 295.257,177.200 294.623,177.200 293.976 C 177.200 293.329,177.064 292.800,176.897 292.800 C 176.566 292.800,175.600 289.976,175.600 289.006 C 175.600 288.673,175.420 288.400,175.200 288.400 C 174.980 288.400,174.800 288.053,174.800 287.629 C 174.800 287.204,174.530 286.587,174.200 286.257 C 173.870 285.927,173.600 285.284,173.600 284.829 C 173.600 284.373,173.420 284.000,173.200 284.000 C 172.980 284.000,172.800 283.471,172.800 282.824 C 172.800 282.177,172.620 281.536,172.400 281.400 C 172.180 281.264,172.000 280.803,172.000 280.376 C 172.000 279.949,171.820 279.600,171.600 279.600 C 171.380 279.600,171.200 279.178,171.200 278.661 C 171.200 277.652,170.188 275.364,169.575 274.984 C 169.369 274.857,169.200 274.223,169.200 273.576 C 169.200 272.929,169.020 272.400,168.800 272.400 C 168.580 272.400,168.400 271.961,168.400 271.424 C 168.400 270.887,168.220 270.336,168.000 270.200 C 167.780 270.064,167.600 269.513,167.600 268.976 C 167.600 268.439,167.420 268.000,167.200 268.000 C 166.980 268.000,166.800 267.674,166.800 267.276 C 166.800 266.879,166.536 266.204,166.213 265.776 C 165.890 265.349,165.620 264.685,165.613 264.300 C 165.606 263.915,165.420 263.600,165.200 263.600 C 164.980 263.600,164.800 263.071,164.800 262.424 C 164.800 261.777,164.620 261.136,164.400 261.000 C 164.180 260.864,164.000 260.403,164.000 259.976 C 164.000 259.549,163.820 259.200,163.600 259.200 C 163.380 259.200,163.200 258.778,163.200 258.261 C 163.200 257.252,162.188 254.964,161.575 254.584 C 161.369 254.457,161.200 253.823,161.200 253.176 C 161.200 252.529,161.020 252.000,160.800 252.000 C 160.580 252.000,160.400 251.561,160.400 251.024 C 160.400 250.487,160.220 249.936,160.000 249.800 C 159.780 249.664,159.600 249.113,159.600 248.576 C 159.600 248.039,159.420 247.600,159.200 247.600 C 158.980 247.600,158.800 247.172,158.800 246.649 C 158.800 246.126,158.530 245.474,158.200 245.200 C 157.870 244.926,157.600 244.364,157.600 243.951 C 157.600 243.538,157.420 243.200,157.200 243.200 C 156.980 243.200,156.800 242.570,156.800 241.800 C 156.800 241.030,156.620 240.400,156.400 240.400 C 156.180 240.400,156.000 240.040,156.000 239.600 C 156.000 239.160,155.820 238.800,155.600 238.800 C 155.380 238.800,155.200 238.410,155.200 237.934 C 155.200 236.882,153.972 234.000,153.523 234.000 C 153.345 234.000,153.200 233.460,153.200 232.800 C 153.200 232.140,153.020 231.600,152.800 231.600 C 152.580 231.600,152.400 231.161,152.400 230.624 C 152.400 230.087,152.220 229.536,152.000 229.400 C 151.780 229.264,151.600 228.713,151.600 228.176 C 151.600 227.639,151.420 227.200,151.200 227.200 C 150.980 227.200,150.800 226.763,150.800 226.229 C 150.800 225.694,150.530 224.987,150.200 224.657 C 149.870 224.327,149.600 223.774,149.600 223.429 C 149.600 223.083,149.420 222.800,149.200 222.800 C 148.980 222.800,148.800 222.170,148.800 221.400 C 148.800 220.630,148.620 220.000,148.400 220.000 C 148.180 220.000,148.000 219.651,148.000 219.224 C 148.000 218.797,147.820 218.336,147.600 218.200 C 147.380 218.064,147.200 217.613,147.200 217.198 C 147.200 216.782,146.750 215.596,146.200 214.562 C 145.650 213.527,145.200 212.348,145.200 211.940 C 145.200 211.533,145.020 211.200,144.800 211.200 C 144.580 211.200,144.400 210.660,144.400 210.000 C 144.400 209.340,144.220 208.800,144.000 208.800 C 143.780 208.800,143.600 208.350,143.600 207.800 C 143.600 207.250,143.420 206.800,143.200 206.800 C 142.980 206.800,142.800 206.363,142.800 205.829 C 142.800 205.294,142.530 204.587,142.200 204.257 C 141.870 203.927,141.600 203.385,141.600 203.052 C 141.600 202.719,141.420 202.336,141.200 202.200 C 140.980 202.064,140.800 201.423,140.800 200.776 C 140.800 200.129,140.620 199.600,140.400 199.600 C 140.180 199.600,140.000 199.150,140.000 198.600 C 140.000 198.050,139.820 197.600,139.600 197.600 C 139.380 197.600,139.200 197.161,139.200 196.624 C 139.200 196.087,139.020 195.536,138.800 195.400 C 138.580 195.264,138.400 194.825,138.400 194.425 C 138.400 194.025,138.130 193.474,137.800 193.200 C 137.470 192.926,137.200 192.274,137.200 191.751 C 137.200 191.228,137.020 190.800,136.800 190.800 C 136.580 190.800,136.400 190.271,136.400 189.624 C 136.400 188.977,136.220 188.336,136.000 188.200 C 135.780 188.064,135.600 187.603,135.600 187.176 C 135.600 186.749,135.420 186.400,135.200 186.400 C 134.980 186.400,134.800 185.963,134.800 185.429 C 134.800 184.894,134.530 184.187,134.200 183.857 C 133.870 183.527,133.600 182.884,133.600 182.429 C 133.600 181.973,133.420 181.600,133.200 181.600 C 132.980 181.600,132.800 181.060,132.800 180.400 C 132.800 179.740,132.620 179.200,132.400 179.200 C 132.180 179.200,132.000 178.750,132.000 178.200 C 132.000 177.650,131.820 177.200,131.600 177.200 C 131.380 177.200,131.200 176.660,131.200 176.000 C 131.200 175.340,131.020 174.800,130.800 174.800 C 130.580 174.800,130.400 174.462,130.400 174.049 C 130.400 173.636,130.130 173.074,129.800 172.800 C 129.470 172.526,129.200 171.874,129.200 171.351 C 129.200 170.828,129.020 170.400,128.800 170.400 C 128.580 170.400,128.400 169.948,128.400 169.395 C 128.400 168.842,128.241 168.077,128.047 167.695 C 127.476 166.572,126.869 165.066,126.598 164.100 C 126.460 163.605,126.178 163.200,125.973 163.200 C 125.768 163.200,125.600 162.750,125.600 162.200 C 125.600 161.650,125.420 161.200,125.200 161.200 C 124.980 161.200,124.800 160.660,124.800 160.000 C 124.800 159.340,124.620 158.800,124.400 158.800 C 124.180 158.800,124.000 158.350,124.000 157.800 C 124.000 157.250,123.820 156.800,123.600 156.800 C 123.380 156.800,123.200 156.260,123.200 155.600 C 123.200 154.940,123.020 154.400,122.800 154.400 C 122.580 154.400,122.400 154.062,122.400 153.649 C 122.400 153.236,122.130 152.674,121.800 152.400 C 121.470 152.126,121.200 151.485,121.200 150.975 C 121.200 150.465,121.020 149.936,120.800 149.800 C 120.580 149.664,120.400 149.201,120.400 148.771 C 120.400 148.341,120.241 147.677,120.047 147.295 C 119.476 146.172,118.869 144.666,118.598 143.700 C 118.460 143.205,118.178 142.800,117.973 142.800 C 117.768 142.800,117.600 142.350,117.600 141.800 C 117.600 141.250,117.420 140.800,117.200 140.800 C 116.980 140.800,116.800 140.260,116.800 139.600 C 116.800 138.940,116.620 138.400,116.400 138.400 C 116.180 138.400,116.000 137.950,116.000 137.400 C 116.000 136.850,115.820 136.400,115.600 136.400 C 115.380 136.400,115.200 135.860,115.200 135.200 C 115.200 134.540,115.020 134.000,114.800 134.000 C 114.580 134.000,114.400 133.662,114.400 133.249 C 114.400 132.836,114.130 132.274,113.800 132.000 C 113.470 131.726,113.200 130.984,113.200 130.351 C 113.200 129.718,113.020 129.200,112.800 129.200 C 112.580 129.200,112.400 128.838,112.400 128.395 C 112.400 127.952,112.241 127.277,112.047 126.895 C 111.476 125.772,110.869 124.266,110.598 123.300 C 110.460 122.805,110.178 122.400,109.973 122.400 C 109.768 122.400,109.600 121.950,109.600 121.400 C 109.600 120.850,109.420 120.400,109.200 120.400 C 108.980 120.400,108.800 119.860,108.800 119.200 C 108.800 118.540,108.620 118.000,108.400 118.000 C 108.180 118.000,108.000 117.550,108.000 117.000 C 108.000 116.450,107.820 116.000,107.600 116.000 C 107.380 116.000,107.200 115.578,107.200 115.061 C 107.200 114.052,106.188 111.764,105.575 111.384 C 105.369 111.257,105.200 110.623,105.200 109.976 C 105.200 109.329,105.020 108.800,104.800 108.800 C 104.580 108.800,104.400 108.361,104.400 107.824 C 104.400 107.287,104.220 106.736,104.000 106.600 C 103.780 106.464,103.600 105.913,103.600 105.376 C 103.600 104.839,103.420 104.400,103.200 104.400 C 102.980 104.400,102.800 104.053,102.800 103.629 C 102.800 103.204,102.530 102.587,102.200 102.257 C 101.870 101.927,101.600 101.284,101.600 100.829 C 101.600 100.373,101.420 100.000,101.200 100.000 C 100.980 100.000,100.800 99.471,100.800 98.824 C 100.800 98.177,100.620 97.536,100.400 97.400 C 100.180 97.264,100.000 96.803,100.000 96.376 C 100.000 95.949,99.820 95.600,99.600 95.600 C 99.380 95.600,99.200 95.178,99.200 94.661 C 99.200 93.652,98.188 91.364,97.575 90.984 C 97.369 90.857,97.200 90.223,97.200 89.576 C 97.200 88.929,97.020 88.400,96.800 88.400 C 96.580 88.400,96.400 87.961,96.400 87.424 C 96.400 86.887,96.220 86.336,96.000 86.200 C 95.780 86.064,95.600 85.513,95.600 84.976 C 95.600 84.439,95.420 84.000,95.200 84.000 C 94.980 84.000,94.800 83.653,94.800 83.229 C 94.800 82.804,94.530 82.187,94.200 81.857 C 93.870 81.527,93.600 80.884,93.600 80.429 C 93.600 79.973,93.420 79.600,93.200 79.600 C 92.980 79.600,92.800 79.071,92.800 78.424 C 92.800 77.777,92.620 77.136,92.400 77.000 C 92.180 76.864,92.000 76.403,92.000 75.976 C 92.000 75.549,91.820 75.200,91.600 75.200 C 91.380 75.200,91.200 74.778,91.200 74.261 C 91.200 73.252,90.188 70.964,89.575 70.584 C 89.369 70.457,89.200 69.823,89.200 69.176 C 89.200 68.529,89.020 68.000,88.800 68.000 C 88.580 68.000,88.400 67.561,88.400 67.024 C 88.400 66.487,88.220 65.936,88.000 65.800 C 87.780 65.664,87.600 65.113,87.600 64.576 C 87.600 64.039,87.420 63.600,87.200 63.600 C 86.980 63.600,86.800 63.274,86.800 62.876 C 86.800 62.479,86.536 61.804,86.213 61.376 C 85.890 60.949,85.620 60.285,85.613 59.900 C 85.606 59.515,85.420 59.200,85.200 59.200 C 84.980 59.200,84.800 58.570,84.800 57.800 C 84.800 57.030,84.620 56.400,84.400 56.400 C 84.180 56.400,84.000 56.040,84.000 55.600 C 84.000 55.160,83.820 54.800,83.600 54.800 C 83.380 54.800,83.200 54.378,83.200 53.861 C 83.200 52.852,82.188 50.564,81.575 50.184 C 81.369 50.057,81.200 49.423,81.200 48.776 C 81.200 48.129,81.020 47.600,80.800 47.600 C 80.580 47.600,80.400 47.161,80.400 46.624 C 80.400 46.087,80.220 45.536,80.000 45.400 C 79.780 45.264,79.600 44.713,79.600 44.176 C 79.600 43.639,79.420 43.200,79.200 43.200 C 78.980 43.200,78.794 42.795,78.787 42.300 C 78.770 41.195,77.500 39.600,76.636 39.600 C 76.286 39.600,76.000 39.741,76.000 39.913 C 76.000 40.085,75.180 40.467,74.178 40.763 C 73.176 41.059,72.109 41.549,71.806 41.851 C 71.504 42.153,70.974 42.400,70.629 42.400 C 70.283 42.400,70.000 42.580,70.000 42.800 C 70.000 43.020,69.550 43.200,69.000 43.200 C 68.450 43.200,68.000 43.341,68.000 43.513 C 68.000 43.685,67.160 44.073,66.134 44.376 C 63.765 45.076,62.000 45.952,62.000 46.429 C 62.000 46.633,61.550 46.800,61.000 46.800 C 60.450 46.800,60.000 46.980,60.000 47.200 C 60.000 47.420,59.638 47.600,59.195 47.600 C 58.752 47.600,58.032 47.780,57.595 48.000 C 57.158 48.220,56.442 48.580,56.005 48.800 C 55.568 49.020,54.938 49.200,54.605 49.200 C 54.272 49.200,54.000 49.470,54.000 49.800 C 54.000 50.173,53.622 50.400,53.000 50.400 C 52.450 50.400,52.000 50.580,52.000 50.800 C 52.000 51.020,51.638 51.200,51.195 51.200 C 50.752 51.200,50.032 51.380,49.595 51.600 C 49.158 51.820,48.442 52.180,48.005 52.400 C 47.568 52.620,46.938 52.800,46.605 52.800 C 46.272 52.800,46.000 52.980,46.000 53.200 C 46.000 53.420,45.634 53.600,45.187 53.600 C 44.741 53.600,44.271 53.870,44.145 54.200 C 44.018 54.530,43.494 54.800,42.981 54.800 C 42.467 54.800,41.936 54.980,41.800 55.200 C 41.664 55.420,41.113 55.600,40.576 55.600 C 40.039 55.600,39.600 55.780,39.600 56.000 C 39.600 56.220,39.240 56.400,38.800 56.400 C 38.360 56.400,38.000 56.580,38.000 56.800 C 38.000 57.020,37.550 57.200,37.000 57.200 C 36.378 57.200,36.000 57.427,36.000 57.800 C 36.000 58.169,35.625 58.400,35.024 58.400 C 34.487 58.400,33.936 58.580,33.800 58.800 C 33.664 59.020,33.113 59.200,32.576 59.200 C 32.039 59.200,31.600 59.380,31.600 59.600 C 31.600 59.820,31.240 60.000,30.800 60.000 C 30.360 60.000,30.000 60.180,30.000 60.400 C 30.000 60.620,29.550 60.800,29.000 60.800 C 28.450 60.800,28.000 60.980,28.000 61.200 C 28.000 61.420,27.662 61.600,27.249 61.600 C 26.836 61.600,26.274 61.870,26.000 62.200 C 25.726 62.530,25.074 62.800,24.551 62.800 C 24.028 62.800,23.600 62.980,23.600 63.200 C 23.600 63.420,23.240 63.600,22.800 63.600 C 22.360 63.600,22.000 63.780,22.000 64.000 C 22.000 64.220,21.550 64.400,21.000 64.400 C 20.450 64.400,20.000 64.580,20.000 64.800 C 20.000 65.020,19.653 65.200,19.229 65.200 C 18.804 65.200,18.187 65.470,17.857 65.800 C 17.527 66.130,16.884 66.400,16.429 66.400 C 15.973 66.400,15.600 66.580,15.600 66.800 C 15.600 67.020,15.240 67.200,14.800 67.200 C 14.360 67.200,14.000 67.380,14.000 67.600 C 14.000 67.820,13.550 68.000,13.000 68.000 C 12.450 68.000,12.000 68.141,12.000 68.313 C 12.000 68.485,11.180 68.867,10.178 69.163 C 9.176 69.459,8.109 69.949,7.806 70.251 C 7.504 70.553,6.974 70.800,6.629 70.800 C 6.283 70.800,6.000 70.980,6.000 71.200 C 6.000 71.420,5.565 71.600,5.033 71.600 C 4.502 71.600,4.007 71.735,3.933 71.900 C 3.860 72.065,2.990 72.491,2.000 72.846 L 0.200 73.492 0.273 75.437 C 0.312 76.507,0.537 77.446,0.773 77.524 C 1.008 77.603,1.200 77.990,1.200 78.384 C 1.200 78.779,1.470 79.326,1.800 79.600 C 2.130 79.874,2.400 80.526,2.400 81.049 C 2.400 81.572,2.580 82.000,2.800 82.000 C 3.020 82.000,3.200 82.450,3.200 83.000 C 3.200 83.550,3.380 84.000,3.600 84.000 C 3.820 84.000,4.000 84.362,4.000 84.805 C 4.000 85.248,4.165 85.923,4.366 86.305 C 4.568 86.687,5.026 87.675,5.385 88.500 C 5.744 89.325,6.209 90.000,6.419 90.000 C 6.628 90.000,6.800 90.452,6.800 91.005 C 6.800 91.558,6.980 92.368,7.200 92.805 C 7.420 93.242,7.780 93.958,8.000 94.395 C 8.220 94.832,8.400 95.462,8.400 95.795 C 8.400 96.128,8.580 96.400,8.800 96.400 C 9.020 96.400,9.200 96.828,9.200 97.351 C 9.200 97.874,9.470 98.526,9.800 98.800 C 10.130 99.074,10.400 99.636,10.400 100.049 C 10.400 100.462,10.580 100.800,10.800 100.800 C 11.020 100.800,11.200 101.340,11.200 102.000 C 11.200 102.660,11.380 103.200,11.600 103.200 C 11.820 103.200,12.000 103.650,12.000 104.200 C 12.000 104.750,12.180 105.200,12.400 105.200 C 12.620 105.200,12.800 105.549,12.800 105.976 C 12.800 106.403,12.966 106.855,13.169 106.981 C 13.372 107.106,13.657 107.747,13.801 108.405 C 13.945 109.062,14.229 109.600,14.432 109.600 C 14.634 109.600,14.800 110.050,14.800 110.600 C 14.800 111.150,14.980 111.600,15.200 111.600 C 15.420 111.600,15.600 111.949,15.600 112.376 C 15.600 112.803,15.780 113.264,16.000 113.400 C 16.220 113.536,16.400 114.076,16.400 114.600 C 16.400 115.124,16.580 115.664,16.800 115.800 C 17.020 115.936,17.200 116.397,17.200 116.824 C 17.200 117.251,17.470 117.600,17.800 117.600 C 18.197 117.600,18.400 117.997,18.400 118.776 C 18.400 119.423,18.580 120.064,18.800 120.200 C 19.020 120.336,19.200 120.797,19.200 121.224 C 19.200 121.651,19.380 122.000,19.600 122.000 C 19.820 122.000,20.000 122.450,20.000 123.000 C 20.000 123.550,20.180 124.000,20.400 124.000 C 20.620 124.000,20.800 124.300,20.800 124.666 C 20.800 125.564,22.073 128.400,22.477 128.400 C 22.655 128.400,22.800 128.839,22.800 129.376 C 22.800 129.913,22.980 130.464,23.200 130.600 C 23.420 130.736,23.600 131.287,23.600 131.824 C 23.600 132.361,23.780 132.800,24.000 132.800 C 24.220 132.800,24.400 133.149,24.400 133.576 C 24.400 134.003,24.580 134.464,24.800 134.600 C 25.020 134.736,25.200 135.184,25.200 135.595 C 25.200 136.006,25.470 136.613,25.800 136.943 C 26.130 137.273,26.400 137.815,26.400 138.148 C 26.400 138.481,26.580 138.864,26.800 139.000 C 27.020 139.136,27.200 139.597,27.200 140.024 C 27.200 140.451,27.380 140.800,27.600 140.800 C 27.820 140.800,28.000 141.329,28.000 141.976 C 28.000 142.623,28.180 143.264,28.400 143.400 C 28.620 143.536,28.800 143.997,28.800 144.424 C 28.800 144.851,28.966 145.200,29.168 145.200 C 29.371 145.200,29.655 145.740,29.800 146.400 C 29.945 147.060,30.229 147.600,30.432 147.600 C 30.634 147.600,30.800 148.050,30.800 148.600 C 30.800 149.150,30.980 149.600,31.200 149.600 C 31.420 149.600,31.600 150.050,31.600 150.600 C 31.600 151.150,31.780 151.600,32.000 151.600 C 32.220 151.600,32.400 152.039,32.400 152.576 C 32.400 153.113,32.580 153.664,32.800 153.800 C 33.020 153.936,33.200 154.402,33.200 154.836 C 33.200 155.270,33.470 155.729,33.800 155.855 C 34.130 155.982,34.400 156.426,34.400 156.843 C 34.400 157.259,34.580 157.600,34.800 157.600 C 35.020 157.600,35.200 158.230,35.200 159.000 C 35.200 159.770,35.380 160.400,35.600 160.400 C 35.820 160.400,36.000 160.760,36.000 161.200 C 36.000 161.640,36.180 162.000,36.400 162.000 C 36.620 162.000,36.800 162.300,36.800 162.666 C 36.800 163.564,38.073 166.400,38.477 166.400 C 38.655 166.400,38.800 166.670,38.800 167.000 C 38.800 167.330,39.083 167.600,39.429 167.600 C 40.147 167.600,41.200 166.666,41.200 166.029 C 41.200 165.793,41.650 165.600,42.200 165.600 C 42.750 165.600,43.200 165.420,43.200 165.200 C 43.200 164.974,44.333 164.800,45.800 164.800 C 47.267 164.800,48.400 164.974,48.400 165.200 C 48.400 165.420,48.850 165.600,49.400 165.600 C 49.950 165.600,50.400 165.830,50.400 166.112 C 50.400 166.393,50.760 166.883,51.200 167.200 C 51.640 167.517,52.000 168.097,52.000 168.488 C 52.000 168.880,52.180 169.200,52.400 169.200 C 52.620 169.200,52.800 170.190,52.800 171.400 C 52.800 172.610,52.980 173.600,53.200 173.600 C 53.420 173.600,53.600 174.230,53.600 175.000 C 53.600 175.978,53.781 176.400,54.200 176.400 C 54.597 176.400,54.800 176.797,54.800 177.576 C 54.800 178.223,54.980 178.864,55.200 179.000 C 55.420 179.136,55.600 179.597,55.600 180.024 C 55.600 180.451,55.780 180.800,56.000 180.800 C 56.220 180.800,56.400 181.430,56.400 182.200 C 56.400 182.970,56.580 183.600,56.800 183.600 C 57.020 183.600,57.200 183.960,57.200 184.400 C 57.200 184.840,57.393 185.200,57.629 185.200 C 58.271 185.200,59.200 186.255,59.200 186.985 C 59.200 187.338,59.785 188.241,60.500 188.992 C 62.217 190.794,62.800 191.512,62.800 191.823 C 62.800 191.964,63.340 192.583,64.000 193.200 C 64.660 193.817,65.200 194.519,65.200 194.760 C 65.200 195.002,65.610 195.200,66.112 195.200 C 66.613 195.200,67.283 195.560,67.600 196.000 C 67.917 196.440,68.497 196.800,68.888 196.800 C 69.280 196.800,69.600 196.980,69.600 197.200 C 69.600 197.420,69.793 197.600,70.029 197.600 C 70.264 197.600,70.727 197.870,71.057 198.200 C 71.387 198.530,72.004 198.800,72.429 198.800 C 72.853 198.800,73.200 198.980,73.200 199.200 C 73.200 199.420,73.568 199.600,74.018 199.600 C 74.468 199.600,75.278 200.042,75.818 200.582 C 76.358 201.122,76.800 201.932,76.800 202.382 C 76.800 202.832,76.980 203.200,77.200 203.200 C 77.426 203.200,77.600 204.333,77.600 205.800 C 77.600 207.267,77.426 208.400,77.200 208.400 C 76.980 208.400,76.800 208.760,76.800 209.200 C 76.800 209.640,76.620 210.000,76.400 210.000 C 76.180 210.000,76.000 210.193,76.000 210.429 C 76.000 211.134,74.914 212.000,74.029 212.000 C 73.573 212.000,73.200 212.180,73.200 212.400 C 73.200 212.620,72.660 212.800,72.000 212.800 C 71.340 212.800,70.800 212.980,70.800 213.200 C 70.800 213.420,70.530 213.600,70.200 213.600 C 69.870 213.600,69.600 213.870,69.600 214.200 C 69.600 214.533,69.244 214.800,68.800 214.800 C 68.360 214.800,68.000 214.980,68.000 215.200 C 68.000 215.420,67.640 215.600,67.200 215.600 C 66.760 215.600,66.400 215.780,66.400 216.000 C 66.400 216.220,66.212 216.400,65.982 216.400 C 65.536 216.400,63.600 218.196,63.600 218.610 C 63.600 219.039,62.477 220.000,61.976 220.000 C 61.370 220.000,61.745 223.315,62.374 223.525 C 62.608 223.603,62.800 224.014,62.800 224.439 C 62.800 224.863,62.980 225.568,63.200 226.005 C 63.420 226.442,63.780 227.158,64.000 227.595 C 64.220 228.032,64.400 228.662,64.400 228.995 C 64.400 229.328,64.580 229.600,64.800 229.600 C 65.020 229.600,65.200 230.028,65.200 230.551 C 65.200 231.074,65.470 231.726,65.800 232.000 C 66.130 232.274,66.400 232.836,66.400 233.249 C 66.400 233.662,66.580 234.000,66.800 234.000 C 67.020 234.000,67.200 234.450,67.200 235.000 C 67.200 235.550,67.380 236.000,67.600 236.000 C 67.820 236.000,68.000 236.540,68.000 237.200 C 68.000 237.860,68.180 238.400,68.400 238.400 C 68.620 238.400,68.800 238.660,68.800 238.979 C 68.800 239.297,69.250 240.404,69.800 241.438 C 70.350 242.473,70.800 243.652,70.800 244.060 C 70.800 244.467,70.980 244.800,71.200 244.800 C 71.420 244.800,71.600 245.160,71.600 245.600 C 71.600 246.040,71.780 246.400,72.000 246.400 C 72.220 246.400,72.400 246.702,72.400 247.072 C 72.400 248.136,73.347 250.569,73.898 250.920 C 74.174 251.096,74.400 251.591,74.400 252.020 C 74.400 252.449,74.580 252.800,74.800 252.800 C 75.020 252.800,75.200 253.329,75.200 253.976 C 75.200 254.623,75.380 255.264,75.600 255.400 C 75.820 255.536,76.000 255.997,76.000 256.424 C 76.000 256.851,76.180 257.200,76.400 257.200 C 76.620 257.200,76.800 257.464,76.800 257.786 C 76.800 258.510,78.089 261.351,78.500 261.533 C 78.665 261.607,78.800 262.102,78.800 262.633 C 78.800 263.165,78.980 263.600,79.200 263.600 C 79.420 263.600,79.600 263.962,79.600 264.405 C 79.600 264.848,79.780 265.568,80.000 266.005 C 80.220 266.442,80.580 267.158,80.800 267.595 C 81.020 268.032,81.200 268.642,81.200 268.952 C 81.200 269.261,81.470 269.618,81.800 269.745 C 82.151 269.879,82.400 270.479,82.400 271.187 C 82.400 271.854,82.580 272.400,82.800 272.400 C 83.020 272.400,83.200 272.760,83.200 273.200 C 83.200 273.640,83.380 274.000,83.600 274.000 C 83.820 274.000,84.000 274.439,84.000 274.976 C 84.000 275.513,84.180 276.064,84.400 276.200 C 84.620 276.336,84.800 276.887,84.800 277.424 C 84.800 277.961,84.960 278.400,85.157 278.400 C 85.353 278.400,85.626 278.850,85.764 279.400 C 85.902 279.950,86.192 280.400,86.408 280.400 C 86.623 280.400,86.800 280.940,86.800 281.600 C 86.800 282.260,86.980 282.800,87.200 282.800 C 87.420 282.800,87.600 283.250,87.600 283.800 C 87.600 284.350,87.780 284.800,88.000 284.800 C 88.220 284.800,88.400 285.149,88.400 285.576 C 88.400 286.003,88.580 286.464,88.800 286.600 C 89.020 286.736,89.200 287.184,89.200 287.595 C 89.200 288.006,89.470 288.613,89.800 288.943 C 90.130 289.273,90.400 289.815,90.400 290.148 C 90.400 290.481,90.580 290.864,90.800 291.000 C 91.020 291.136,91.200 291.599,91.200 292.029 C 91.200 292.459,91.380 293.168,91.600 293.605 C 91.820 294.042,92.180 294.758,92.400 295.195 C 92.620 295.632,92.800 296.262,92.800 296.595 C 92.800 296.928,92.980 297.200,93.200 297.200 C 93.420 297.200,93.600 297.526,93.600 297.924 C 93.600 298.321,93.864 298.996,94.187 299.424 C 94.510 299.851,94.780 300.515,94.787 300.900 C 94.794 301.285,94.980 301.600,95.200 301.600 C 95.420 301.600,95.600 302.050,95.600 302.600 C 95.600 303.150,95.780 303.600,96.000 303.600 C 96.220 303.600,96.400 304.140,96.400 304.800 C 96.400 305.460,96.580 306.000,96.800 306.000 C 97.020 306.000,97.200 306.366,97.200 306.813 C 97.200 307.259,97.470 307.729,97.800 307.855 C 98.142 307.987,98.400 308.583,98.400 309.243 C 98.400 309.879,98.580 310.400,98.800 310.400 C 99.020 310.400,99.200 310.850,99.200 311.400 C 99.200 311.950,99.380 312.400,99.600 312.400 C 99.820 312.400,100.000 312.760,100.000 313.200 C 100.000 313.640,100.180 314.000,100.400 314.000 C 100.620 314.000,100.800 314.354,100.800 314.786 C 100.800 315.753,102.026 318.400,102.474 318.400 C 102.653 318.400,102.800 318.839,102.800 319.376 C 102.800 319.913,102.980 320.464,103.200 320.600 C 103.420 320.736,103.600 321.287,103.600 321.824 C 103.600 322.361,103.780 322.800,104.000 322.800 C 104.220 322.800,104.400 323.250,104.400 323.800 C 104.400 324.350,104.580 324.800,104.800 324.800 C 105.020 324.800,105.200 325.147,105.200 325.571 C 105.200 325.996,105.470 326.613,105.800 326.943 C 106.130 327.273,106.400 327.916,106.400 328.371 C 106.400 328.827,106.580 329.200,106.800 329.200 C 107.020 329.200,107.200 329.549,107.200 329.976 C 107.200 330.403,107.380 330.864,107.600 331.000 C 107.820 331.136,108.000 331.599,108.000 332.029 C 108.000 332.459,108.160 333.123,108.355 333.505 C 108.550 333.887,109.196 335.280,109.791 336.600 C 110.385 337.920,111.035 339.313,111.236 339.695 C 111.436 340.077,111.600 340.662,111.600 340.995 C 111.600 341.328,111.780 341.600,112.000 341.600 C 112.220 341.600,112.400 342.039,112.400 342.576 C 112.400 343.113,112.580 343.664,112.800 343.800 C 113.020 343.936,113.200 344.402,113.200 344.836 C 113.200 345.270,113.470 345.729,113.800 345.855 C 114.130 345.982,114.400 346.516,114.400 347.043 C 114.400 347.569,114.580 348.000,114.800 348.000 C 115.020 348.000,115.200 348.540,115.200 349.200 C 115.200 349.860,115.380 350.400,115.600 350.400 C 115.820 350.400,116.000 350.850,116.000 351.400 C 116.000 351.950,116.180 352.400,116.400 352.400 C 116.620 352.400,116.800 352.749,116.800 353.176 C 116.800 353.603,116.966 354.055,117.169 354.181 C 117.372 354.306,117.657 354.947,117.801 355.605 C 117.945 356.262,118.229 356.800,118.432 356.800 C 118.634 356.800,118.800 357.160,118.800 357.600 C 118.800 358.040,118.980 358.400,119.200 358.400 C 119.420 358.400,119.600 358.929,119.600 359.576 C 119.600 360.223,119.780 360.864,120.000 361.000 C 120.220 361.136,120.400 361.597,120.400 362.024 C 120.400 362.451,120.580 362.800,120.800 362.800 C 121.020 362.800,121.200 363.231,121.200 363.757 C 121.200 364.284,121.470 364.818,121.800 364.945 C 122.130 365.071,122.400 365.631,122.400 366.187 C 122.400 366.744,122.580 367.200,122.800 367.200 C 123.020 367.200,123.200 367.650,123.200 368.200 C 123.200 368.750,123.380 369.200,123.600 369.200 C 123.820 369.200,124.000 369.562,124.000 370.005 C 124.000 370.448,124.169 371.123,124.376 371.505 C 124.583 371.887,125.068 372.965,125.453 373.900 C 125.839 374.835,126.299 375.600,126.477 375.600 C 126.655 375.600,126.800 376.140,126.800 376.800 C 126.800 377.460,126.980 378.000,127.200 378.000 C 127.420 378.000,127.600 378.450,127.600 379.000 C 127.600 379.550,127.780 380.000,128.000 380.000 C 128.220 380.000,128.400 380.360,128.400 380.800 C 128.400 381.240,128.580 381.600,128.800 381.600 C 129.020 381.600,129.200 382.037,129.200 382.571 C 129.200 383.106,129.470 383.813,129.800 384.143 C 130.130 384.473,130.400 385.026,130.400 385.371 C 130.400 385.717,130.580 386.000,130.800 386.000 C 131.020 386.000,131.200 386.540,131.200 387.200 C 131.200 387.860,131.380 388.400,131.600 388.400 C 131.820 388.400,132.000 388.850,132.000 389.400 C 132.000 389.950,132.180 390.400,132.400 390.400 C 132.620 390.400,132.800 390.850,132.800 391.400 C 132.800 391.950,132.966 392.400,133.168 392.400 C 133.371 392.400,133.655 392.940,133.800 393.600 C 133.945 394.260,134.229 394.800,134.432 394.800 C 134.634 394.800,134.800 395.250,134.800 395.800 C 134.800 396.350,134.980 396.800,135.200 396.800 C 135.420 396.800,135.600 397.149,135.600 397.576 C 135.600 398.003,135.780 398.464,136.000 398.600 C 136.220 398.736,136.400 399.276,136.400 399.800 C 136.400 400.324,136.580 400.864,136.800 401.000 C 137.020 401.136,137.200 401.597,137.200 402.024 C 137.200 402.451,137.470 402.800,137.800 402.800 C 138.197 402.800,138.400 403.197,138.400 403.976 C 138.400 404.623,138.580 405.264,138.800 405.400 C 139.020 405.536,139.200 405.997,139.200 406.424 C 139.200 406.851,139.380 407.200,139.600 407.200 C 139.820 407.200,140.000 407.650,140.000 408.200 C 140.000 408.750,140.180 409.200,140.400 409.200 C 140.620 409.200,140.800 409.500,140.800 409.866 C 140.800 410.764,142.073 413.600,142.477 413.600 C 142.655 413.600,142.800 414.050,142.800 414.600 C 142.800 415.150,142.980 415.600,143.200 415.600 C 143.420 415.600,143.600 416.140,143.600 416.800 C 143.600 417.460,143.780 418.000,144.000 418.000 C 144.220 418.000,144.400 418.349,144.400 418.776 C 144.400 419.203,144.580 419.664,144.800 419.800 C 145.020 419.936,145.200 420.384,145.200 420.795 C 145.200 421.206,145.470 421.813,145.800 422.143 C 146.130 422.473,146.400 423.116,146.400 423.571 C 146.400 424.027,146.580 424.400,146.800 424.400 C 147.020 424.400,147.200 424.760,147.200 425.200 C 147.200 425.640,147.380 426.000,147.600 426.000 C 147.820 426.000,148.000 426.529,148.000 427.176 C 148.000 427.823,148.180 428.464,148.400 428.600 C 148.620 428.736,148.800 429.197,148.800 429.624 C 148.800 430.051,148.980 430.400,149.200 430.400 C 149.420 430.400,149.600 430.747,149.600 431.171 C 149.600 431.596,149.870 432.213,150.200 432.543 C 150.530 432.873,150.800 433.516,150.800 433.971 C 150.800 434.427,150.980 434.800,151.200 434.800 C 151.420 434.800,151.600 435.250,151.600 435.800 C 151.600 436.350,151.780 436.800,152.000 436.800 C 152.220 436.800,152.400 437.239,152.400 437.776 C 152.400 438.313,152.580 438.864,152.800 439.000 C 153.020 439.136,153.200 439.602,153.200 440.036 C 153.200 440.470,153.470 440.929,153.800 441.055 C 154.130 441.182,154.400 441.626,154.400 442.043 C 154.400 442.459,154.580 442.800,154.800 442.800 C 155.020 442.800,155.200 443.430,155.200 444.200 C 155.200 444.970,155.380 445.600,155.600 445.600 C 155.820 445.600,156.000 445.960,156.000 446.400 C 156.000 446.840,156.180 447.200,156.400 447.200 C 156.620 447.200,156.800 447.550,156.800 447.979 C 156.800 448.407,157.250 449.604,157.800 450.638 C 158.350 451.673,158.800 452.762,158.800 453.060 C 158.800 453.357,158.980 453.600,159.200 453.600 C 159.420 453.600,159.600 454.140,159.600 454.800 C 159.600 455.460,159.780 456.000,160.000 456.000 C 160.220 456.000,160.400 456.450,160.400 457.000 C 160.400 457.550,160.580 458.000,160.800 458.000 C 161.020 458.000,161.200 458.338,161.200 458.751 C 161.200 459.164,161.470 459.726,161.800 460.000 C 162.130 460.274,162.400 460.926,162.400 461.449 C 162.400 461.972,162.580 462.400,162.800 462.400 C 163.020 462.400,163.200 462.850,163.200 463.400 C 163.200 463.950,163.380 464.400,163.600 464.400 C 163.820 464.400,164.000 464.762,164.000 465.205 C 164.000 465.648,164.165 466.323,164.366 466.705 C 164.568 467.087,165.026 468.075,165.385 468.900 C 165.744 469.725,166.209 470.400,166.419 470.400 C 166.628 470.400,166.800 470.929,166.800 471.576 C 166.800 472.223,166.980 472.864,167.200 473.000 C 167.420 473.136,167.600 473.597,167.600 474.024 C 167.600 474.451,167.780 474.800,168.000 474.800 C 168.220 474.800,168.400 475.250,168.400 475.800 C 168.400 476.350,168.580 476.800,168.800 476.800 C 169.020 476.800,169.200 477.256,169.200 477.813 C 169.200 478.369,169.470 478.929,169.800 479.055 C 170.130 479.182,170.400 479.716,170.400 480.243 C 170.400 480.769,170.580 481.200,170.800 481.200 C 171.020 481.200,171.200 481.639,171.200 482.176 C 171.200 482.713,171.380 483.264,171.600 483.400 C 171.820 483.536,172.000 483.997,172.000 484.424 C 172.000 485.732,174.463 485.489,175.100 484.117 C 175.375 483.525,175.600 482.806,175.600 482.520 C 175.600 482.234,175.780 482.000,176.000 482.000 C 176.220 482.000,176.400 481.651,176.400 481.224 C 176.400 480.797,176.580 480.336,176.800 480.200 C 177.020 480.064,177.200 479.603,177.200 479.176 C 177.200 478.749,177.366 478.400,177.568 478.400 C 177.771 478.400,178.055 477.860,178.200 477.200 C 178.345 476.540,178.629 476.000,178.832 476.000 C 179.034 476.000,179.200 475.550,179.200 475.000 C 179.200 474.450,179.380 474.000,179.600 474.000 C 179.820 474.000,180.000 473.640,180.000 473.200 C 180.000 472.760,180.180 472.400,180.400 472.400 C 180.620 472.400,180.800 471.950,180.800 471.400 C 180.800 470.850,180.980 470.400,181.200 470.400 C 181.420 470.400,181.600 470.062,181.600 469.649 C 181.600 469.236,181.870 468.674,182.200 468.400 C 182.530 468.126,182.800 467.474,182.800 466.951 C 182.800 466.428,182.980 466.000,183.200 466.000 C 183.420 466.000,183.600 465.640,183.600 465.200 C 183.600 464.760,183.780 464.400,184.000 464.400 C 184.220 464.400,184.400 463.950,184.400 463.400 C 184.400 462.850,184.580 462.400,184.800 462.400 C 185.020 462.400,185.200 462.040,185.200 461.600 C 185.200 461.160,185.366 460.800,185.568 460.800 C 185.771 460.800,186.055 460.262,186.199 459.605 C 186.343 458.947,186.628 458.306,186.831 458.181 C 187.034 458.055,187.200 457.603,187.200 457.176 C 187.200 456.749,187.380 456.400,187.600 456.400 C 187.820 456.400,188.000 455.950,188.000 455.400 C 188.000 454.850,188.180 454.400,188.400 454.400 C 188.620 454.400,188.800 454.040,188.800 453.600 C 188.800 453.160,188.980 452.800,189.200 452.800 C 189.420 452.800,189.600 452.427,189.600 451.971 C 189.600 451.516,189.870 450.873,190.200 450.543 C 190.530 450.213,190.800 449.596,190.800 449.171 C 190.800 448.747,190.980 448.400,191.200 448.400 C 191.420 448.400,191.600 447.950,191.600 447.400 C 191.600 446.850,191.780 446.400,192.000 446.400 C 192.220 446.400,192.400 446.040,192.400 445.600 C 192.400 445.160,192.580 444.800,192.800 444.800 C 193.020 444.800,193.200 444.440,193.200 444.000 C 193.200 443.560,193.020 443.200,192.800 443.200 C 192.580 443.200,192.400 443.012,192.400 442.782 C 192.400 442.336,190.604 440.400,190.190 440.400 C 189.742 440.400,188.800 439.267,188.799 438.729 C 188.798 438.438,188.259 437.840,187.600 437.400 C 186.941 436.960,186.402 436.465,186.401 436.300 C 186.401 436.135,185.950 436.000,185.400 436.000 C 184.850 436.000,184.400 435.807,184.400 435.571 C 184.400 434.894,183.328 434.000,182.517 434.000 C 182.110 434.000,181.517 433.640,181.200 433.200 C 180.861 432.730,180.165 432.400,179.512 432.400 C 178.900 432.400,178.400 432.220,178.400 432.000 C 178.400 431.780,177.950 431.600,177.400 431.600 C 176.778 431.600,176.400 431.373,176.400 431.000 C 176.400 430.581,175.978 430.400,175.000 430.400 C 174.230 430.400,173.600 430.220,173.600 430.000 C 173.600 429.780,173.322 429.600,172.982 429.600 C 172.090 429.600,170.400 427.779,170.400 426.818 C 170.400 426.358,170.138 426.000,169.800 426.000 C 169.320 426.000,169.200 425.400,169.200 423.000 C 169.200 420.600,169.320 420.000,169.800 420.000 C 170.138 420.000,170.400 419.642,170.400 419.182 C 170.400 418.221,172.090 416.400,172.982 416.400 C 173.322 416.400,173.600 416.220,173.600 416.000 C 173.600 415.780,174.037 415.600,174.571 415.600 C 175.106 415.600,175.813 415.330,176.143 415.000 C 176.473 414.670,177.026 414.400,177.371 414.400 C 177.717 414.400,178.000 414.220,178.000 414.000 C 178.000 413.780,178.450 413.600,179.000 413.600 C 179.550 413.600,180.000 413.420,180.000 413.200 C 180.000 412.980,180.360 412.800,180.800 412.800 C 181.240 412.800,181.600 412.620,181.600 412.400 C 181.600 412.180,181.876 412.000,182.213 412.000 C 182.549 412.000,182.929 411.730,183.055 411.400 C 183.182 411.070,183.497 410.800,183.754 410.800 C 184.012 410.800,184.483 410.440,184.800 410.000 C 185.117 409.560,185.607 409.200,185.888 409.200 C 186.170 409.200,186.400 409.020,186.400 408.800 C 186.400 408.580,186.683 408.400,187.029 408.400 C 187.652 408.400,188.800 407.493,188.800 407.000 C 188.800 406.672,189.864 405.600,190.190 405.600 C 190.604 405.600,192.400 403.664,192.400 403.218 C 192.400 402.988,192.580 402.800,192.800 402.800 C 193.020 402.800,193.200 402.440,193.200 402.000 C 193.200 401.560,193.388 401.200,193.618 401.200 C 194.301 401.200,195.999 399.294,196.009 398.518 C 196.013 398.123,196.643 397.262,197.409 396.604 C 198.372 395.776,198.800 395.068,198.800 394.304 C 198.800 393.697,198.980 393.200,199.200 393.200 C 199.420 393.200,199.600 392.840,199.600 392.400 C 199.600 391.960,199.780 391.600,200.000 391.600 C 200.220 391.600,200.400 391.330,200.400 391.000 C 200.400 390.670,200.580 390.400,200.800 390.400 C 201.020 390.400,201.200 389.969,201.200 389.443 C 201.200 388.916,201.470 388.382,201.800 388.255 C 202.130 388.129,202.400 387.569,202.400 387.013 C 202.400 386.456,202.580 386.000,202.800 386.000 C 203.020 386.000,203.200 385.460,203.200 384.800 C 203.200 384.140,203.380 383.600,203.600 383.600 C 203.820 383.600,204.000 383.071,204.000 382.424 C 204.000 381.777,204.180 381.136,204.400 381.000 C 204.620 380.864,204.800 380.403,204.800 379.976 C 204.800 379.549,204.980 379.200,205.200 379.200 C 205.422 379.200,205.600 378.133,205.600 376.800 C 205.600 374.933,205.733 374.400,206.200 374.400 C 206.597 374.400,206.800 374.003,206.800 373.224 C 206.800 372.577,206.980 371.936,207.200 371.800 C 207.420 371.664,207.600 370.393,207.600 368.976 C 207.600 367.525,207.775 366.400,208.000 366.400 C 208.220 366.400,208.400 366.124,208.400 365.787 C 208.400 365.133,210.122 363.329,211.536 362.500 C 212.557 361.902,218.400 361.816,218.400 362.400 C 218.400 362.620,218.729 362.800,219.130 362.800 C 219.993 362.800,221.395 364.228,221.781 365.500 C 221.931 365.995,222.222 366.400,222.427 366.400 C 222.632 366.400,222.800 367.570,222.800 369.000 C 222.800 370.430,222.969 371.600,223.175 371.600 C 223.381 371.600,223.606 372.184,223.675 372.897 C 223.818 374.376,225.200 375.069,225.200 373.662 C 225.200 372.817,226.394 370.291,226.900 370.067 C 227.065 369.993,227.200 369.588,227.200 369.167 C 227.200 368.745,227.380 368.400,227.600 368.400 C 227.820 368.400,228.000 367.950,228.000 367.400 C 228.000 366.850,228.180 366.400,228.400 366.400 C 228.620 366.400,228.800 366.051,228.800 365.624 C 228.800 365.197,228.980 364.736,229.200 364.600 C 229.420 364.464,229.600 363.908,229.600 363.364 C 229.600 362.820,229.870 362.271,230.200 362.145 C 230.530 362.018,230.800 361.574,230.800 361.157 C 230.800 360.741,230.980 360.400,231.200 360.400 C 231.420 360.400,231.600 359.950,231.600 359.400 C 231.600 358.850,231.780 358.400,232.000 358.400 C 232.220 358.400,232.400 358.040,232.400 357.600 C 232.400 357.160,232.580 356.800,232.800 356.800 C 233.020 356.800,233.200 356.455,233.200 356.032 C 233.200 355.210,234.403 352.688,234.900 352.467 C 235.065 352.393,235.200 351.898,235.200 351.367 C 235.200 350.835,235.380 350.400,235.600 350.400 C 235.820 350.400,236.000 350.040,236.000 349.600 C 236.000 349.160,236.180 348.800,236.400 348.800 C 236.620 348.800,236.800 348.350,236.800 347.800 C 236.800 347.250,236.980 346.800,237.200 346.800 C 237.420 346.800,237.600 346.369,237.600 345.843 C 237.600 345.316,237.870 344.782,238.200 344.655 C 238.530 344.529,238.800 343.969,238.800 343.413 C 238.800 342.856,238.980 342.400,239.200 342.400 C 239.420 342.400,239.600 342.040,239.600 341.600 C 239.600 341.160,239.780 340.800,240.000 340.800 C 240.220 340.800,240.400 340.350,240.400 339.800 C 240.400 339.250,240.580 338.800,240.800 338.800 C 241.020 338.800,241.200 338.455,241.200 338.033 C 241.200 337.612,241.335 337.207,241.500 337.133 C 241.911 336.951,243.200 334.110,243.200 333.386 C 243.200 333.064,243.380 332.800,243.600 332.800 C 243.820 332.800,244.000 332.350,244.000 331.800 C 244.000 331.250,244.180 330.800,244.400 330.800 C 244.620 330.800,244.800 330.440,244.800 330.000 C 244.800 329.560,244.980 329.200,245.200 329.200 C 245.420 329.200,245.600 328.851,245.600 328.424 C 245.600 327.997,245.775 327.539,245.989 327.407 C 246.203 327.274,246.669 326.499,247.023 325.683 C 247.377 324.867,247.832 323.887,248.034 323.505 C 248.235 323.123,248.400 322.448,248.400 322.005 C 248.400 321.562,248.580 321.200,248.800 321.200 C 249.020 321.200,249.200 320.840,249.200 320.400 C 249.200 319.960,249.377 319.600,249.592 319.600 C 249.808 319.600,250.098 319.150,250.236 318.600 C 250.374 318.050,250.647 317.600,250.843 317.600 C 251.040 317.600,251.200 317.251,251.200 316.824 C 251.200 316.397,251.380 315.936,251.600 315.800 C 251.820 315.664,252.000 315.203,252.000 314.776 C 252.000 314.349,252.180 314.000,252.400 314.000 C 252.620 314.000,252.800 313.550,252.800 313.000 C 252.800 312.450,252.980 312.000,253.200 312.000 C 253.420 312.000,253.600 311.544,253.600 310.987 C 253.600 310.431,253.870 309.871,254.200 309.745 C 254.530 309.618,254.800 309.174,254.800 308.757 C 254.800 308.341,254.980 308.000,255.200 308.000 C 255.420 308.000,255.600 307.550,255.600 307.000 C 255.600 306.450,255.780 306.000,256.000 306.000 C 256.220 306.000,256.400 305.640,256.400 305.200 C 256.400 304.760,256.580 304.400,256.800 304.400 C 257.020 304.400,257.200 303.950,257.200 303.400 C 257.200 302.850,257.345 302.400,257.523 302.400 C 257.701 302.400,258.161 301.635,258.547 300.700 C 258.932 299.765,259.417 298.687,259.624 298.305 C 259.831 297.923,260.000 297.338,260.000 297.005 C 260.000 296.672,260.180 296.400,260.400 296.400 C 260.620 296.400,260.800 295.950,260.800 295.400 C 260.800 294.850,260.980 294.400,261.200 294.400 C 261.420 294.400,261.600 294.059,261.600 293.643 C 261.600 293.226,261.870 292.782,262.200 292.655 C 262.530 292.529,262.800 292.059,262.800 291.613 C 262.800 291.166,262.980 290.800,263.200 290.800 C 263.420 290.800,263.600 290.451,263.600 290.024 C 263.600 289.597,263.780 289.136,264.000 289.000 C 264.220 288.864,264.400 288.403,264.400 287.976 C 264.400 287.549,264.580 287.200,264.800 287.200 C 265.020 287.200,265.200 286.660,265.200 286.000 C 265.200 285.340,265.367 284.800,265.571 284.800 C 265.998 284.800,267.200 282.541,267.200 281.739 C 267.200 281.442,267.380 281.200,267.600 281.200 C 267.820 281.200,268.000 280.851,268.000 280.424 C 268.000 279.997,268.180 279.536,268.400 279.400 C 268.620 279.264,268.800 278.803,268.800 278.376 C 268.800 277.949,268.980 277.600,269.200 277.600 C 269.420 277.600,269.600 277.227,269.600 276.771 C 269.600 276.316,269.870 275.673,270.200 275.343 C 270.530 275.013,270.800 274.396,270.800 273.971 C 270.800 273.547,270.980 273.200,271.200 273.200 C 271.420 273.200,271.600 272.840,271.600 272.400 C 271.600 271.960,271.780 271.600,272.000 271.600 C 272.220 271.600,272.400 271.150,272.400 270.600 C 272.400 270.050,272.580 269.600,272.800 269.600 C 273.020 269.600,273.200 269.240,273.200 268.800 C 273.200 268.360,273.360 268.000,273.557 268.000 C 273.753 268.000,274.026 267.550,274.164 267.000 C 274.302 266.450,274.592 266.000,274.808 266.000 C 275.023 266.000,275.200 265.728,275.200 265.395 C 275.200 265.062,275.359 264.477,275.553 264.095 C 275.748 263.713,276.129 262.860,276.400 262.200 C 276.671 261.540,277.052 260.687,277.247 260.305 C 277.441 259.923,277.600 259.248,277.600 258.805 C 277.600 258.356,277.865 258.000,278.200 258.000 C 278.533 258.000,278.800 257.644,278.800 257.200 C 278.800 256.760,278.980 256.400,279.200 256.400 C 279.420 256.400,279.600 255.950,279.600 255.400 C 279.600 254.850,279.780 254.400,280.000 254.400 C 280.220 254.400,280.400 254.040,280.400 253.600 C 280.400 253.160,280.580 252.800,280.800 252.800 C 281.020 252.800,281.200 252.365,281.200 251.833 C 281.200 251.302,281.335 250.807,281.500 250.733 C 281.997 250.512,283.200 247.990,283.200 247.168 C 283.200 246.745,283.380 246.400,283.600 246.400 C 283.820 246.400,284.000 246.040,284.000 245.600 C 284.000 245.160,284.180 244.800,284.400 244.800 C 284.620 244.800,284.800 244.451,284.800 244.024 C 284.800 243.597,284.980 243.136,285.200 243.000 C 285.420 242.864,285.600 242.403,285.600 241.976 C 285.600 241.549,285.772 241.200,285.981 241.200 C 286.326 241.200,286.929 240.054,288.087 237.200 C 288.311 236.650,288.652 235.887,288.847 235.505 C 289.041 235.123,289.200 234.448,289.200 234.005 C 289.200 233.562,289.367 233.200,289.571 233.200 C 289.998 233.200,291.200 230.941,291.200 230.139 C 291.200 229.842,291.380 229.600,291.600 229.600 C 291.820 229.600,292.000 229.240,292.000 228.800 C 292.000 228.360,292.180 228.000,292.400 228.000 C 292.620 228.000,292.800 227.550,292.800 227.000 C 292.800 226.450,292.980 226.000,293.200 226.000 C 293.420 226.000,293.600 225.655,293.600 225.233 C 293.600 224.812,293.746 224.407,293.924 224.333 C 294.404 224.136,296.400 219.954,296.400 219.145 C 296.400 218.761,296.580 218.336,296.800 218.200 C 297.020 218.064,297.200 217.623,297.200 217.219 C 297.200 216.816,297.470 216.382,297.800 216.255 C 298.130 216.129,298.400 215.659,298.400 215.213 C 298.400 214.766,298.580 214.400,298.800 214.400 C 299.020 214.400,299.200 214.040,299.200 213.600 C 299.200 213.160,299.380 212.800,299.600 212.800 C 299.820 212.800,300.000 212.451,300.000 212.024 C 300.000 211.597,300.180 211.136,300.400 211.000 C 300.620 210.864,300.800 210.403,300.800 209.976 C 300.800 209.549,300.980 209.200,301.200 209.200 C 301.420 209.200,301.600 208.859,301.600 208.443 C 301.600 208.026,301.870 207.582,302.200 207.455 C 302.530 207.329,302.800 206.859,302.800 206.413 C 302.800 205.966,302.980 205.600,303.200 205.600 C 303.420 205.600,303.600 205.240,303.600 204.800 C 303.600 204.360,303.780 204.000,304.000 204.000 C 304.220 204.000,304.400 203.550,304.400 203.000 C 304.400 202.450,304.580 202.000,304.800 202.000 C 305.020 202.000,305.200 201.757,305.200 201.460 C 305.200 201.162,305.650 200.073,306.200 199.038 C 306.750 198.004,307.200 196.897,307.200 196.579 C 307.200 196.260,307.380 196.000,307.600 196.000 C 307.820 196.000,308.000 195.550,308.000 195.000 C 308.000 194.450,308.180 194.000,308.400 194.000 C 308.620 194.000,308.800 193.640,308.800 193.200 C 308.800 192.760,308.980 192.400,309.200 192.400 C 309.420 192.400,309.600 192.027,309.600 191.571 C 309.600 191.116,309.870 190.473,310.200 190.143 C 310.530 189.813,310.800 189.196,310.800 188.771 C 310.800 188.347,310.980 188.000,311.200 188.000 C 311.420 188.000,311.600 187.550,311.600 187.000 C 311.600 186.450,311.780 186.000,312.000 186.000 C 312.220 186.000,312.400 185.651,312.400 185.224 C 312.400 184.797,312.580 184.336,312.800 184.200 C 313.020 184.064,313.200 183.423,313.200 182.776 C 313.200 182.129,313.367 181.600,313.571 181.600 C 314.097 181.600,315.200 179.256,315.200 178.139 C 315.200 177.622,315.380 177.200,315.600 177.200 C 315.820 177.200,316.000 176.851,316.000 176.424 C 316.000 175.997,316.180 175.536,316.400 175.400 C 316.620 175.264,316.800 174.623,316.800 173.976 C 316.800 173.329,316.980 172.800,317.200 172.800 C 317.420 172.800,317.600 172.427,317.600 171.971 C 317.600 171.516,317.870 170.873,318.200 170.543 C 318.530 170.213,318.800 169.596,318.800 169.171 C 318.800 168.747,318.980 168.400,319.200 168.400 C 319.420 168.400,319.600 167.770,319.600 167.000 C 319.600 166.230,319.780 165.600,320.000 165.600 C 320.220 165.600,320.400 165.161,320.400 164.624 C 320.400 164.087,320.580 163.536,320.800 163.400 C 321.020 163.264,321.200 162.713,321.200 162.176 C 321.200 161.639,321.372 161.200,321.582 161.200 C 321.792 161.200,322.082 160.570,322.226 159.800 C 322.371 159.030,322.649 158.400,322.845 158.400 C 323.040 158.400,323.200 157.871,323.200 157.224 C 323.200 156.577,323.380 155.936,323.600 155.800 C 323.820 155.664,324.000 155.023,324.000 154.376 C 324.000 153.729,324.180 153.200,324.400 153.200 C 324.620 153.200,324.800 152.491,324.800 151.624 C 324.800 150.757,324.980 149.936,325.200 149.800 C 325.420 149.664,325.600 149.011,325.600 148.348 C 325.600 147.685,325.870 146.873,326.200 146.543 C 326.530 146.213,326.800 145.336,326.800 144.595 C 326.800 143.854,326.980 143.136,327.200 143.000 C 327.420 142.864,327.600 141.964,327.600 141.000 C 327.600 140.036,327.780 139.136,328.000 139.000 C 328.220 138.864,328.400 137.773,328.400 136.576 C 328.400 135.379,328.580 134.400,328.800 134.400 C 329.024 134.400,329.200 133.293,329.200 131.880 C 329.200 130.494,329.408 129.152,329.662 128.898 C 331.354 127.206,331.357 91.052,329.665 90.488 C 329.389 90.396,329.200 89.464,329.200 88.190 C 329.200 87.012,329.020 85.936,328.800 85.800 C 328.580 85.664,328.400 84.663,328.400 83.576 C 328.400 82.489,328.220 81.600,328.000 81.600 C 327.780 81.600,327.600 80.981,327.600 80.224 C 327.600 79.467,327.420 78.736,327.200 78.600 C 326.980 78.464,326.800 77.836,326.800 77.205 C 326.800 76.574,326.530 75.787,326.200 75.457 C 325.870 75.127,325.600 74.304,325.600 73.629 C 325.600 72.953,325.420 72.400,325.200 72.400 C 324.980 72.400,324.800 71.860,324.800 71.200 C 324.800 70.540,324.620 70.000,324.400 70.000 C 324.180 70.000,324.000 69.471,324.000 68.824 C 324.000 68.177,323.820 67.536,323.600 67.400 C 323.380 67.264,323.200 66.864,323.200 66.511 C 323.200 65.630,321.921 62.800,321.523 62.800 C 321.345 62.800,321.200 62.350,321.200 61.800 C 321.200 61.250,321.020 60.800,320.800 60.800 C 320.580 60.800,320.400 60.260,320.400 59.600 C 320.400 58.940,320.220 58.400,320.000 58.400 C 319.780 58.400,319.600 58.158,319.600 57.861 C 319.600 57.059,318.398 54.800,317.971 54.800 C 317.767 54.800,317.600 54.350,317.600 53.800 C 317.600 53.250,317.420 52.800,317.200 52.800 C 316.980 52.800,316.800 52.440,316.800 52.000 C 316.800 51.560,316.620 51.200,316.400 51.200 C 316.180 51.200,316.000 50.951,316.000 50.646 C 316.000 49.972,315.306 48.615,314.100 46.933 C 313.605 46.242,313.200 45.479,313.200 45.238 C 313.200 44.997,313.020 44.800,312.800 44.800 C 312.580 44.800,312.400 44.440,312.400 44.000 C 312.400 43.560,312.253 43.200,312.074 43.200 C 311.895 43.200,311.448 42.570,311.081 41.800 C 310.713 41.030,310.230 40.400,310.006 40.400 C 309.783 40.400,309.600 40.040,309.600 39.600 C 309.600 39.160,309.441 38.800,309.246 38.800 C 309.051 38.800,308.607 38.202,308.261 37.472 C 307.914 36.741,307.086 35.526,306.422 34.772 C 305.757 34.017,305.210 33.257,305.206 33.082 C 305.203 32.907,304.750 32.314,304.200 31.764 C 303.650 31.214,303.200 30.614,303.200 30.430 C 303.200 30.247,302.480 29.355,301.600 28.448 C 300.720 27.541,300.000 26.640,300.000 26.445 C 300.000 26.164,296.869 22.596,295.311 21.101 C 295.140 20.937,293.617 19.452,291.927 17.801 C 290.238 16.151,288.677 14.800,288.459 14.800 C 288.241 14.800,287.253 13.990,286.263 13.000 C 285.273 12.010,284.269 11.200,284.032 11.200 C 283.794 11.200,283.600 11.020,283.600 10.800 C 283.600 10.580,283.402 10.400,283.160 10.400 C 282.918 10.400,282.090 9.770,281.320 9.000 C 280.550 8.230,279.668 7.600,279.360 7.600 C 279.052 7.600,278.800 7.420,278.800 7.200 C 278.800 6.980,278.612 6.800,278.383 6.800 C 278.154 6.800,277.749 6.616,277.483 6.392 C 275.201 4.466,274.456 3.924,273.500 3.497 C 272.895 3.226,272.400 2.869,272.400 2.702 C 272.400 2.536,272.212 2.400,271.983 2.400 C 271.754 2.400,271.349 2.217,271.083 1.993 C 269.074 0.298,268.557 0.004,267.639 0.032 C 267.067 0.049,266.333 0.168,266.007 0.296 M44.800 172.000 C 44.800 172.440,44.620 172.800,44.400 172.800 C 44.180 172.800,44.000 173.790,44.000 175.000 C 44.000 176.210,43.820 177.200,43.600 177.200 C 43.380 177.200,43.200 177.470,43.200 177.800 C 43.200 178.130,43.020 178.400,42.800 178.400 C 42.580 178.400,42.400 179.120,42.400 180.000 C 42.400 181.156,42.233 181.600,41.800 181.600 C 41.389 181.600,41.200 182.012,41.200 182.912 C 41.200 183.765,40.920 184.425,40.400 184.800 C 39.922 185.145,39.600 185.835,39.600 186.517 C 39.600 187.555,38.837 188.800,38.200 188.800 C 37.580 188.800,36.800 190.032,36.800 191.011 C 36.800 191.682,36.354 192.496,35.600 193.200 C 34.940 193.817,34.400 194.519,34.400 194.760 C 34.400 195.002,34.130 195.200,33.800 195.200 C 33.470 195.200,33.200 195.483,33.200 195.829 C 33.200 196.637,32.237 197.600,31.429 197.600 C 31.083 197.600,30.800 197.870,30.800 198.200 C 30.800 198.530,30.606 198.800,30.369 198.800 C 30.131 198.800,29.246 199.520,28.400 200.400 C 27.554 201.280,26.489 202.000,26.031 202.000 C 25.559 202.000,25.200 202.259,25.200 202.600 C 25.200 202.933,24.844 203.200,24.400 203.200 C 23.960 203.200,23.600 203.380,23.600 203.600 C 23.600 203.820,23.150 204.000,22.600 204.000 C 22.050 204.000,21.600 204.180,21.600 204.400 C 21.600 204.620,21.240 204.800,20.800 204.800 C 20.213 204.800,20.000 205.067,20.000 205.800 C 20.000 206.533,20.213 206.800,20.800 206.800 C 21.240 206.800,21.600 206.980,21.600 207.200 C 21.600 207.420,22.050 207.600,22.600 207.600 C 23.150 207.600,23.600 207.780,23.600 208.000 C 23.600 208.220,23.960 208.400,24.400 208.400 C 24.840 208.400,25.200 208.580,25.200 208.800 C 25.200 209.020,25.573 209.200,26.029 209.200 C 26.806 209.200,28.000 210.042,28.000 210.590 C 28.000 211.004,29.936 212.800,30.382 212.800 C 30.612 212.800,30.800 212.980,30.800 213.200 C 30.800 213.420,31.130 213.600,31.532 213.600 C 31.935 213.600,32.506 214.050,32.800 214.600 C 33.094 215.150,33.575 215.600,33.868 215.600 C 34.160 215.600,34.400 215.920,34.400 216.312 C 34.400 216.703,34.760 217.283,35.200 217.600 C 35.640 217.917,36.000 218.407,36.000 218.688 C 36.000 218.970,36.180 219.200,36.400 219.200 C 36.620 219.200,36.800 219.483,36.800 219.829 C 36.800 220.547,37.734 221.600,38.371 221.600 C 38.607 221.600,38.800 222.050,38.800 222.600 C 38.800 223.150,38.980 223.600,39.200 223.600 C 39.420 223.600,39.600 224.140,39.600 224.800 C 39.600 225.460,39.780 226.000,40.000 226.000 C 40.220 226.000,40.400 226.349,40.400 226.776 C 40.400 227.203,40.580 227.664,40.800 227.800 C 41.020 227.936,41.200 228.397,41.200 228.824 C 41.200 229.251,41.470 229.600,41.800 229.600 C 42.219 229.600,42.400 230.022,42.400 231.000 C 42.400 231.770,42.580 232.400,42.800 232.400 C 43.020 232.400,43.200 232.760,43.200 233.200 C 43.200 233.640,43.380 234.000,43.600 234.000 C 43.820 234.000,44.000 234.990,44.000 236.200 C 44.000 237.410,44.180 238.400,44.400 238.400 C 44.620 238.400,44.800 239.030,44.800 239.800 C 44.800 241.027,44.924 241.200,45.800 241.200 C 46.764 241.200,46.800 241.107,46.800 238.600 C 46.800 237.133,46.974 236.000,47.200 236.000 C 47.420 236.000,47.600 235.550,47.600 235.000 C 47.600 234.450,47.780 234.000,48.000 234.000 C 48.220 234.000,48.400 233.291,48.400 232.424 C 48.400 231.557,48.580 230.736,48.800 230.600 C 49.020 230.464,49.200 230.003,49.200 229.576 C 49.200 229.149,49.470 228.800,49.800 228.800 C 50.173 228.800,50.400 228.422,50.400 227.800 C 50.400 227.250,50.580 226.800,50.800 226.800 C 51.020 226.800,51.200 226.260,51.200 225.600 C 51.200 224.940,51.380 224.400,51.600 224.400 C 51.820 224.400,52.000 224.040,52.000 223.600 C 52.000 223.160,52.180 222.800,52.400 222.800 C 52.620 222.800,52.800 222.530,52.800 222.200 C 52.800 221.870,52.980 221.600,53.200 221.600 C 53.420 221.600,53.600 221.240,53.600 220.800 C 53.600 220.360,53.793 220.000,54.029 220.000 C 54.673 220.000,55.600 218.944,55.600 218.210 C 55.600 217.492,57.327 215.600,57.982 215.600 C 58.212 215.600,58.400 215.449,58.400 215.264 C 58.400 214.523,61.966 211.200,62.760 211.200 C 63.222 211.200,63.600 211.007,63.600 210.771 C 63.600 210.094,64.672 209.200,65.483 209.200 C 65.890 209.200,66.483 208.840,66.800 208.400 C 67.117 207.960,67.697 207.600,68.088 207.600 C 68.480 207.600,68.800 207.420,68.800 207.200 C 68.800 206.980,69.430 206.800,70.200 206.800 C 71.427 206.800,71.600 206.676,71.600 205.800 C 71.600 205.000,71.400 204.800,70.600 204.800 C 70.050 204.800,69.600 204.620,69.600 204.400 C 69.600 204.180,69.240 204.000,68.800 204.000 C 68.360 204.000,68.000 203.820,68.000 203.600 C 68.000 203.380,67.659 203.200,67.243 203.200 C 66.826 203.200,66.382 202.930,66.255 202.600 C 66.129 202.270,65.741 202.000,65.394 202.000 C 65.047 202.000,64.344 201.595,63.832 201.100 C 62.151 199.476,61.200 198.800,60.595 198.800 C 60.268 198.800,60.000 198.612,60.000 198.382 C 60.000 198.152,59.558 197.522,59.018 196.982 C 58.478 196.442,57.848 196.000,57.618 196.000 C 57.388 196.000,57.200 195.634,57.200 195.187 C 57.200 194.352,54.755 191.600,54.013 191.600 C 53.786 191.600,53.600 191.150,53.600 190.600 C 53.600 190.050,53.420 189.600,53.200 189.600 C 52.980 189.600,52.800 189.240,52.800 188.800 C 52.800 188.360,52.620 188.000,52.400 188.000 C 52.180 188.000,52.000 187.640,52.000 187.200 C 52.000 186.760,51.820 186.400,51.600 186.400 C 51.380 186.400,51.200 185.950,51.200 185.400 C 51.200 184.850,51.020 184.400,50.800 184.400 C 50.580 184.400,50.400 184.040,50.400 183.600 C 50.400 183.156,50.133 182.800,49.800 182.800 C 49.381 182.800,49.200 182.378,49.200 181.400 C 49.200 180.630,49.020 180.000,48.800 180.000 C 48.580 180.000,48.400 179.550,48.400 179.000 C 48.400 178.450,48.220 178.000,48.000 178.000 C 47.780 178.000,47.600 177.280,47.600 176.400 C 47.600 175.520,47.420 174.800,47.200 174.800 C 46.980 174.800,46.800 173.990,46.800 173.000 C 46.800 171.347,46.719 171.200,45.800 171.200 C 45.067 171.200,44.800 171.413,44.800 172.000 M224.400 214.600 C 224.400 215.590,224.220 216.400,224.000 216.400 C 223.780 216.400,223.600 217.030,223.600 217.800 C 223.600 218.570,223.420 219.200,223.200 219.200 C 222.980 219.200,222.800 219.740,222.800 220.400 C 222.800 221.200,222.600 221.600,222.200 221.600 C 221.827 221.600,221.600 221.978,221.600 222.600 C 221.600 223.150,221.420 223.600,221.200 223.600 C 220.980 223.600,220.800 223.960,220.800 224.400 C 220.800 224.840,220.620 225.200,220.400 225.200 C 220.180 225.200,220.000 225.790,220.000 226.512 C 220.000 227.365,219.720 228.025,219.200 228.400 C 218.760 228.717,218.400 229.387,218.400 229.888 C 218.400 230.390,218.221 230.800,218.002 230.800 C 217.437 230.800,213.600 234.625,213.600 235.189 C 213.600 235.788,212.595 236.800,212.000 236.800 C 211.423 236.800,210.400 237.805,210.400 238.371 C 210.400 238.607,209.990 238.800,209.488 238.800 C 208.987 238.800,208.317 239.160,208.000 239.600 C 207.683 240.040,207.013 240.400,206.512 240.400 C 206.010 240.400,205.600 240.580,205.600 240.800 C 205.600 241.020,205.240 241.200,204.800 241.200 C 203.612 241.200,203.784 242.721,205.100 243.853 C 205.705 244.373,206.515 244.799,206.900 244.800 C 207.285 244.800,207.600 244.980,207.600 245.200 C 207.600 245.420,207.960 245.600,208.400 245.600 C 208.840 245.600,209.200 245.780,209.200 246.000 C 209.200 246.220,209.470 246.400,209.800 246.400 C 210.130 246.400,210.400 246.586,210.400 246.813 C 210.400 247.555,213.152 250.000,213.987 250.000 C 214.443 250.000,214.800 250.263,214.800 250.600 C 214.800 250.930,214.980 251.200,215.200 251.200 C 215.420 251.200,215.600 251.478,215.600 251.818 C 215.600 252.603,217.209 254.200,218.000 254.200 C 218.419 254.200,218.561 254.532,218.471 255.300 C 218.401 255.905,218.536 256.400,218.771 256.400 C 219.007 256.400,219.200 256.760,219.200 257.200 C 219.200 257.640,219.380 258.000,219.600 258.000 C 219.820 258.000,220.000 258.410,220.000 258.912 C 220.000 259.413,220.360 260.083,220.800 260.400 C 221.320 260.775,221.600 261.435,221.600 262.288 C 221.600 263.188,221.789 263.600,222.200 263.600 C 222.600 263.600,222.800 264.000,222.800 264.800 C 222.800 265.460,222.980 266.000,223.200 266.000 C 223.420 266.000,223.600 266.630,223.600 267.400 C 223.600 268.170,223.780 268.800,224.000 268.800 C 224.220 268.800,224.400 269.610,224.400 270.600 C 224.400 272.253,224.481 272.400,225.400 272.400 C 226.276 272.400,226.400 272.227,226.400 271.000 C 226.400 270.230,226.580 269.600,226.800 269.600 C 227.020 269.600,227.200 269.060,227.200 268.400 C 227.200 267.740,227.380 267.200,227.600 267.200 C 227.820 267.200,228.000 266.750,228.000 266.200 C 228.000 265.650,228.180 265.200,228.400 265.200 C 228.620 265.200,228.800 264.390,228.800 263.400 C 228.800 262.410,228.980 261.600,229.200 261.600 C 229.420 261.600,229.600 261.240,229.600 260.800 C 229.600 260.356,229.867 260.000,230.200 260.000 C 230.573 260.000,230.800 259.622,230.800 259.000 C 230.800 258.450,230.980 258.000,231.200 258.000 C 231.420 258.000,231.600 257.680,231.600 257.288 C 231.600 256.897,231.960 256.317,232.400 256.000 C 232.840 255.683,233.200 255.193,233.200 254.912 C 233.200 254.630,233.393 254.400,233.629 254.400 C 234.231 254.400,235.200 253.362,235.200 252.717 C 235.200 252.420,235.560 251.917,236.000 251.600 C 236.440 251.283,236.800 250.870,236.800 250.683 C 236.800 250.242,237.842 249.200,238.283 249.200 C 238.470 249.200,238.883 248.840,239.200 248.400 C 239.517 247.960,240.097 247.600,240.488 247.600 C 240.880 247.600,241.200 247.330,241.200 247.000 C 241.200 246.670,241.470 246.400,241.800 246.400 C 242.130 246.400,242.400 246.220,242.400 246.000 C 242.400 245.780,242.720 245.600,243.112 245.600 C 243.503 245.600,244.083 245.240,244.400 244.800 C 244.717 244.360,245.387 244.000,245.888 244.000 C 246.664 244.000,246.800 243.791,246.800 242.600 C 246.800 241.373,246.676 241.200,245.800 241.200 C 245.250 241.200,244.800 241.020,244.800 240.800 C 244.800 240.580,244.480 240.400,244.088 240.400 C 243.697 240.400,243.117 240.040,242.800 239.600 C 242.483 239.160,241.993 238.800,241.712 238.800 C 241.430 238.800,241.200 238.530,241.200 238.200 C 241.200 237.870,240.880 237.600,240.488 237.600 C 240.097 237.600,239.517 237.240,239.200 236.800 C 238.883 236.360,238.470 236.000,238.283 236.000 C 237.880 236.000,236.800 234.973,236.800 234.589 C 236.800 234.442,236.260 233.817,235.600 233.200 C 234.940 232.583,234.400 231.791,234.400 231.440 C 234.400 231.088,234.130 230.800,233.800 230.800 C 233.470 230.800,233.200 230.530,233.200 230.200 C 233.200 229.870,233.020 229.600,232.800 229.600 C 232.580 229.600,232.400 229.240,232.400 228.800 C 232.400 228.360,232.220 228.000,232.000 228.000 C 231.780 228.000,231.600 227.627,231.600 227.171 C 231.600 226.286,230.734 225.200,230.029 225.200 C 229.793 225.200,229.600 224.840,229.600 224.400 C 229.600 223.960,229.420 223.600,229.200 223.600 C 228.980 223.600,228.800 222.970,228.800 222.200 C 228.800 221.430,228.620 220.800,228.400 220.800 C 228.180 220.800,228.000 220.170,228.000 219.400 C 228.000 218.630,227.820 218.000,227.600 218.000 C 227.380 218.000,227.200 217.280,227.200 216.400 C 227.200 215.520,227.020 214.800,226.800 214.800 C 226.580 214.800,226.400 214.350,226.400 213.800 C 226.400 213.000,226.200 212.800,225.400 212.800 C 224.481 212.800,224.400 212.947,224.400 214.600 M344.400 231.000 C 344.400 232.210,344.220 233.200,344.000 233.200 C 343.771 233.200,343.600 234.400,343.600 236.000 C 343.600 237.600,343.429 238.800,343.200 238.800 C 342.980 238.800,342.800 239.501,342.800 240.357 C 342.800 241.372,342.591 241.995,342.200 242.145 C 341.751 242.317,341.600 243.034,341.600 244.987 C 341.600 246.462,341.426 247.600,341.200 247.600 C 340.980 247.600,340.800 247.960,340.800 248.400 C 340.800 248.840,340.620 249.200,340.400 249.200 C 340.180 249.200,340.000 249.830,340.000 250.600 C 340.000 251.370,339.820 252.000,339.600 252.000 C 339.380 252.000,339.200 252.529,339.200 253.176 C 339.200 253.823,339.020 254.464,338.800 254.600 C 338.580 254.736,338.400 255.557,338.400 256.424 C 338.400 257.558,338.232 258.000,337.800 258.000 C 337.427 258.000,337.200 258.378,337.200 259.000 C 337.200 259.550,337.020 260.000,336.800 260.000 C 336.580 260.000,336.400 260.540,336.400 261.200 C 336.400 261.860,336.220 262.400,336.000 262.400 C 335.780 262.400,335.600 262.850,335.600 263.400 C 335.600 263.950,335.420 264.400,335.200 264.400 C 334.980 264.400,334.800 264.741,334.800 265.157 C 334.800 265.574,334.530 266.018,334.200 266.145 C 333.870 266.271,333.600 266.701,333.600 267.099 C 333.600 267.497,333.240 268.083,332.800 268.400 C 332.280 268.775,332.000 269.435,332.000 270.288 C 332.000 271.010,331.820 271.600,331.600 271.600 C 331.380 271.600,331.200 271.960,331.200 272.400 C 331.200 272.840,331.020 273.200,330.800 273.200 C 330.580 273.200,330.400 273.650,330.400 274.200 C 330.400 274.750,330.207 275.200,329.971 275.200 C 329.369 275.200,328.400 276.238,328.400 276.883 C 328.400 277.180,328.040 277.683,327.600 278.000 C 327.160 278.317,326.800 278.987,326.800 279.488 C 326.800 279.990,326.607 280.400,326.371 280.400 C 325.729 280.400,324.800 281.455,324.800 282.185 C 324.800 282.786,322.315 285.600,321.785 285.600 C 321.382 285.600,320.400 286.714,320.400 287.171 C 320.400 287.407,320.220 287.600,320.000 287.600 C 319.780 287.600,319.600 287.883,319.600 288.229 C 319.600 289.111,318.611 290.000,317.629 290.000 C 317.173 290.000,316.800 290.186,316.800 290.413 C 316.800 290.641,316.176 291.451,315.413 292.213 C 314.651 292.976,313.841 293.600,313.613 293.600 C 313.386 293.600,313.200 293.780,313.200 294.000 C 313.200 294.220,312.840 294.400,312.400 294.400 C 311.960 294.400,311.600 294.593,311.600 294.829 C 311.600 295.382,310.582 296.400,310.029 296.400 C 309.793 296.400,309.600 296.580,309.600 296.800 C 309.600 297.020,309.240 297.200,308.800 297.200 C 308.360 297.200,308.000 297.380,308.000 297.600 C 308.000 297.820,307.640 298.000,307.200 298.000 C 306.756 298.000,306.400 298.267,306.400 298.600 C 306.400 298.930,306.130 299.200,305.800 299.200 C 305.470 299.200,305.200 299.380,305.200 299.600 C 305.200 299.820,304.840 300.000,304.400 300.000 C 303.960 300.000,303.600 300.180,303.600 300.400 C 303.600 300.620,303.251 300.800,302.824 300.800 C 302.397 300.800,301.936 300.980,301.800 301.200 C 301.664 301.420,301.203 301.600,300.776 301.600 C 300.349 301.600,300.000 301.780,300.000 302.000 C 300.000 302.220,299.640 302.400,299.200 302.400 C 298.756 302.400,298.400 302.667,298.400 303.000 C 298.400 303.419,297.978 303.600,297.000 303.600 C 296.230 303.600,295.600 303.780,295.600 304.000 C 295.600 304.220,294.970 304.400,294.200 304.400 C 293.430 304.400,292.800 304.580,292.800 304.800 C 292.800 305.020,292.260 305.200,291.600 305.200 C 290.587 305.200,290.400 305.356,290.400 306.200 C 290.400 307.044,290.587 307.200,291.600 307.200 C 292.260 307.200,292.800 307.380,292.800 307.600 C 292.800 307.820,293.610 308.000,294.600 308.000 C 295.590 308.000,296.400 308.180,296.400 308.400 C 296.400 308.620,296.850 308.800,297.400 308.800 C 297.950 308.800,298.400 308.980,298.400 309.200 C 298.400 309.420,298.940 309.600,299.600 309.600 C 300.260 309.600,300.800 309.780,300.800 310.000 C 300.800 310.220,301.250 310.400,301.800 310.400 C 302.422 310.400,302.800 310.627,302.800 311.000 C 302.800 311.330,303.120 311.600,303.512 311.600 C 303.903 311.600,304.483 311.960,304.800 312.400 C 305.117 312.840,305.787 313.200,306.288 313.200 C 306.790 313.200,307.200 313.380,307.200 313.600 C 307.200 313.820,307.560 314.000,308.000 314.000 C 308.440 314.000,308.800 314.193,308.800 314.429 C 308.800 314.982,309.818 316.000,310.371 316.000 C 310.607 316.000,310.800 316.180,310.800 316.400 C 310.800 316.620,311.120 316.800,311.512 316.800 C 311.903 316.800,312.483 317.160,312.800 317.600 C 313.117 318.040,313.607 318.400,313.888 318.400 C 314.170 318.400,314.400 318.593,314.400 318.829 C 314.400 319.431,315.438 320.400,316.083 320.400 C 316.380 320.400,316.883 320.760,317.200 321.200 C 317.517 321.640,318.007 322.000,318.288 322.000 C 318.570 322.000,318.800 322.198,318.800 322.440 C 318.800 322.681,319.340 323.383,320.000 324.000 C 320.660 324.617,321.200 325.409,321.200 325.760 C 321.200 326.112,321.470 326.400,321.800 326.400 C 322.130 326.400,322.400 326.598,322.400 326.840 C 322.400 327.081,322.940 327.783,323.600 328.400 C 324.260 329.017,324.806 329.764,324.813 330.060 C 324.827 330.682,325.751 332.000,326.173 332.000 C 326.689 332.000,327.600 333.131,327.600 333.771 C 327.600 334.117,327.780 334.400,328.000 334.400 C 328.220 334.400,328.400 334.670,328.400 335.000 C 328.400 335.330,328.580 335.600,328.800 335.600 C 329.020 335.600,329.200 335.960,329.200 336.400 C 329.200 336.840,329.393 337.200,329.629 337.200 C 330.334 337.200,331.200 338.286,331.200 339.171 C 331.200 339.627,331.380 340.000,331.600 340.000 C 331.820 340.000,332.000 340.540,332.000 341.200 C 332.000 341.860,332.180 342.400,332.400 342.400 C 332.620 342.400,332.800 342.670,332.800 343.000 C 332.800 343.330,332.980 343.600,333.200 343.600 C 333.420 343.600,333.600 344.140,333.600 344.800 C 333.600 345.600,333.800 346.000,334.200 346.000 C 334.573 346.000,334.800 346.378,334.800 347.000 C 334.800 347.550,334.980 348.000,335.200 348.000 C 335.420 348.000,335.600 348.360,335.600 348.800 C 335.600 349.240,335.780 349.600,336.000 349.600 C 336.220 349.600,336.400 350.050,336.400 350.600 C 336.400 351.150,336.580 351.600,336.800 351.600 C 337.020 351.600,337.200 352.140,337.200 352.800 C 337.200 353.600,337.400 354.000,337.800 354.000 C 338.219 354.000,338.400 354.422,338.400 355.400 C 338.400 356.170,338.580 356.800,338.800 356.800 C 339.020 356.800,339.200 357.610,339.200 358.600 C 339.200 359.590,339.380 360.400,339.600 360.400 C 339.820 360.400,340.000 361.030,340.000 361.800 C 340.000 362.570,340.180 363.200,340.400 363.200 C 340.620 363.200,340.800 363.740,340.800 364.400 C 340.800 365.060,340.980 365.600,341.200 365.600 C 341.420 365.600,341.600 366.397,341.600 367.371 C 341.600 368.413,341.847 369.390,342.200 369.743 C 342.530 370.073,342.800 370.896,342.800 371.571 C 342.800 372.247,342.980 372.800,343.200 372.800 C 343.433 372.800,343.600 374.133,343.600 376.000 C 343.600 377.867,343.767 379.200,344.000 379.200 C 344.220 379.200,344.400 380.203,344.400 381.428 C 344.400 383.509,344.459 383.647,345.300 383.528 C 346.133 383.410,346.209 383.169,346.317 380.300 C 346.381 378.595,346.606 377.200,346.817 377.200 C 347.028 377.200,347.200 376.210,347.200 375.000 C 347.200 373.790,347.380 372.800,347.600 372.800 C 347.826 372.800,348.000 371.667,348.000 370.200 C 348.000 368.733,348.174 367.600,348.400 367.600 C 348.620 367.600,348.800 366.970,348.800 366.200 C 348.800 365.430,348.980 364.800,349.200 364.800 C 349.420 364.800,349.600 364.170,349.600 363.400 C 349.600 362.422,349.781 362.000,350.200 362.000 C 350.644 362.000,350.800 361.533,350.800 360.200 C 350.800 359.210,350.980 358.400,351.200 358.400 C 351.420 358.400,351.600 357.860,351.600 357.200 C 351.600 356.540,351.780 356.000,352.000 356.000 C 352.220 356.000,352.400 355.370,352.400 354.600 C 352.400 353.830,352.580 353.200,352.800 353.200 C 353.020 353.200,353.200 352.570,353.200 351.800 C 353.200 350.822,353.381 350.400,353.800 350.400 C 354.133 350.400,354.400 350.044,354.400 349.600 C 354.400 349.160,354.580 348.800,354.800 348.800 C 355.020 348.800,355.200 348.170,355.200 347.400 C 355.200 346.630,355.380 346.000,355.600 346.000 C 355.820 346.000,356.000 345.680,356.000 345.288 C 356.000 344.897,356.360 344.317,356.800 344.000 C 357.240 343.683,357.600 343.013,357.600 342.512 C 357.600 341.968,357.842 341.600,358.200 341.600 C 358.533 341.600,358.800 341.244,358.800 340.800 C 358.800 340.360,358.980 340.000,359.200 340.000 C 359.420 340.000,359.600 339.590,359.600 339.088 C 359.600 338.587,359.960 337.917,360.400 337.600 C 360.840 337.283,361.200 336.722,361.200 336.354 C 361.200 335.987,361.470 335.582,361.800 335.455 C 362.130 335.329,362.400 334.932,362.400 334.573 C 362.400 334.214,362.940 333.417,363.600 332.800 C 364.260 332.183,364.800 331.378,364.800 331.011 C 364.800 330.362,365.692 329.200,366.190 329.200 C 366.711 329.200,368.400 327.205,368.400 326.590 C 368.400 325.958,369.299 324.800,369.790 324.800 C 370.105 324.800,372.000 322.914,372.000 322.600 C 372.000 322.194,373.942 320.400,374.382 320.400 C 374.612 320.400,374.800 320.220,374.800 320.000 C 374.800 319.780,375.160 319.600,375.600 319.600 C 376.040 319.600,376.400 319.407,376.400 319.171 C 376.400 318.618,377.418 317.600,377.971 317.600 C 378.207 317.600,378.400 317.420,378.400 317.200 C 378.400 316.980,378.678 316.800,379.018 316.800 C 379.714 316.800,381.600 315.060,381.600 314.418 C 381.600 314.188,382.050 314.000,382.600 314.000 C 383.150 314.000,383.600 313.820,383.600 313.600 C 383.600 313.380,383.960 313.200,384.400 313.200 C 384.840 313.200,385.200 313.020,385.200 312.800 C 385.200 312.580,385.470 312.400,385.800 312.400 C 386.130 312.400,386.400 312.220,386.400 312.000 C 386.400 311.780,386.760 311.600,387.200 311.600 C 387.644 311.600,388.000 311.333,388.000 311.000 C 388.000 310.667,388.356 310.400,388.800 310.400 C 389.240 310.400,389.600 310.220,389.600 310.000 C 389.600 309.780,390.230 309.600,391.000 309.600 C 391.770 309.600,392.400 309.420,392.400 309.200 C 392.400 308.980,392.850 308.800,393.400 308.800 C 393.950 308.800,394.400 308.620,394.400 308.400 C 394.400 308.180,394.940 308.000,395.600 308.000 C 396.260 308.000,396.800 307.820,396.800 307.600 C 396.800 307.380,397.520 307.200,398.400 307.200 C 399.840 307.200,400.000 307.100,400.000 306.200 C 400.000 305.356,399.813 305.200,398.800 305.200 C 398.140 305.200,397.600 305.020,397.600 304.800 C 397.600 304.580,396.880 304.400,396.000 304.400 C 395.120 304.400,394.400 304.220,394.400 304.000 C 394.400 303.780,393.950 303.600,393.400 303.600 C 392.778 303.600,392.400 303.373,392.400 303.000 C 392.400 302.667,392.044 302.400,391.600 302.400 C 391.160 302.400,390.800 302.220,390.800 302.000 C 390.800 301.780,390.350 301.600,389.800 301.600 C 389.250 301.600,388.800 301.420,388.800 301.200 C 388.800 300.980,388.440 300.800,388.000 300.800 C 387.560 300.800,387.200 300.620,387.200 300.400 C 387.200 300.180,386.647 300.000,385.971 300.000 C 384.746 300.000,383.600 299.241,383.600 298.429 C 383.600 298.193,383.222 298.000,382.760 298.000 C 382.299 298.000,381.417 297.460,380.800 296.800 C 380.183 296.140,379.481 295.600,379.239 295.600 C 378.998 295.600,377.818 294.610,376.617 293.400 C 375.390 292.163,374.077 291.200,373.617 291.200 C 373.168 291.200,372.800 291.014,372.800 290.787 C 372.800 290.559,372.176 289.749,371.413 288.987 C 370.651 288.224,369.841 287.600,369.613 287.600 C 369.386 287.600,369.200 287.330,369.200 287.000 C 369.200 286.670,369.020 286.400,368.800 286.400 C 368.580 286.400,368.400 286.122,368.400 285.782 C 368.400 285.086,366.660 283.200,366.018 283.200 C 365.788 283.200,365.600 282.822,365.600 282.360 C 365.600 281.899,365.060 281.017,364.400 280.400 C 363.740 279.783,363.200 278.978,363.200 278.611 C 363.200 277.860,362.280 276.800,361.629 276.800 C 361.393 276.800,361.200 276.440,361.200 276.000 C 361.200 275.560,361.020 275.200,360.800 275.200 C 360.580 275.200,360.400 274.930,360.400 274.600 C 360.400 274.270,360.220 274.000,360.000 274.000 C 359.780 274.000,359.600 273.640,359.600 273.200 C 359.600 272.760,359.420 272.400,359.200 272.400 C 358.980 272.400,358.800 272.034,358.800 271.587 C 358.800 271.141,358.530 270.671,358.200 270.545 C 357.870 270.418,357.600 269.974,357.600 269.557 C 357.600 269.141,357.420 268.800,357.200 268.800 C 356.980 268.800,356.800 268.440,356.800 268.000 C 356.800 267.560,356.620 267.200,356.400 267.200 C 356.180 267.200,356.000 266.750,356.000 266.200 C 356.000 265.650,355.820 265.200,355.600 265.200 C 355.380 265.200,355.200 264.671,355.200 264.024 C 355.200 263.377,355.020 262.736,354.800 262.600 C 354.580 262.464,354.400 262.003,354.400 261.576 C 354.400 261.149,354.130 260.800,353.800 260.800 C 353.381 260.800,353.200 260.378,353.200 259.400 C 353.200 258.630,353.020 258.000,352.800 258.000 C 352.580 258.000,352.400 257.640,352.400 257.200 C 352.400 256.760,352.220 256.400,352.000 256.400 C 351.780 256.400,351.600 255.770,351.600 255.000 C 351.600 254.230,351.420 253.600,351.200 253.600 C 350.980 253.600,350.800 252.790,350.800 251.800 C 350.800 250.467,350.644 250.000,350.200 250.000 C 349.800 250.000,349.600 249.600,349.600 248.800 C 349.600 248.140,349.420 247.600,349.200 247.600 C 348.980 247.600,348.800 246.790,348.800 245.800 C 348.800 244.810,348.620 244.000,348.400 244.000 C 348.180 244.000,348.000 243.010,348.000 241.800 C 348.000 240.590,347.820 239.600,347.600 239.600 C 347.380 239.600,347.200 238.610,347.200 237.400 C 347.200 236.190,347.020 235.200,346.800 235.200 C 346.567 235.200,346.400 233.867,346.400 232.000 C 346.400 228.853,346.383 228.800,345.400 228.800 C 344.455 228.800,344.400 228.920,344.400 231.000 M213.876 341.500 C 213.775 341.885,213.693 341.570,213.693 340.800 C 213.693 340.030,213.775 339.715,213.876 340.100 C 213.976 340.485,213.976 341.115,213.876 341.500 M213.600 370.200 C 213.600 371.667,213.426 372.800,213.200 372.800 C 212.980 372.800,212.800 373.430,212.800 374.200 C 212.800 374.970,212.620 375.600,212.400 375.600 C 212.174 375.600,212.000 376.733,212.000 378.200 C 212.000 379.667,211.826 380.800,211.600 380.800 C 211.380 380.800,211.200 381.160,211.200 381.600 C 211.200 382.040,211.020 382.400,210.800 382.400 C 210.580 382.400,210.400 383.030,210.400 383.800 C 210.400 384.778,210.219 385.200,209.800 385.200 C 209.381 385.200,209.200 385.622,209.200 386.600 C 209.200 387.370,209.020 388.000,208.800 388.000 C 208.580 388.000,208.400 388.360,208.400 388.800 C 208.400 389.240,208.220 389.600,208.000 389.600 C 207.780 389.600,207.600 390.230,207.600 391.000 C 207.600 391.770,207.420 392.400,207.200 392.400 C 206.980 392.400,206.800 392.760,206.800 393.200 C 206.800 393.644,206.533 394.000,206.200 394.000 C 205.870 394.000,205.600 394.270,205.600 394.600 C 205.600 394.930,205.420 395.200,205.200 395.200 C 204.980 395.200,204.800 395.700,204.800 396.312 C 204.800 396.965,204.470 397.661,204.000 398.000 C 203.560 398.317,203.200 398.807,203.200 399.088 C 203.200 399.370,203.020 399.600,202.800 399.600 C 202.580 399.600,202.400 399.960,202.400 400.400 C 202.400 400.844,202.133 401.200,201.800 401.200 C 201.457 401.200,201.200 401.560,201.200 402.040 C 201.200 402.501,200.660 403.383,200.000 404.000 C 199.340 404.617,198.800 405.319,198.800 405.561 C 198.800 405.802,197.810 406.982,196.600 408.183 C 195.390 409.383,194.400 410.553,194.400 410.783 C 194.400 411.012,194.202 411.200,193.960 411.200 C 193.719 411.200,193.017 411.740,192.400 412.400 C 191.783 413.060,190.978 413.600,190.611 413.600 C 189.956 413.600,188.800 414.493,188.800 415.000 C 188.800 415.493,187.652 416.400,187.029 416.400 C 186.683 416.400,186.400 416.580,186.400 416.800 C 186.400 417.020,186.130 417.200,185.800 417.200 C 185.470 417.200,185.200 417.380,185.200 417.600 C 185.200 417.820,184.840 418.000,184.400 418.000 C 183.960 418.000,183.600 418.172,183.600 418.382 C 183.600 418.592,182.970 418.882,182.200 419.026 C 181.430 419.171,180.800 419.449,180.800 419.645 C 180.800 419.840,180.440 420.000,180.000 420.000 C 179.560 420.000,179.200 420.180,179.200 420.400 C 179.200 420.620,178.750 420.800,178.200 420.800 C 177.650 420.800,177.200 420.980,177.200 421.200 C 177.200 421.420,176.840 421.600,176.400 421.600 C 175.752 421.600,175.600 421.867,175.600 423.000 C 175.600 424.382,175.622 424.400,177.312 424.400 C 178.565 424.400,179.178 424.614,179.600 425.200 C 179.975 425.720,180.635 426.000,181.488 426.000 C 182.210 426.000,182.800 426.180,182.800 426.400 C 182.800 426.620,183.160 426.800,183.600 426.800 C 184.040 426.800,184.400 426.993,184.400 427.229 C 184.400 427.906,185.472 428.800,186.283 428.800 C 186.690 428.800,187.283 429.160,187.600 429.600 C 187.917 430.040,188.407 430.400,188.688 430.400 C 188.970 430.400,190.182 431.390,191.383 432.600 C 192.583 433.810,193.753 434.800,193.983 434.800 C 194.212 434.800,194.400 434.989,194.400 435.221 C 194.400 435.452,195.750 436.979,197.400 438.613 C 199.050 440.247,200.400 441.857,200.400 442.192 C 200.400 442.526,200.580 442.800,200.800 442.800 C 201.020 442.800,201.200 443.070,201.200 443.400 C 201.200 443.730,201.470 444.000,201.800 444.000 C 202.130 444.000,202.400 444.320,202.400 444.712 C 202.400 445.103,202.760 445.683,203.200 446.000 C 203.640 446.317,204.000 446.987,204.000 447.488 C 204.000 448.188,204.227 448.400,204.976 448.400 C 206.124 448.400,206.678 449.082,206.045 449.715 C 205.383 450.377,205.493 452.000,206.200 452.000 C 206.533 452.000,206.800 452.356,206.800 452.800 C 206.800 453.240,206.980 453.600,207.200 453.600 C 207.420 453.600,207.600 454.050,207.600 454.600 C 207.600 455.150,207.780 455.600,208.000 455.600 C 208.220 455.600,208.400 456.140,208.400 456.800 C 208.400 457.460,208.580 458.000,208.800 458.000 C 209.020 458.000,209.200 458.450,209.200 459.000 C 209.200 459.622,209.427 460.000,209.800 460.000 C 210.200 460.000,210.400 460.400,210.400 461.200 C 210.400 461.860,210.580 462.400,210.800 462.400 C 211.020 462.400,211.200 463.210,211.200 464.200 C 211.200 465.190,211.380 466.000,211.600 466.000 C 211.820 466.000,212.000 466.810,212.000 467.800 C 212.000 468.790,212.180 469.600,212.400 469.600 C 212.620 469.600,212.800 470.410,212.800 471.400 C 212.800 472.390,212.980 473.200,213.200 473.200 C 213.420 473.200,213.600 474.010,213.600 475.000 C 213.600 476.333,213.756 476.800,214.200 476.800 C 214.530 476.800,214.800 476.980,214.800 477.200 C 214.800 477.420,215.160 477.600,215.600 477.600 C 216.303 477.600,216.400 477.333,216.400 475.400 C 216.400 474.190,216.580 473.200,216.800 473.200 C 217.020 473.200,217.200 472.390,217.200 471.400 C 217.200 470.067,217.356 469.600,217.800 469.600 C 218.244 469.600,218.400 469.133,218.400 467.800 C 218.400 466.810,218.580 466.000,218.800 466.000 C 219.020 466.000,219.200 465.190,219.200 464.200 C 219.200 463.210,219.380 462.400,219.600 462.400 C 219.820 462.400,220.000 462.040,220.000 461.600 C 220.000 461.160,220.180 460.800,220.400 460.800 C 220.620 460.800,220.800 460.170,220.800 459.400 C 220.800 458.630,220.980 458.000,221.200 458.000 C 221.420 458.000,221.600 457.460,221.600 456.800 C 221.600 456.000,221.800 455.600,222.200 455.600 C 222.530 455.600,222.800 455.330,222.800 455.000 C 222.800 454.670,222.980 454.400,223.200 454.400 C 223.420 454.400,223.600 453.860,223.600 453.200 C 223.600 452.540,223.780 452.000,224.000 452.000 C 224.220 452.000,224.400 451.550,224.400 451.000 C 224.400 450.450,224.580 450.000,224.800 450.000 C 225.020 450.000,225.200 449.640,225.200 449.200 C 225.200 448.756,225.467 448.400,225.800 448.400 C 226.158 448.400,226.400 448.032,226.400 447.488 C 226.400 446.987,226.760 446.317,227.200 446.000 C 227.640 445.683,228.000 445.103,228.000 444.712 C 228.000 444.320,228.180 444.000,228.400 444.000 C 228.620 444.000,228.800 443.807,228.800 443.571 C 228.800 443.105,229.785 442.000,230.200 442.000 C 230.693 442.000,231.600 440.852,231.600 440.229 C 231.600 439.883,231.780 439.600,232.000 439.600 C 232.220 439.600,232.400 439.330,232.400 439.000 C 232.400 438.670,232.592 438.400,232.827 438.400 C 233.071 438.400,233.146 438.059,233.001 437.604 C 232.634 436.447,233.088 435.924,233.977 436.478 C 234.678 436.916,236.000 436.218,236.000 435.410 C 236.000 435.095,237.886 433.200,238.200 433.200 C 238.606 433.200,240.400 431.258,240.400 430.818 C 240.400 430.588,240.850 430.400,241.400 430.400 C 241.950 430.400,242.400 430.220,242.400 430.000 C 242.400 429.780,242.720 429.600,243.112 429.600 C 243.503 429.600,244.083 429.240,244.400 428.800 C 244.717 428.360,245.387 428.000,245.888 428.000 C 246.390 428.000,246.800 427.807,246.800 427.571 C 246.800 426.780,247.933 426.000,249.083 426.000 C 249.765 426.000,250.455 425.678,250.800 425.200 C 251.205 424.638,251.835 424.400,252.917 424.400 C 254.627 424.400,255.600 423.685,255.600 422.429 C 255.600 421.748,255.349 421.600,254.200 421.600 C 253.430 421.600,252.800 421.420,252.800 421.200 C 252.800 420.980,252.260 420.800,251.600 420.800 C 250.940 420.800,250.400 420.620,250.400 420.400 C 250.400 420.180,249.969 420.000,249.443 420.000 C 248.916 420.000,248.382 419.730,248.255 419.400 C 248.129 419.070,247.749 418.800,247.413 418.800 C 247.076 418.800,246.800 418.620,246.800 418.400 C 246.800 418.180,246.530 418.000,246.200 418.000 C 245.870 418.000,245.600 417.820,245.600 417.600 C 245.600 417.380,245.240 417.200,244.800 417.200 C 244.360 417.200,244.000 417.020,244.000 416.800 C 244.000 416.580,243.640 416.400,243.200 416.400 C 242.760 416.400,242.400 416.220,242.400 416.000 C 242.400 415.780,242.130 415.600,241.800 415.600 C 241.470 415.600,241.200 415.407,241.200 415.171 C 241.200 414.534,240.147 413.600,239.429 413.600 C 239.083 413.600,238.800 413.420,238.800 413.200 C 238.800 412.980,238.612 412.800,238.382 412.800 C 237.942 412.800,236.000 411.006,236.000 410.600 C 236.000 410.286,234.105 408.400,233.790 408.400 C 233.383 408.400,232.400 407.289,232.400 406.829 C 232.400 406.593,232.220 406.400,232.000 406.400 C 231.780 406.400,231.600 406.117,231.600 405.771 C 231.600 405.148,230.693 404.000,230.200 404.000 C 229.693 404.000,228.800 402.844,228.800 402.189 C 228.800 401.822,228.260 401.017,227.600 400.400 C 226.766 399.621,226.400 398.901,226.400 398.040 C 226.400 397.358,226.207 396.800,225.971 396.800 C 225.266 396.800,224.400 395.714,224.400 394.829 C 224.400 394.373,224.220 394.000,224.000 394.000 C 223.780 394.000,223.600 393.460,223.600 392.800 C 223.600 392.140,223.420 391.600,223.200 391.600 C 222.980 391.600,222.800 391.150,222.800 390.600 C 222.800 389.978,222.573 389.600,222.200 389.600 C 221.867 389.600,221.600 389.244,221.600 388.800 C 221.600 388.360,221.420 388.000,221.200 388.000 C 220.980 388.000,220.800 387.370,220.800 386.600 C 220.800 385.830,220.620 385.200,220.400 385.200 C 220.180 385.200,220.000 384.570,220.000 383.800 C 220.000 383.030,219.820 382.400,219.600 382.400 C 219.380 382.400,219.200 381.860,219.200 381.200 C 219.200 380.540,219.020 380.000,218.800 380.000 C 218.580 380.000,218.400 379.190,218.400 378.200 C 218.400 376.867,218.244 376.400,217.800 376.400 C 217.356 376.400,217.200 375.933,217.200 374.600 C 217.200 373.610,217.020 372.800,216.800 372.800 C 216.574 372.800,216.400 371.667,216.400 370.200 L 216.400 367.600 215.000 367.600 L 213.600 367.600 213.600 370.200 " stroke="none" fill="#fcfcfc" fill-rule="evenodd"></path><path id="path1" d="M217.467 254.267 C 217.320 254.413,217.200 254.773,217.200 255.067 C 217.200 255.775,218.256 255.753,218.530 255.039 C 218.853 254.197,218.090 253.643,217.467 254.267 M228.800 277.200 C 228.800 277.420,228.260 277.600,227.600 277.600 C 226.667 277.600,226.400 277.778,226.400 278.400 C 226.400 279.321,228.137 279.549,228.680 278.700 C 228.856 278.425,229.268 278.200,229.595 278.200 C 229.922 278.200,230.250 277.885,230.324 277.500 C 230.417 277.015,230.204 276.800,229.629 276.800 C 229.173 276.800,228.800 276.980,228.800 277.200 M213.693 340.800 C 213.693 341.570,213.775 341.885,213.876 341.500 C 213.976 341.115,213.976 340.485,213.876 340.100 C 213.775 339.715,213.693 340.030,213.693 340.800 M233.063 436.270 C 232.516 436.818,232.831 437.600,233.600 437.600 C 234.040 437.600,234.400 437.442,234.400 437.249 C 234.400 436.724,233.366 435.967,233.063 436.270 M204.800 449.200 C 204.800 449.802,205.009 450.018,205.500 449.924 C 205.885 449.850,206.200 449.524,206.200 449.200 C 206.200 448.876,205.885 448.550,205.500 448.476 C 205.009 448.382,204.800 448.598,204.800 449.200 " stroke="none" fill="#e4e4e4" fill-rule="evenodd"></path></g></svg>